<svg xmlns="http://www.w3.org/2000/svg" viewBox="0 0 62.44 22.08"><defs><style>.cls-1{fill:#b15be1;}</style></defs><title>Asset 10</title><g id="Layer_2" data-name="Layer 2"><g id="Layer_1-2" data-name="Layer 1"><path class="cls-1" d="M59.54,1.11l-.45-.06,2.84,5.57c0-.42-.1-.81-.15-1.14Z"/><path class="cls-1" d="M56.89,1h-.43l5.82,11.41c0-.31,0-.61,0-.91Z"/><path class="cls-1" d="M54.31.94h-.43l8.53,16.72c0-.29,0-.58,0-.88Z"/><path class="cls-1" d="M51.75,1h-.43l10.46,20.5a1.43,1.43,0,0,0,.27-.32Z"/><path class="cls-1" d="M49.19,1h-.42L59.41,21.89l.42,0Z"/><path class="cls-1" d="M46.65,1.09h-.43L56.88,22h.43Z"/><path class="cls-1" d="M44.11,1.16l-.42,0L54.33,22h.43Z"/><path class="cls-1" d="M51.77,22.06h.42L41.58,1.25l-.42,0Z"/><path class="cls-1" d="M49.2,22.07h.43L39.06,1.35l-.43,0Z"/><path class="cls-1" d="M46.62,22.08h.43L36.53,1.46l-.42,0Z"/><path class="cls-1" d="M44,22.07h.43L34,1.58l-.42,0Z"/><path class="cls-1" d="M41.46,22.07h.43L31.5,1.7l-.42,0Z"/><path class="cls-1" d="M38.88,22.05h.43L29,1.83l-.41,0Z"/><path class="cls-1" d="M36.3,22h.43L26.49,2l-.42,0Z"/><path class="cls-1" d="M33.71,22h.43L24,2.12l-.42,0Z"/><path class="cls-1" d="M31.13,22h.43L21.49,2.28l-.41,0Z"/><path class="cls-1" d="M28.54,22H29L19,2.45l-.41,0Z"/><path class="cls-1" d="M26,22h.44L16.52,2.64l-.41,0Z"/><path class="cls-1" d="M23.37,22h.43L14.05,2.84l-.41,0Z"/><path class="cls-1" d="M20.79,21.94h.43L11.59,3.06l-.42,0Z"/><path class="cls-1" d="M18.2,21.93h.44L9.14,3.31l-.41,0Z"/><path class="cls-1" d="M15.62,21.92h.43L6.71,3.61l-.4.05Z"/><path class="cls-1" d="M13,21.92h.43L4.33,4l-.39.08Z"/><path class="cls-1" d="M10.47,21.92h.43l-8.67-17A4.55,4.55,0,0,0,2,5.39Z"/><path class="cls-1" d="M7.9,21.94h.43l-7-13.82c0,.19-.09.39-.13.59Z"/><path class="cls-1" d="M5.35,22h.43L.59,11.81l-.09.67Z"/><path class="cls-1" d="M3.25,22.07l-3-5.94c0,.29,0,.58,0,.86l2.35,4.6A1.32,1.32,0,0,0,3.25,22.07Z"/><path class="cls-1" d="M57.74,1l4.42,8.65q0-.49-.06-1L58.18,1Z"/><path class="cls-1" d="M55.15.94l7.21,14.13,0-.89L55.58.94Z"/><path class="cls-1" d="M52.58,1,62.4,20.2a2.83,2.83,0,0,0,0-.59v-.17L53,1Z"/><path class="cls-1" d="M50,1,60.65,21.81l.41,0L50.45,1Z"/><path class="cls-1" d="M47.48,1.06,58.13,22l.43,0L47.91,1.05Z"/><path class="cls-1" d="M44.94,1.14,55.59,22H56L45.37,1.12Z"/><path class="cls-1" d="M42.41,1.22,53,22.05h.43L42.83,1.21Z"/><path class="cls-1" d="M50.47,22.07h.43L40.3,1.3l-.42,0Z"/><path class="cls-1" d="M47.89,22.07h.44L37.78,1.41h-.42Z"/><path class="cls-1" d="M45.32,22.08h.43L35.26,1.52l-.42,0Z"/><path class="cls-1" d="M42.74,22.07h.43L32.74,1.64l-.42,0Z"/><path class="cls-1" d="M40.16,22.06h.43L30.23,1.76l-.42,0Z"/><path class="cls-1" d="M37.57,22.05H38L27.73,1.9l-.42,0Z"/><path class="cls-1" d="M35,22h.43l-10.2-20-.41,0Z"/><path class="cls-1" d="M32.4,22h.44L22.73,2.2l-.42,0Z"/><path class="cls-1" d="M29.82,22h.43l-10-19.63-.41,0Z"/><path class="cls-1" d="M27.23,22h.44L17.75,2.55l-.42,0Z"/><path class="cls-1" d="M24.65,22h.43L15.27,2.74l-.41,0Z"/><path class="cls-1" d="M22.06,22h.44L12.8,3l-.41,0Z"/><path class="cls-1" d="M19.48,21.93h.43L10.34,3.18l-.4,0Z"/><path class="cls-1" d="M16.9,21.92h.43L7.91,3.45l-.41,0Z"/><path class="cls-1" d="M14.32,21.92h.43L5.5,3.78l-.4.07Z"/><path class="cls-1" d="M11.74,21.92h.43l-9-17.67-.37.13Z"/><path class="cls-1" d="M9.17,21.93H9.6L1.71,6.45,1.56,7Z"/><path class="cls-1" d="M6.61,22H7L.9,9.93c0,.21-.07.42-.11.63Z"/><path class="cls-1" d="M4.07,22h.42L.34,13.88l-.06.73Z"/><path class="cls-1" d="M60.69,16.31c0,1.12-.52,2.06-1.22,2.15-6.65.79-51.19-.22-57.94.32-.75.06-1.32-.9-1.37-2.08C0,12.22-.18,2.79.59,1.35,1.8-.92,58.5.14,59.78,1.16,60.91,2.06,60.6,11.35,60.69,16.31Z"/></g></g></svg>