<svg xmlns="http://www.w3.org/2000/svg" xmlns:xlink="http://www.w3.org/1999/xlink" viewBox="0 0 504.44 223.19"><defs><style>.cls-1{fill:none;}.cls-2{clip-path:url(#clip-path);}.cls-3{fill:#a64ffe;}.cls-4,.cls-7{fill:#8b39ea;}.cls-4{opacity:0.56;}.cls-5{fill:#ff5794;}.cls-6{fill:#37e0ae;}.cls-8{fill:#ffe339;}.cls-9{fill:#fd0;}.cls-10{fill:url(#linear-gradient);}.cls-11{fill:url(#linear-gradient-2);}.cls-12{fill:url(#linear-gradient-4);}.cls-13{fill:url(#linear-gradient-5);}.cls-14{fill:url(#linear-gradient-6);}.cls-15{fill:url(#linear-gradient-9);}.cls-16{fill:url(#linear-gradient-10);}.cls-17{fill:url(#linear-gradient-13);}.cls-18{fill:url(#linear-gradient-14);}.cls-19{fill:url(#linear-gradient-15);}.cls-20{fill:url(#linear-gradient-16);}</style><clipPath id="clip-path" transform="translate(101.63 56.42)"><path class="cls-1" d="M322.59,33.71V155.44H0V33.71A33.71,33.71,0,0,1,33.71,0h41.5l7.55,13.37a22.38,22.38,0,0,0,19.48,11.37H220.35a22.36,22.36,0,0,0,19.48-11.37L247.37,0h41.52A33.72,33.72,0,0,1,322.59,33.71Z"/></clipPath><linearGradient id="linear-gradient" x1="248.03" y1="149.54" x2="314.29" y2="105.19" gradientTransform="translate(171.05 -144.38) rotate(44.09)" gradientUnits="userSpaceOnUse"><stop offset="0" stop-color="#ffaf30"/><stop offset="1" stop-color="#ffe94f"/></linearGradient><linearGradient id="linear-gradient-2" x1="248.03" y1="149.54" x2="314.29" y2="105.19" gradientTransform="matrix(1, 0, 0, 1, 0, 0)" xlink:href="#linear-gradient"/><linearGradient id="linear-gradient-4" x1="248.03" y1="149.54" x2="314.29" y2="105.19" gradientTransform="matrix(1, 0, 0, 1, 0, 0)" xlink:href="#linear-gradient"/><linearGradient id="linear-gradient-5" x1="243.5" y1="142.77" x2="309.76" y2="98.43" gradientTransform="translate(326.2 -183.08) rotate(75.82)" xlink:href="#linear-gradient"/><linearGradient id="linear-gradient-6" x1="243.5" y1="142.77" x2="309.76" y2="98.43" gradientTransform="matrix(1, 0, 0, 1, 0, 0)" xlink:href="#linear-gradient"/><linearGradient id="linear-gradient-9" x1="247.19" y1="148.28" x2="313.45" y2="103.93" gradientTransform="translate(296.35 -221.64) rotate(68.7)" xlink:href="#linear-gradient"/><linearGradient id="linear-gradient-10" x1="247.19" y1="148.28" x2="313.45" y2="103.93" gradientTransform="matrix(1, 0, 0, 1, 0, 0)" xlink:href="#linear-gradient"/><linearGradient id="linear-gradient-13" x1="254.58" y1="159.32" x2="320.84" y2="114.97" gradientTransform="translate(311.07 -192.7) rotate(68.7)" xlink:href="#linear-gradient"/><linearGradient id="linear-gradient-14" x1="254.58" y1="159.32" x2="320.84" y2="114.97" gradientTransform="matrix(1, 0, 0, 1, 0, 0)" xlink:href="#linear-gradient"/><linearGradient id="linear-gradient-15" x1="254.58" y1="159.32" x2="320.84" y2="114.97" gradientTransform="matrix(1, 0, 0, 1, 0, 0)" xlink:href="#linear-gradient"/><linearGradient id="linear-gradient-16" x1="254.58" y1="159.32" x2="320.84" y2="114.97" gradientTransform="matrix(1, 0, 0, 1, 0, 0)" xlink:href="#linear-gradient"/></defs><title>Asset 9</title><g id="Layer_2" data-name="Layer 2"><g id="Layer_1-2" data-name="Layer 1"><g class="cls-2"><rect class="cls-3" y="54.74" width="440.87" height="157.12"/><circle class="cls-4" cx="25.27" cy="23.8" r="80.22" transform="translate(92.2 81.26) rotate(-45)"/><circle class="cls-4" cx="322.59" cy="86.56" r="80.22" transform="translate(134.91 309.88) rotate(-45)"/><circle class="cls-5" cx="25.27" cy="23.8" r="44.02" transform="translate(92.2 81.26) rotate(-45)"/><circle class="cls-6" cx="119.12" cy="180.22" r="23.01"/><circle class="cls-7" cx="171.74" cy="165.99" r="46.02"/><circle class="cls-7" cx="322.59" cy="87.77" r="50.02" transform="translate(286.4 448.77) rotate(-80.87)"/><circle class="cls-8" cx="302.72" cy="0.79" r="36.52" transform="translate(355.43 355.95) rotate(-80.85)"/><circle class="cls-5" cx="295.79" cy="152.66" r="23.01"/><circle class="cls-6" cx="367.83" cy="53.45" r="23.01"/></g><path class="cls-9" d="M253.36,118.4l-3.66-3.79a2.72,2.72,0,0,0-2.4-.8l-5.2.86a2.72,2.72,0,0,1-2.85-4l2.48-4.65a2.7,2.7,0,0,0,0-2.53l-2.42-4.68a2.72,2.72,0,0,1,2.89-3.93l5.18.92a2.71,2.71,0,0,0,2.42-.77l3.69-3.75a2.72,2.72,0,0,1,4.64,1.53l.73,5.22a2.72,2.72,0,0,0,1.47,2.06l4.71,2.35a2.72,2.72,0,0,1,0,4.88l-4.74,2.31a2.74,2.74,0,0,0-1.5,2l-.78,5.21A2.72,2.72,0,0,1,253.36,118.4Z" transform="translate(101.63 56.42)"/><rect class="cls-10" x="259.76" y="134.98" width="8.04" height="8.04" transform="translate(79.24 279.14) rotate(-44.09)"/><path class="cls-11" d="M263.69,144.84l-5.75-5.94,5.93-5.74,5.75,5.93Zm-5.44-5.93,5.44,5.62,5.62-5.45-5.44-5.61Z" transform="translate(101.63 56.42)"/><path class="cls-11" d="M263.68,145.14l-6.05-6.24,6.25-6.05,6.05,6.24Zm-5.12-6.23,5.14,5.31,5.3-5.14-5.14-5.3Z" transform="translate(101.63 56.42)"/><path class="cls-12" d="M263.68,145.3l-6.2-6.4,6.4-6.21,6.2,6.41Zm-5.89-6.4,5.9,6.09,6.08-5.9-5.9-6.09Zm5.91,5.47-5.29-5.46,5.45-5.29,5.29,5.46Zm-5-5.45,5,5.14,5.14-5-5-5.15Z" transform="translate(101.63 56.42)"/><rect class="cls-13" x="278.13" y="115.39" width="5.04" height="5.04" transform="translate(199.2 417.54) rotate(-75.82)"/><path class="cls-14" d="M282.56,121.1l-5.1-1.28,1.29-5.1,5.1,1.28Zm-4.84-1.44,4.68,1.18,1.18-4.68L278.91,115Z" transform="translate(101.63 56.42)"/><path class="cls-14" d="M282.63,121.22l-5.29-1.34,1.34-5.28,5.28,1.33Zm-4.79-1.63,4.49,1.13,1.13-4.49L279,115.1Z" transform="translate(101.63 56.42)"/><path class="cls-14" d="M282.71,121.35l-5.5-1.39,1.39-5.49,5.5,1.39Zm-5.24-1.54,5.08,1.28,1.28-5.08-5.07-1.28Zm4.94,1-4.7-1.18,1.19-4.7,4.7,1.18ZM278,119.51l4.28,1.08,1.08-4.28-4.28-1.08Z" transform="translate(101.63 56.42)"/><rect class="cls-15" x="307.82" y="103.49" width="5.04" height="5.04" transform="translate(200.45 413.05) rotate(-68.7)"/><path class="cls-16" d="M306.93,107.5l1.91-4.9,4.9,1.92-1.91,4.9Zm2-4.61-1.75,4.49,4.49,1.75,1.75-4.49Z" transform="translate(101.63 56.42)"/><path class="cls-16" d="M306.81,107.56l2-5.08,5.08,2-2,5.08ZM309,103l-1.68,4.32,4.31,1.68,1.69-4.32Z" transform="translate(101.63 56.42)"/><path class="cls-16" d="M306.67,107.62l2.06-5.28L314,104.4,312,109.68Zm2.18-5L307,107.5l4.88,1.9,1.9-4.88Zm-1.65,4.77,1.76-4.52,4.52,1.76-1.76,4.52Zm1.89-4.24-1.61,4.11,4.11,1.61,1.6-4.11Z" transform="translate(101.63 56.42)"/><rect class="cls-17" x="294" y="128.72" width="5.04" height="5.04" transform="translate(168.15 416.24) rotate(-68.7)"/><path class="cls-18" d="M293.12,132.74l1.91-4.9,4.9,1.91-1.91,4.9Zm2-4.62-1.75,4.49,4.49,1.76,1.75-4.5Z" transform="translate(101.63 56.42)"/><path class="cls-19" d="M293,132.79l2-5.08,5.08,2-2,5.08Zm2.22-4.54-1.68,4.31,4.31,1.68,1.68-4.31Z" transform="translate(101.63 56.42)"/><path class="cls-20" d="M292.85,132.86l2.06-5.29,5.29,2.06-2.07,5.29Zm2.19-5-1.91,4.87,4.88,1.9,1.9-4.87Zm-1.66,4.76,1.77-4.51,4.51,1.76-1.76,4.51Zm1.89-4.23-1.6,4.11,4.11,1.6,1.6-4.11Z" transform="translate(101.63 56.42)"/><path class="cls-1" d="M191.67,123.59l-.79.23a.28.28,0,0,0,0-.09.87.87,0,0,0-.75-.81,17.28,17.28,0,0,1,.87-1.57.07.07,0,0,0,0-.09l0,0,0,0a.62.62,0,0,1,.65.7l-.08.07a.07.07,0,0,0,0,.12v0l0,0s0,0,0,.07a.11.11,0,0,0,.19.06l.06-.09a.45.45,0,0,1,.42.16.4.4,0,0,1-.11.53c-.11.08,0,.21.13.14l0,0a.58.58,0,0,1,.26,0,.08.08,0,0,0,0,.14h.09C192.35,123.32,192,123.47,191.67,123.59Z" transform="translate(101.63 56.42)"/></g></g></svg>