<svg width="177" height="394" viewBox="0 0 177 394" fill="none" xmlns="http://www.w3.org/2000/svg">
<path d="M146.192 198.165C146.192 198.165 157.318 216.633 158.976 234.217C160.634 251.801 148.886 393.891 148.886 393.891H10.4604C10.4604 393.891 47.5484 218.432 59.6784 207.175L60.5074 195.503L146.192 198.165Z" fill="#263238"/>
<path d="M152.104 212.248C152.134 213.073 152.116 213.9 152.049 214.724C151.89 217.092 151.447 219.432 150.729 221.694C149.608 225.293 147.858 228.665 145.559 231.653C144.126 233.524 142.479 235.219 140.65 236.704C138.586 238.327 136.398 239.786 134.105 241.067C131.716 242.463 129.164 243.816 126.611 245.43C123.937 247.011 121.502 248.965 119.379 251.234C117.211 253.752 115.538 256.657 114.449 259.797C113.359 263.161 112.603 266.625 112.191 270.138C111.7 273.737 111.383 277.457 110.893 281.253C110.451 285.143 109.573 288.97 108.275 292.663C106.867 296.503 104.568 299.954 101.566 302.731C98.4249 305.498 94.8692 307.754 91.0287 309.418C83.3929 312.92 75.3645 315.156 68.5905 319.236C65.2689 321.203 62.3607 323.796 60.0275 326.871C57.8951 329.907 56.2568 333.261 55.1733 336.809C52.9917 343.725 52.0099 350.629 50.1992 356.88C49.9592 357.654 49.7192 358.429 49.4901 359.192C49.2611 359.956 48.9556 360.687 48.6938 361.429C48.1339 362.867 47.5004 364.276 46.7958 365.65C46.1522 367.014 45.3341 368.257 44.6142 369.501C44.2106 370.101 43.796 370.69 43.3924 371.268L42.7925 372.13L42.138 372.948C39.0634 376.871 35.3807 380.278 31.2298 383.038C28.1029 385.127 24.7328 386.827 21.1942 388.099C18.9578 388.884 16.6638 389.493 14.3329 389.921L12.5112 390.194L11.8785 390.27L12.5003 390.139L14.3111 389.812C16.6242 389.341 18.8993 388.699 21.1178 387.892C29.3027 384.848 36.479 379.587 41.8435 372.697L42.487 371.89L43.087 371.028L44.2869 369.272C45.0069 368.039 45.8141 366.806 46.4686 365.443C47.1643 364.084 47.787 362.69 48.3339 361.265C48.5957 360.534 48.8466 359.792 49.1083 359.083C49.3701 358.374 49.5774 357.556 49.8065 356.782C51.5954 350.575 52.5117 343.692 54.737 336.678C55.8351 333.076 57.4954 329.671 59.6566 326.588C62.0266 323.436 64.9913 320.778 68.3832 318.766C75.2445 314.61 83.2511 312.374 90.8651 308.884C94.6526 307.262 98.1609 305.053 101.261 302.339C104.186 299.628 106.428 296.264 107.806 292.521C109.075 288.836 109.924 285.02 110.336 281.144C110.827 277.37 111.154 273.65 111.656 270.039C112.082 266.494 112.849 262.998 113.947 259.6C115.072 256.402 116.785 253.442 118.997 250.874C121.162 248.583 123.641 246.61 126.36 245.016C128.935 243.445 131.498 242.092 133.876 240.729C136.166 239.444 138.354 237.985 140.421 236.366C142.232 234.908 143.868 233.246 145.297 231.413C147.588 228.467 149.348 225.145 150.5 221.596C151.244 219.354 151.724 217.033 151.929 214.68C152.017 213.873 152.017 213.262 152.049 212.837C152.082 212.411 152.104 212.248 152.104 212.248Z" fill="#455A64"/>
<path d="M155.987 225.163C156.067 225.344 156.136 225.53 156.195 225.719C156.392 226.26 156.548 226.814 156.664 227.377C157.086 229.569 157.045 231.824 156.544 233.999C155.761 237.443 154.214 240.668 152.017 243.434C149.046 247.011 145.675 250.235 141.97 253.044C138.01 256.317 133.505 259.818 130.047 264.771C128.257 267.313 127.002 270.193 126.361 273.235C125.758 276.477 125.393 279.758 125.27 283.053C125.141 286.555 124.654 290.034 123.819 293.437C122.904 296.984 121.567 300.408 119.837 303.637C116.196 310.454 110.919 316.26 104.479 320.534C97.8137 324.897 90.2979 326.991 83.6984 330.275C80.4279 331.813 77.4173 333.852 74.7755 336.318C72.3232 338.761 70.3413 341.634 68.9287 344.793C66.1252 350.968 64.969 357.392 63.4091 363.239C62.6857 366.081 61.7969 368.878 60.7475 371.617C59.7479 374.136 58.471 376.536 56.9405 378.773C55.5226 380.783 53.8671 382.614 52.01 384.227C51.1591 385.023 50.2319 385.678 49.3702 386.354C48.5084 387.03 47.5922 387.586 46.6759 388.066C43.6278 389.854 40.3135 391.143 36.8585 391.884C34.6876 392.336 32.4764 392.567 30.259 392.572L28.5355 392.484H27.9464H28.5355H30.259C32.4608 392.425 34.6522 392.159 36.8039 391.688C40.2079 390.91 43.4689 389.603 46.4686 387.816C47.3631 387.336 48.203 386.725 49.1084 386.103C50.0138 385.481 50.8755 384.772 51.7155 383.976C53.5416 382.357 55.1676 380.526 56.5587 378.522C58.0578 376.302 59.3089 373.924 60.2893 371.431C61.317 368.706 62.1875 365.923 62.8964 363.097C64.4454 357.272 65.5689 350.815 68.3505 344.553C69.7812 341.33 71.7927 338.398 74.2846 335.903C76.9666 333.395 80.0253 331.323 83.3493 329.762C90.0034 326.435 97.53 324.308 104.075 320.043C113.523 313.777 120.334 304.252 123.208 293.285C124.035 289.913 124.521 286.467 124.659 282.998C124.768 279.67 125.133 276.355 125.75 273.083C126.408 269.98 127.693 267.044 129.524 264.454C133.058 259.447 137.618 255.935 141.588 252.695C145.338 249.938 148.76 246.761 151.788 243.227C153.979 240.509 155.54 237.338 156.358 233.944C156.864 231.798 156.938 229.574 156.576 227.399C156.26 225.916 155.944 225.174 155.987 225.163Z" fill="#455A64"/>
<path d="M15.4891 126.356C15.4891 126.356 24.4666 188.271 38.2765 194.282C45.2359 197.325 50.8318 194.707 54.6388 187.737C58.4458 180.766 68.165 130.119 68.165 130.119L41.298 129.487L40.2945 139.555L29.9317 120.28L15.4891 126.356Z" fill="#E4E9E8"/>
<path d="M55.0971 166.782C55.0443 166.608 54.9672 166.443 54.868 166.291L54.1372 164.939L51.4319 159.975C49.1194 155.787 45.9778 149.983 42.4763 143.558C38.9747 137.133 35.9313 131.341 33.6733 127.054L31.0117 122.047L30.2808 120.695C30.1063 120.389 30.0081 120.226 29.9863 120.237C30.0352 120.41 30.1009 120.578 30.1827 120.738L30.8372 122.135C31.4153 123.345 32.2662 125.08 33.3461 127.229C35.5277 131.505 38.5493 137.373 42.0727 143.798C45.596 150.223 48.7703 156.005 51.1592 160.161C52.3591 162.233 53.3409 163.891 54.0499 165.037L54.868 166.346C54.9299 166.498 55.0066 166.644 55.0971 166.782V166.782Z" fill="#6F4C47"/>
<path d="M148.722 140.831L141.054 175.138L144.686 198.165H60.4093L65.9179 90.6862L86.9272 88.8972L138.261 97.5693L148.722 140.831Z" fill="#CEDE17"/>
<path d="M127.288 96.9475C127.288 96.9475 149.235 94.9295 159.696 109.863C166.099 119.004 175.077 140.002 175.077 140.002L145.854 145.053L127.288 96.9475Z" fill="#CEDE17"/>
<g opacity="0.3">
<path d="M140.596 141.235C139.112 138.201 136.796 135.65 133.919 133.881C131.041 132.112 127.72 131.197 124.342 131.243C122.881 131.243 121.234 131.636 120.459 132.868C119.685 134.101 120.11 135.868 120.677 137.297C121.408 139.162 122.379 141.137 124.168 142.031C125.477 142.686 127.015 142.653 128.422 143.122C130.101 143.767 131.636 144.738 132.938 145.98C134.106 146.85 135.114 147.917 135.916 149.133C136.455 150.163 136.844 151.265 137.072 152.405C138.501 158.012 139.636 169.585 141.054 175.192L142.625 170.36C142.668 165.749 142.708 161.139 142.745 156.528C142.788 151.292 142.788 145.926 140.596 141.235Z" fill="black"/>
</g>
<path d="M114.394 169.836C114.394 169.749 115.485 169.945 117.383 170.087C119.779 170.277 122.188 170.218 124.572 169.913C126.956 169.593 129.302 169.034 131.575 168.244C133.32 167.633 134.367 167.153 134.4 167.229C134.192 167.403 133.961 167.546 133.713 167.655C133.061 168.001 132.391 168.31 131.706 168.582C127.151 170.392 122.217 171.037 117.35 170.458C116.616 170.373 115.888 170.246 115.169 170.076C114.899 170.042 114.637 169.961 114.394 169.836V169.836Z" fill="#263238"/>
<path d="M77.6116 171.342C77.6116 171.211 89.6106 174.614 104.239 178.977C118.867 183.341 130.778 186.919 130.735 187.06C130.691 187.202 118.736 183.788 104.097 179.425C89.4579 175.061 77.6116 171.483 77.6116 171.342Z" fill="#263238"/>
<g opacity="0.3">
<path d="M114.994 169.978C116.069 171.572 117.559 172.841 119.302 173.651C121.046 174.46 122.977 174.778 124.888 174.57C126.712 174.366 128.439 173.64 129.861 172.479C131.283 171.318 132.34 169.772 132.905 168.026C127.207 170.225 121.033 170.898 114.994 169.978V169.978Z" fill="black"/>
</g>
<g opacity="0.3">
<path d="M127.539 185.97L127.233 186.09C119.706 187.431 112.649 186.09 105.417 183.515C98.1845 180.941 91.4868 177.254 84.8219 173.512L127.539 185.97Z" fill="black"/>
</g>
<path d="M65.9179 90.6861C65.9179 90.6861 52.0209 92.3878 46.6322 104.256C42.9291 112.721 39.7951 121.423 37.2511 130.305L65.6125 136.686C65.6125 136.686 70.074 112.688 70.4121 104.256C70.7939 94.9949 71.1648 90.4134 65.9179 90.6861Z" fill="#CEDE17"/>
<path d="M63.2454 140.482C62.9939 137.84 62.9138 135.183 63.0054 132.53C62.9268 129.88 63.0179 127.228 63.2782 124.589C63.5299 127.228 63.6101 129.881 63.5181 132.53C63.5966 135.184 63.5055 137.84 63.2454 140.482V140.482Z" fill="#263238"/>
<path d="M78.637 14.6449C86.1309 5.48198 96.2101 0.202399 108.089 0.00605087C114.765 -0.103031 117.536 1.28231 122.346 2.58039C127.154 3.74322 131.401 6.55769 134.345 10.5325C137.76 15.3758 140.628 20.7971 141.272 26.6767C141.927 32.7307 142.592 38.8175 142.134 44.8825C141.676 50.9475 140.039 57.0452 136.462 61.9757L121.026 64.6592C112.496 64.9428 103.857 65.2264 95.5557 63.2847C87.2545 61.343 79.1933 56.8707 74.7427 49.5949C68.5687 39.483 71.1321 23.8187 78.637 14.6449Z" fill="#263238"/>
<path d="M131.782 70.6586C131.782 70.6586 132.033 71.0404 132.709 71.4658C133.672 72.0638 134.757 72.4366 135.883 72.5567C137.583 72.7448 139.299 72.3978 140.792 71.564C142.605 70.4665 143.925 68.7124 144.477 66.6665C145.03 64.6206 144.773 62.4405 143.759 60.5794C142.891 59.1098 141.587 57.9469 140.028 57.2524C139.001 56.7881 137.883 56.5572 136.756 56.5761C136.343 56.5472 135.929 56.6261 135.556 56.8052C137.016 56.8636 138.452 57.1967 139.789 57.7869C141.163 58.5021 142.3 59.6011 143.061 60.9503C143.901 62.6279 144.094 64.556 143.603 66.3667C143.112 68.1775 141.972 69.7441 140.399 70.7677C139.081 71.546 137.565 71.9249 136.036 71.8585C134.554 71.7386 133.109 71.3311 131.782 70.6586V70.6586Z" fill="#E0E0E0"/>
<path d="M63.6709 59.445C63.8181 57.6882 64.3656 55.9884 65.2712 54.4757C66.1769 52.9631 67.4168 51.6779 68.8959 50.7185C70.399 49.8079 72.1526 49.3986 73.9034 49.5496C75.6543 49.7005 77.3119 50.404 78.637 51.5584L81.0695 54.4491C82.9489 55.322 84.5099 56.7582 85.5361 58.5584C86.5623 60.3587 87.0028 62.4337 86.7963 64.4955C86.5143 66.5503 85.6524 68.4821 84.3116 70.0644C82.9707 71.6467 81.2066 72.814 79.226 73.4294C77.2319 73.9898 75.1271 74.0284 73.1138 73.5413C71.1005 73.0542 69.2462 72.0578 67.7287 70.6478C66.2446 69.2123 65.1077 67.457 64.4045 65.5156C63.7013 63.5743 63.4504 61.498 63.6709 59.445V59.445Z" fill="#263238"/>
<path d="M66.7034 69.8515C66.1101 68.9389 65.82 67.8624 65.8743 66.7753C66.0052 64.8009 67.4342 62.2157 69.3977 59.8486C71.1237 57.8146 73.2232 56.1299 75.5827 54.8854C77.3935 53.9145 78.637 53.5655 78.5933 53.4346C77.4474 53.5298 76.3334 53.8603 75.3209 54.4054C72.7954 55.5443 70.5585 57.2369 68.7759 59.3577C67.7866 60.5128 66.9473 61.7882 66.2779 63.1538C65.6746 64.2653 65.3349 65.5007 65.2853 66.7644C65.2625 67.6296 65.502 68.4814 65.9725 69.2079C66.4088 69.7096 66.7034 69.8842 66.7034 69.8515Z" fill="#455A64"/>
<path d="M74.1974 74.4111C74.4483 74.4111 73.4011 69.7315 74.8846 64.2119C76.3681 58.6923 79.4879 55.1363 79.2479 54.9944C78.4315 55.6247 77.7398 56.4015 77.2081 57.2852C75.7925 59.3343 74.7476 61.616 74.121 64.0265C73.4926 66.4344 73.2859 68.9329 73.5101 71.4113C73.5552 72.4447 73.7881 73.4612 74.1974 74.4111V74.4111Z" fill="#455A64"/>
<path d="M121.026 89.6935C120.928 84.2394 120.797 79.8761 120.797 79.8761C120.797 79.8761 133.385 78.4908 136.854 62.3684C138.589 54.3509 138.905 41.0537 138.818 30.1782C138.741 20.3608 130.396 7.05277 118.31 7.00913L112.932 6.37646L92.3595 14.5576C90.9235 14.6252 89.5655 15.2303 88.5551 16.2529C87.5447 17.2754 86.9558 18.6405 86.9054 20.0772L86.3381 88.9518L106.224 137.232L120.492 117.891L121.026 89.6935Z" fill="#E4E9E8"/>
<path d="M112.671 58.5833C112.791 57.7573 113.21 57.0042 113.849 56.4671C114.434 55.9639 115.168 55.6667 115.939 55.6214C116.71 55.5761 117.474 55.7851 118.114 56.2162C118.778 56.7268 119.293 57.4058 119.605 58.1827C119.918 58.9596 120.017 59.806 119.892 60.6341V60.6341C119.539 61.1305 119.084 61.5452 118.557 61.8502C118.03 62.1551 117.444 62.343 116.838 62.4012C116.645 62.4123 116.452 62.4123 116.26 62.4012C115.3 62.3966 114.376 62.0305 113.674 61.3758C113.307 61.0163 113.026 60.5783 112.852 60.0947C112.678 59.611 112.616 59.0943 112.671 58.5833V58.5833Z" fill="#6F4C47"/>
<path d="M130.822 41.3046C130.799 41.8495 130.564 42.3638 130.166 42.7371C129.768 43.1103 129.24 43.3127 128.695 43.3008C128.428 43.3081 128.163 43.2618 127.914 43.1648C127.666 43.0677 127.439 42.9219 127.248 42.7358C127.057 42.5497 126.905 42.3271 126.801 42.0813C126.697 41.8355 126.644 41.5714 126.644 41.3046C126.67 40.7606 126.906 40.2479 127.303 39.8753C127.7 39.5026 128.227 39.2993 128.771 39.3084C129.038 39.3011 129.303 39.3473 129.552 39.4444C129.8 39.5414 130.027 39.6873 130.218 39.8734C130.409 40.0595 130.561 40.282 130.665 40.5279C130.769 40.7737 130.822 41.0378 130.822 41.3046V41.3046Z" fill="#263238"/>
<path d="M134.814 36.2105C134.542 36.4614 133.025 35.207 130.778 35.1197C128.531 35.0324 126.83 36.036 126.6 35.7524C126.371 35.4688 126.775 35.1415 127.517 34.6615C128.529 34.0453 129.705 33.7523 130.887 33.8216C132.056 33.8846 133.175 34.3161 134.083 35.0542C134.738 35.5887 134.945 36.0905 134.814 36.2105Z" fill="#263238"/>
<path d="M120.71 53.2164C121.911 52.9064 123.146 52.7524 124.386 52.7583C124.964 52.7583 125.477 52.6492 125.63 52.2565C125.716 51.67 125.617 51.0713 125.346 50.5439C124.877 49.1258 124.397 47.6314 123.884 46.0824C121.877 39.7338 120.448 34.5306 120.71 34.4543C120.972 34.3779 122.804 39.4502 124.812 45.7988C125.292 47.3587 125.761 48.8531 126.197 50.2821C126.522 50.99 126.584 51.7907 126.372 52.5401C126.28 52.74 126.142 52.9153 125.969 53.0518C125.797 53.1882 125.594 53.282 125.379 53.3255C125.057 53.4 124.727 53.4294 124.397 53.4128C123.165 53.5072 121.925 53.4412 120.71 53.2164Z" fill="#263238"/>
<path d="M120.797 79.8652C113.131 79.5625 105.7 77.1381 99.3298 72.8621C99.3298 72.8621 104.511 84.4576 120.885 83.8249L120.797 79.8652Z" fill="#6F4C47"/>
<path d="M114.012 54.4054C114.383 54.4054 114.252 56.8379 116.194 58.6814C118.136 60.5249 120.797 60.4049 120.797 60.7431C120.797 60.8958 120.197 61.1903 119.096 61.1576C117.667 61.0974 116.304 60.5377 115.245 59.5759C114.236 58.6478 113.622 57.3664 113.532 55.998C113.543 54.9726 113.849 54.3836 114.012 54.4054Z" fill="#263238"/>
<path d="M134.334 27.7457C133.931 28.2693 132.229 27.8111 130.211 27.8657C128.193 27.9202 126.502 28.3565 126.088 27.8657C125.902 27.6148 126.153 27.0912 126.873 26.5785C127.863 25.9358 129.02 25.5982 130.2 25.6076C131.374 25.5676 132.532 25.8791 133.527 26.5021C134.334 26.9712 134.542 27.4839 134.334 27.7457Z" fill="#263238"/>
<path d="M104.697 40.7156C104.67 41.2665 104.863 41.8056 105.233 42.2145C105.603 42.6235 106.12 42.869 106.671 42.8973C106.936 42.9212 107.202 42.8923 107.456 42.8123C107.709 42.7323 107.944 42.6028 108.147 42.4314C108.35 42.2599 108.517 42.0498 108.638 41.8133C108.759 41.5768 108.832 41.3187 108.853 41.0538C108.879 40.5028 108.687 39.9638 108.316 39.5548C107.946 39.1459 107.429 38.9003 106.878 38.8721C106.613 38.8467 106.346 38.8745 106.092 38.9539C105.838 39.0333 105.603 39.1627 105.399 39.3345C105.196 39.5062 105.029 39.7169 104.909 39.9541C104.788 40.1913 104.716 40.4502 104.697 40.7156Z" fill="#263238"/>
<path d="M104.053 35.4032C104.304 35.6759 105.907 34.5306 108.155 34.5742C110.402 34.6179 112.027 35.7741 112.278 35.5014C112.529 35.2287 112.147 34.8906 111.438 34.4106C110.485 33.7206 109.342 33.3398 108.165 33.3198C106.996 33.2913 105.849 33.6393 104.893 34.3124C104.162 34.7924 103.922 35.2723 104.053 35.4032Z" fill="#263238"/>
<path d="M102.755 30.5709C103.191 31.0945 104.937 30.5709 107.02 30.5709C109.104 30.5709 110.871 30.9854 111.285 30.4509C111.46 30.2 111.198 29.6873 110.435 29.1855C109.387 28.5726 108.19 28.2629 106.977 28.2911C105.771 28.282 104.587 28.6148 103.562 29.251C102.821 29.7964 102.57 30.32 102.755 30.5709Z" fill="#263238"/>
<path d="M89.7198 47.4132C89.7852 46.1915 88.5417 43.2681 87.3527 43.0499C84.1893 42.3845 78.4079 42.3191 77.917 50.4348C77.2298 61.5176 88.498 59.9141 88.5417 59.5977C88.5853 59.2814 89.5016 51.5911 89.7198 47.4132Z" fill="#E4E9E8"/>
<path d="M85.7383 55.3217C85.6838 55.3217 85.531 55.4417 85.1929 55.5726C84.7235 55.7387 84.2084 55.7191 83.753 55.5181C82.6076 55.0163 81.735 53.0855 81.8004 51.0893C81.8308 50.1354 82.073 49.2001 82.5094 48.3514C82.6321 48.0098 82.8379 47.7043 83.1084 47.4624C83.3788 47.2205 83.7054 47.0499 84.0584 46.966C84.2817 46.9223 84.5133 46.9585 84.7127 47.0681C84.912 47.1778 85.0666 47.354 85.1492 47.566C85.2801 47.8823 85.2038 48.1005 85.2583 48.1223C85.3129 48.1441 85.5092 47.9477 85.4438 47.4896C85.4015 47.2109 85.2625 46.9561 85.0511 46.7696C84.9039 46.6382 84.7307 46.5393 84.5428 46.4791C84.3549 46.419 84.1564 46.399 83.9603 46.4206C83.4986 46.4806 83.0603 46.6587 82.6877 46.9377C82.315 47.2167 82.0207 47.5871 81.8331 48.0132C81.3054 48.9436 81.0098 49.9876 80.9714 51.0566C80.9059 53.3037 81.9204 55.4199 83.5021 56.0198C83.7934 56.1244 84.1045 56.162 84.4123 56.1299C84.7201 56.0978 85.0167 55.9968 85.2801 55.8344C85.6947 55.6053 85.771 55.3435 85.7383 55.3217Z" fill="#6F4C47"/>
<path d="M86.8945 43.039L89.7197 45.9625C101.882 34.3234 125.662 5.16566 124.332 6.90007C118.788 4.83016 112.814 4.18139 106.955 5.01295C97.9009 6.55101 80.775 11.0779 81.0149 21.7571C81.2549 32.4363 86.8945 43.039 86.8945 43.039Z" fill="#263238"/>
<path d="M87.1562 70.6587C87.1562 70.6587 86.9054 71.0404 86.24 71.4659C85.2742 72.0653 84.1852 72.4382 83.0547 72.5567C81.3586 72.7447 79.6461 72.3977 78.1569 71.564C76.3443 70.4664 75.0238 68.7131 74.4693 66.6678C73.9149 64.6226 74.169 62.4423 75.179 60.5794C76.0507 59.109 77.3583 57.9463 78.9205 57.2524C79.9474 56.786 81.0654 56.555 82.193 56.5761C82.6094 56.5511 83.0254 56.6298 83.4038 56.8052C81.9484 56.8801 80.5201 57.2279 79.1932 57.8306C77.8197 58.5468 76.6831 59.6455 75.9208 60.994C75.0809 62.6716 74.888 64.5996 75.3789 66.4104C75.8698 68.2211 77.0102 69.7877 78.5824 70.8114C79.9207 71.599 81.4601 71.9782 83.0111 71.9022C84.4599 71.7578 85.8672 71.3356 87.1562 70.6587V70.6587Z" fill="#E0E0E0"/>
<path d="M70.7831 40.5956C70.8216 40.3762 70.88 40.1608 70.9576 39.952C71.1586 39.35 71.4104 38.7661 71.7103 38.2067C72.8574 36.1517 74.4396 34.3722 76.3463 32.9926C79.1758 30.973 82.3302 29.453 85.6728 28.4984C89.3816 27.2985 93.5704 26.3167 97.6719 24.5932C101.532 22.9775 105.193 20.9204 108.58 18.4628C111.357 16.4465 113.946 14.1829 116.314 11.6997C117.904 10.0182 119.397 8.24825 120.786 6.39829L121.877 4.86023C122.012 4.67092 122.166 4.49552 122.335 4.33663C122.258 4.5434 122.151 4.73806 122.019 4.91477C121.779 5.28565 121.452 5.83106 120.928 6.50737C119.605 8.42693 118.147 10.2496 116.565 11.9615C114.221 14.5042 111.638 16.8164 108.853 18.8664C105.432 21.3798 101.722 23.4746 97.8028 25.1059C93.8744 26.6111 89.8691 27.9074 85.8037 28.9892C82.503 29.9032 79.377 31.3592 76.5535 33.298C74.6664 34.6279 73.0734 36.3323 71.8739 38.3049C71.0667 39.7338 70.8485 40.6174 70.7831 40.5956Z" fill="#455A64"/>
<path d="M74.0119 42.3409C73.9839 41.5118 74.1326 40.6864 74.4482 39.9192C75.281 37.7987 76.733 35.978 78.6151 34.6942C80.9277 32.9707 84.2329 31.9017 87.8653 31.0727C91.8211 30.2835 95.6771 29.0579 99.3626 27.4184C103.028 25.7398 106.472 23.6148 109.616 21.0916C112.178 19.0249 114.531 16.7122 116.641 14.1867C118.058 12.4744 119.366 10.6746 120.557 8.79804L121.495 7.24908C121.597 7.06267 121.718 6.88722 121.855 6.72549C121.799 6.93068 121.71 7.12575 121.594 7.30362C121.375 7.72904 121.092 8.26354 120.743 8.91804C119.616 10.8498 118.348 12.6948 116.947 14.4376C112.292 20.2242 106.354 24.8477 99.6026 27.942C95.8831 29.6041 91.9852 30.8338 87.9853 31.6072C84.3529 32.4144 81.124 33.4179 78.8442 35.0542C76.998 36.2741 75.5434 38.0014 74.6555 40.0283C74.3697 40.7775 74.1542 41.5517 74.0119 42.3409V42.3409Z" fill="#455A64"/>
<path d="M16.6128 132.399C15.991 132.17 15.1729 123.345 15.1729 123.345C15.1729 123.345 6.34816 116.288 5.14825 113.419C3.94835 110.55 4.12288 103.711 4.12288 103.711L18.5763 93.8932C18.5763 93.8932 27.1174 101.529 29.3536 104.54C30.6081 106.22 31.5352 110.856 32.1897 114.608C32.7131 117.798 32.8341 121.041 32.5497 124.262L32.3425 126.749C32.3425 126.749 26.5284 136.086 16.6128 132.399Z" fill="#E4E9E8"/>
<path d="M5.81359 115.153C4.77456 114.231 3.78767 113.251 2.85746 112.219C0.981247 110.19 -1.10223 108.292 0.675817 106.143C0.942837 105.788 1.28217 105.493 1.6714 105.279C2.06063 105.065 2.49092 104.935 2.93383 104.9C2.93383 104.9 1.843 103.012 2.79202 101.823C3.05937 101.472 3.40673 101.19 3.80518 101C4.20363 100.811 4.64165 100.719 5.08275 100.733C5.08275 100.733 3.67558 98.0274 4.97366 96.2058C5.46832 95.5407 6.13886 95.0269 6.90977 94.7224C7.68068 94.4179 8.52132 94.3347 9.33696 94.4823C9.33696 94.4823 3.47923 82.5486 3.13017 81.9378C1.82118 79.6798 1.94117 77.2145 4.55915 76.9418C5.51907 76.8436 6.34811 77.5963 8.83519 81.3051C11.3223 85.0139 15.4892 91.2862 15.4892 91.2862C15.4892 91.2862 20.0379 95.1368 22.3177 97.2966C24.5976 99.4564 29.3645 104.518 30.1608 106.023C32.2006 109.939 31.7643 116.244 31.7643 116.244L15.1838 123.345C15.1838 123.345 6.88259 116.102 5.81359 115.153Z" fill="#E4E9E8"/>
<path d="M3.43565 105.314C4.12298 105.719 4.77927 106.175 5.39912 106.678L7.48259 108.227C7.90389 108.53 8.29808 108.87 8.6607 109.241C9.08483 109.653 9.36093 110.194 9.4461 110.779C9.50044 111.082 9.47238 111.393 9.3649 111.681C9.25743 111.969 9.07449 112.223 8.83524 112.415C8.37098 112.737 7.80006 112.866 7.24261 112.775C6.77624 112.726 6.31587 112.631 5.8682 112.492C5.44278 112.372 5.06098 112.252 4.70101 112.132C4.00288 111.903 3.43564 111.695 3.05385 111.532C2.67207 111.368 2.47573 111.27 2.48664 111.237C2.49755 111.205 3.37021 111.488 4.77737 111.881C5.594 112.132 6.42926 112.318 7.27534 112.437C7.74095 112.493 8.2115 112.385 8.60614 112.132C8.791 111.973 8.93144 111.769 9.01367 111.539C9.09589 111.31 9.11711 111.063 9.07522 110.823C8.99253 110.318 8.75194 109.852 8.388 109.492C8.05305 109.131 7.68814 108.799 7.29717 108.499L5.25734 106.874C4.60592 106.408 3.99638 105.886 3.43565 105.314V105.314Z" fill="#6F4C47"/>
<path d="M17.8673 101.78C17.3969 100.945 17.1315 100.01 17.0928 99.0528C16.927 98.1111 16.9831 97.1438 17.2564 96.2276C17.3764 96.2276 17.2564 97.4929 17.4636 99.0201C17.6709 100.547 17.9764 101.747 17.8673 101.78Z" fill="#6F4C47"/>
<path d="M25.8957 102.991C23.7863 102.047 21.4492 101.733 19.1654 102.085C16.8904 102.436 14.6829 103.135 12.6204 104.158C10.9624 104.943 9.15158 106.1 8.92251 107.921C8.69344 109.743 10.406 111.488 12.2604 111.848C14.1475 112.058 16.0532 111.677 17.7145 110.757C19.3627 109.816 21.1216 109.083 22.9505 108.576" fill="#E4E9E8"/>
<path d="M22.9722 108.63C22.9722 108.63 22.4814 108.75 21.6196 109.077C20.4249 109.566 19.2562 110.116 18.1181 110.725C17.3165 111.138 16.4807 111.481 15.6201 111.75C14.6189 112.079 13.5582 112.187 12.5112 112.066C11.3247 111.912 10.2448 111.302 9.50055 110.365C9.09554 109.874 8.83159 109.282 8.73696 108.652C8.66772 107.993 8.79689 107.328 9.10787 106.743C9.78417 105.675 10.7589 104.83 11.9113 104.311C12.9312 103.799 13.9802 103.347 15.0528 102.958C16.8723 102.277 18.7937 101.908 20.736 101.867C22.0434 101.835 23.3463 102.031 24.5867 102.445C24.9261 102.558 25.2576 102.693 25.5793 102.849C25.6909 102.899 25.797 102.962 25.8956 103.034C25.8956 103.034 25.4266 102.838 24.543 102.587C23.305 102.241 22.0205 102.09 20.736 102.14C18.8289 102.228 16.9493 102.63 15.1728 103.329C14.1173 103.717 13.0864 104.168 12.0858 104.681C11.0015 105.172 10.0841 105.968 9.44602 106.972C9.16254 107.48 9.04791 108.064 9.11876 108.641C9.19773 109.204 9.42767 109.736 9.78418 110.179C10.4731 111.041 11.4631 111.61 12.5548 111.772C13.5557 111.888 14.5697 111.795 15.5328 111.499C16.3833 111.244 17.2114 110.919 18.009 110.528C19.1653 109.94 20.3565 109.422 21.576 108.979C21.9115 108.869 22.2541 108.782 22.6014 108.717C22.7202 108.671 22.8451 108.642 22.9722 108.63V108.63Z" fill="#6F4C47"/>
<path d="M3.64282 105.467C6.40261 107.529 9.09694 109.939 11.584 112.263C12.2646 113.009 13.1301 113.562 14.0929 113.866C14.8674 114.03 16.2091 112.775 16.8309 112.23L7.91883 102.871" fill="#E4E9E8"/>
<path d="M7.91883 102.871C8.19033 103.064 8.43918 103.287 8.66062 103.536L10.5804 105.478C12.2058 107.136 14.4529 109.459 16.9727 112.099L17.1036 112.241L16.9509 112.372C16.4751 112.799 15.9762 113.199 15.4564 113.572C15.2321 113.72 14.9948 113.848 14.7474 113.953C14.6153 114.008 14.4754 114.041 14.3329 114.052C14.1889 114.081 14.0405 114.081 13.8966 114.052C13.4025 113.906 12.9401 113.669 12.533 113.354C11.7367 112.743 11.1041 112.077 10.4387 111.488C9.12968 110.288 7.95157 109.219 6.94802 108.336C5.94446 107.452 5.10452 106.754 4.52639 106.274C4.21583 106.039 3.92071 105.784 3.64282 105.511C3.98898 105.693 4.31445 105.913 4.61364 106.165C5.2245 106.601 6.08626 107.256 7.11163 108.128C8.13701 109.001 9.35874 110.037 10.6677 111.237C11.3331 111.815 11.9985 112.492 12.7512 113.059C13.1222 113.346 13.5441 113.561 13.9947 113.692C14.218 113.718 14.4442 113.696 14.6585 113.628C14.8729 113.561 15.0704 113.448 15.2383 113.299C15.7499 112.937 16.2415 112.547 16.7109 112.132V112.328C14.1911 109.677 11.9876 107.321 10.4059 105.62L8.56245 103.602C8.33358 103.371 8.11864 103.127 7.91883 102.871V102.871Z" fill="#6F4C47"/>
<path d="M5.41003 100.035L14.3984 110.157C14.9933 110.913 15.7127 111.563 16.5255 112.077C16.9334 112.332 17.3981 112.481 17.8779 112.511C18.3578 112.542 18.8376 112.453 19.2744 112.252C19.8176 111.876 20.2199 111.33 20.4175 110.699C20.6151 110.069 20.5967 109.391 20.3652 108.772C19.8801 107.538 19.1362 106.422 18.1836 105.5C15.4713 102.423 13.0023 99.141 10.7987 95.6821" fill="#E4E9E8"/>
<path d="M10.8204 95.6494C10.8204 95.6494 10.9186 95.7476 11.0713 95.9658L11.7258 96.9148C12.3039 97.7329 13.1329 98.911 14.202 100.34C15.271 101.769 16.6127 103.416 18.1616 105.194C19.0382 106.085 19.7739 107.103 20.3433 108.216C20.6281 108.844 20.7374 109.538 20.6596 110.223C20.6029 110.948 20.2759 111.625 19.7434 112.121C19.4647 112.357 19.1376 112.529 18.7852 112.625C18.4327 112.722 18.0635 112.739 17.7035 112.677C17.0218 112.576 16.3786 112.298 15.8382 111.87C14.9046 111.044 14.0399 110.143 13.2529 109.176L9.11871 104.452C7.97335 103.132 7.04615 102.042 6.35893 101.245L5.61718 100.329C5.5245 100.23 5.44394 100.12 5.3772 100.002C5.3772 100.002 5.48627 100.089 5.67171 100.275L6.46802 101.114L9.31509 104.245L13.5147 108.914C14.2947 109.856 15.1482 110.735 16.0673 111.543C16.5571 111.93 17.1402 112.182 17.758 112.274C18.0656 112.325 18.3805 112.309 18.6816 112.228C18.9826 112.147 19.2629 112.003 19.5034 111.805C19.9633 111.37 20.2436 110.778 20.2888 110.146C20.3599 109.528 20.2619 108.902 20.0051 108.336C19.4312 107.249 18.6956 106.256 17.8235 105.39C16.2745 103.602 14.9655 101.911 13.9183 100.46C12.8711 99.0092 12.064 97.8093 11.5295 96.9584C11.2677 96.533 11.0604 96.2057 10.9295 95.9767C10.8815 95.8718 10.845 95.7621 10.8204 95.6494V95.6494Z" fill="#6F4C47"/>
<path d="M24.532 118.873C24.197 119.05 23.8191 119.129 23.4412 119.102C22.5557 119.151 21.671 118.994 20.856 118.644C20.0239 118.309 19.2781 117.791 18.6743 117.128C18.4106 116.869 18.2125 116.551 18.0962 116.201C18.8794 117.114 19.8654 117.831 20.9753 118.295C22.0852 118.759 23.2883 118.957 24.4884 118.873H24.532Z" fill="#6F4C47"/>
<path d="M138.84 90.3372L135.698 129.978C135.645 130.656 135.327 131.286 134.812 131.731C134.297 132.176 133.628 132.401 132.949 132.356L110.86 130.872C110.515 130.852 110.177 130.762 109.867 130.608C109.558 130.454 109.282 130.24 109.057 129.977C108.832 129.714 108.662 129.409 108.558 129.079C108.453 128.75 108.416 128.402 108.449 128.058L112.06 88.45C112.118 87.7776 112.437 87.1547 112.949 86.7145C113.461 86.2742 114.124 86.0514 114.798 86.0939L136.429 87.501C136.775 87.5243 137.113 87.6167 137.423 87.7728C137.733 87.9289 138.008 88.1456 138.233 88.41C138.458 88.6744 138.627 88.9811 138.732 89.3121C138.836 89.6432 138.872 89.9917 138.84 90.3372V90.3372Z" fill="#455A64"/>
<path d="M170.462 140.799C170.462 140.799 177.062 185.391 176.8 191.38C176.538 197.369 169.764 210.666 160.645 211.964C151.526 213.262 142.93 204.928 142.668 193.987C142.406 183.046 141.054 148.445 141.054 148.445L147.861 144.693L170.462 140.799Z" fill="#E4E9E8"/>
<path d="M132.884 103.951C132.884 103.951 139.712 108.15 141.73 109.252C143.748 110.354 143.486 118.491 143.486 118.491L154.984 145.216L141.13 150.18C141.13 150.18 136.189 140.831 134.771 139.653C133.8 138.89 132.688 138.327 131.498 137.995C131.498 137.995 130.789 140.591 128.662 139.413C126.974 138.3 125.46 136.943 124.168 135.388C124.168 135.388 122.27 136.577 121.561 135.159C120.852 133.741 119.674 130.665 119.674 130.665C119.674 130.665 123.688 125.462 125.346 125.462C127.004 125.462 135.512 125.931 135.512 125.931C135.512 125.931 135.043 125.222 132.676 124.284C130.309 123.345 116.238 119.189 115.572 118.938C114.58 118.557 113.467 115.971 116.543 115.731C119.619 115.491 136.931 118.589 136.931 118.589C136.931 118.589 137.88 114.117 137.171 113.135C136.461 112.154 130.277 108.205 132.884 103.951Z" fill="#E4E9E8"/>
<path d="M124.113 135.235C123.993 134.592 124.012 133.93 124.168 133.294C124.316 132.553 124.699 131.88 125.259 131.374C125.996 130.84 126.891 130.571 127.8 130.61C129.355 130.51 130.915 130.565 132.458 130.774C133.103 130.816 133.737 130.963 134.334 131.21C134.334 131.374 131.411 130.883 127.789 131.123C126.988 131.083 126.194 131.297 125.521 131.734C125.032 132.171 124.686 132.745 124.528 133.381C124.423 134.006 124.284 134.625 124.113 135.235V135.235Z" fill="#6F4C47"/>
<path d="M126.862 136.032C127.768 136.402 128.652 136.821 129.513 137.286C130.444 137.592 131.355 137.956 132.24 138.377C131.222 138.445 130.205 138.226 129.306 137.744C128.341 137.426 127.491 136.83 126.862 136.032V136.032Z" fill="#6F4C47"/>
<path d="M136.112 118.491C137.033 118.63 137.887 119.053 138.555 119.7C139.224 120.347 139.674 121.187 139.843 122.102C139.701 122.102 139.232 121.011 138.196 120.073C137.16 119.135 136.058 118.633 136.112 118.491Z" fill="#6F4C47"/>
<path d="M18.0745 357.131C17.9218 357.131 23.8777 332.042 31.3826 301.193C38.8874 270.345 45.0833 245.409 45.236 245.409C45.3887 245.409 39.4328 270.498 31.928 301.357C24.4231 332.216 18.2272 357.163 18.0745 357.131Z" fill="#455A64"/>
</svg>
