<svg xmlns="http://www.w3.org/2000/svg" viewBox="0 0 285.31 1">
    <defs>
        <style>
            .cls-1{fill:#d1d3d4}
        </style>
    </defs>
    <g id="Layer_2" data-name="Layer 2">
        <g id="Layer_1-2" data-name="Layer 1">
            <path class="cls-1" d="M0 0h3v1H0zM276.37 1h-5.94V0h5.94Zm-11.89 0h-5.94V0h5.94ZM252.6 1h-5.94V0h5.94Zm-11.89 0h-5.94V0h5.94Zm-11.88 0h-6V0h6Zm-11.89 0H211V0h5.94Zm-11.88 0h-5.95V0h5.95Zm-11.89 0h-5.94V0h5.94Zm-11.88 0h-5.95V0h5.95ZM169.4 1h-5.94V0h5.94Zm-11.89 0h-5.94V0h5.94Zm-11.88 0h-5.94V0h5.94Zm-11.89 0h-5.94V0h5.94Zm-11.88 0h-6V0h6ZM110 1h-6V0h6ZM98.09 1h-6V0h6ZM86.2 1h-5.94V0h5.94ZM74.31 1h-5.94V0h5.94ZM62.43 1h-5.94V0h5.94ZM50.54 1H44.6V0h5.94ZM38.66 1h-5.95V0h5.95ZM26.77 1h-5.94V0h5.94ZM14.89 1h-6V0h6ZM282.31 0h3v1h-3z"/>
        </g>
    </g>
</svg>
