<svg xmlns="http://www.w3.org/2000/svg" viewBox="0 0 32.88 32.88">
    <defs>
        <style>
            .cls-1{fill:#fff}
        </style>
    </defs>
    <g id="Layer_2" data-name="Layer 2">
        <g id="Layer_1-2" data-name="Layer 1">
            <rect class="cls-1" width="32.88" height="32.88" rx="9.84"/>
            <rect x="1.11" y="1.11" width="30.65" height="30.65" rx="8.54" style="fill:#5779d1"/>
            <path d="M31.76 9.65v12.77a8.53 8.53 0 0 1-7.28 8.44c-4.16-.16-10.69-.61-15.15-1.86-7-1.93-5.56-7-5.25-17.28.23-8 15.78-9.46 22.85-9.78a8.53 8.53 0 0 1 4.83 7.71Z" style="fill:#57bde5"/>
            <path d="M9.33 29c4.46 1.23 11 1.68 15.15 1.84a7.44 7.44 0 0 1-1.25.1H9.65a8.55 8.55 0 0 1-8.54-8.54V9.65a8.54 8.54 0 0 1 8.54-8.53h13.58a8.51 8.51 0 0 1 3.7.84c-7.07.32-22.62 1.81-22.85 9.78C3.77 22 2.32 27.09 9.33 29Z" style="opacity:.74;fill:#57bde5"/>
            <path class="cls-1" d="M24.56 11.64H8.31a1.54 1.54 0 0 1 0-3.08h16.25a1.54 1.54 0 1 1 0 3.08ZM24.56 18H8.31a1.54 1.54 0 0 1 0-3.08h16.25a1.54 1.54 0 1 1 0 3.08ZM24.56 24.32H8.31a1.55 1.55 0 0 1 0-3.09h16.25a1.55 1.55 0 1 1 0 3.09Z"/>
        </g>
    </g>
</svg>
