<svg xmlns="http://www.w3.org/2000/svg" viewBox="0 0 425.82 150.543">
    <path d="M406.052 7.56a43.692 43.692 0 0 0-3.129-.379l19.374 37.974c-.313-2.889-.655-5.506-1.031-7.774L406.052 7.56ZM387.961 6.534c-.971-.017-1.934-.036-2.964-.049l39.692 77.798c-.073-2.087-.15-4.165-.233-6.218L387.961 6.534ZM370.34 6.438c-.952.004-1.95.012-2.93.018l58.184 114.042c-.035-1.957-.073-3.956-.112-5.981L370.34 6.438ZM352.865 6.619c-.957.015-1.939.032-2.915.049l71.338 139.827a10.92 10.92 0 0 0 1.821-2.192L352.865 6.619ZM335.466 6.959c-.969.022-1.929.043-2.911.067l72.586 142.273c.996-.05 1.945-.102 2.867-.155L335.466 6.959ZM318.122 7.406l-2.902.084 72.66 142.419c.987-.024 1.955-.05 2.906-.077L318.122 7.406ZM300.823 7.94l-2.89.098 72.549 142.201 2.92-.041L300.823 7.94ZM353.003 150.422l2.927-.022L283.56 8.549c-.956.035-1.922.073-2.883.109l72.327 141.765ZM335.483 150.515l2.936-.011L266.337 9.221l-2.88.119 72.026 141.175ZM317.926 150.543h2.939L249.138 9.952l-2.874.129 71.662 140.462ZM300.345 150.527l2.942.005-71.319-139.791-2.869.138 71.247 139.647ZM282.741 150.475l2.951.011-70.865-138.9-2.869.148 70.783 138.741ZM265.142 150.398l2.946.015-70.369-137.926-2.858.158 70.28 137.753ZM247.515 150.304l2.954.017-69.831-136.873-2.858.169 69.735 136.686ZM229.892 150.195l2.943.019-69.253-135.741-2.842.179 69.152 135.543ZM212.261 150.079l2.944.02-68.636-134.532c-.951.063-1.89.127-2.836.191l68.528 134.321ZM194.627 149.958l2.949.02-67.977-133.24c-.954.068-1.887.138-2.834.207l67.862 133.014ZM176.994 149.838l2.955.02-67.272-131.857c-.953.074-1.888.149-2.832.223l67.148 131.615ZM159.368 149.724l2.949.018L95.805 19.375l-2.817.241 66.379 130.108ZM141.744 149.62l2.947.016L79.005 20.887l-2.802.27 65.54 128.463ZM124.127 149.533l2.95.013L62.308 22.593c-.933.103-1.876.205-2.787.308l64.606 126.631ZM106.529 149.472l2.938.008L45.753 24.597c-.919.124-1.862.247-2.744.371l63.52 124.503ZM88.95 149.449h2.935L29.5 27.172c-.92.178-1.828.356-2.662.534L88.95 149.449ZM71.396 149.486l2.934-.011L15.177 33.529c-.407.938-.83 2.004-1.277 3.261l57.496 112.696ZM53.887 149.62l2.929-.032L8.735 55.347c-.3 1.303-.593 2.67-.887 4.033l46.039 90.239ZM36.479 149.939c.938-.026 1.909-.05 2.906-.074L4.028 80.562c-.22 1.511-.426 3.028-.624 4.547l33.075 64.829ZM22.154 150.523 1.477 109.996c-.029 1.999-.015 3.949.038 5.856l16.014 31.389c1.834 1.967 3.453 3.192 4.624 3.282ZM393.778 6.676l30.089 58.975c-.123-2.232-.253-4.41-.393-6.523L396.77 6.787c-.939-.041-1.951-.077-2.992-.112ZM376.081 6.429l49.146 96.33c-.048-2.013-.099-4.035-.154-6.064L379.025 6.439c-.967-.004-1.938-.008-2.944-.009ZM358.564 6.539l66.932 131.189c.208-1.275.346-2.593.321-3.972l-.02-1.197L361.488 6.507c-.974.01-1.926.019-2.923.031ZM341.148 6.834l72.41 141.927c1.012-.084 1.946-.171 2.806-.262L344.057 6.775l-2.909.059ZM323.781 7.248l72.655 142.409c.985-.034 1.955-.068 2.893-.105L326.688 7.173c-.969.025-1.926.049-2.906.076ZM306.469 7.758l72.622 142.343c.995-.018 1.948-.039 2.916-.059L309.367 7.666l-2.898.092ZM289.201 8.343l72.448 142.004c.99-.01 1.953-.022 2.925-.033L292.088 8.239l-2.887.104ZM344.145 150.479l2.93-.017L274.842 8.881l-2.88.114 72.183 141.484ZM326.606 150.535l2.94-.004L257.635 9.583l-2.877.124 71.848 140.828ZM309.036 150.539l2.941.002L240.45 10.344l-2.872.133 71.458 140.062ZM291.446 150.504l2.943.008-71.094-139.351-2.867.143 71.018 139.2ZM273.835 150.439l2.953.013-70.62-138.417-2.867.154 70.533 138.251ZM256.23 150.352l2.947.016-70.101-137.402c-.954.053-1.903.109-2.855.163l70.01 137.224ZM238.6 150.25l2.954.018-69.544-136.31c-.956.057-1.902.116-2.855.174L238.6 150.25ZM220.975 150.137l2.943.019-68.946-135.139-2.839.185 68.842 134.935ZM203.342 150.018l2.944.02-68.308-133.89-2.833.199 68.197 133.671ZM185.708 149.897l2.949.02-67.626-132.553-2.83.214 67.507 132.319ZM168.076 149.78l2.954.019L104.136 18.68l-2.827.232 66.767 130.867ZM150.452 149.669l2.949.017L87.298 20.12c-.935.084-1.89.167-2.812.252l65.966 129.297ZM132.832 149.572l2.947.016L70.542 21.719c-.948.097-1.861.194-2.79.291l65.081 127.562ZM115.222 149.498l2.949.01L53.912 23.556c-.945.114-1.854.228-2.77.342l64.08 125.599ZM97.632 149.454c.967 0 1.957.003 2.936.005L37.475 25.792c-.927.145-1.838.29-2.711.436l62.869 123.226ZM80.067 149.459l2.932-.005L21.551 29.011c-.961.28-1.781.561-2.505.841l61.022 119.607ZM62.535 149.538l2.929-.021L11.636 44.009c-.339 1.192-.68 2.453-1.024 3.757l51.923 101.772ZM45.064 149.747c.951-.017 1.93-.033 2.921-.048L6.164 67.728a339.985 339.985 0 0 0-.767 4.27l39.667 77.75ZM27.752 150.255c.912-.044 1.866-.086 2.88-.126L2.34 94.675a226.34 226.34 0 0 0-.422 4.943l25.834 50.637Z" style="fill:#b15be1"/>
    <path d="M413.828 111.228c.137 7.615-3.518 14.074-8.317 14.624-45.329 5.392-349.081-1.451-395.067 2.199-5.112.401-9.005-6.104-9.373-14.143-1.36-30.595-2.319-94.85 2.934-104.67C12.254-6.283 398.917.94 407.646 7.898c7.684 6.126 5.631 69.472 6.182 103.33Z" style="fill:#b15be1"/>
</svg>
