<svg xmlns="http://www.w3.org/2000/svg" viewBox="0 0 289.21 22.44">
    <defs>
        <style>
            .cls-2{fill:#b15be1}
        </style>
    </defs>
    <g id="Layer_2" data-name="Layer 2">
        <g id="Layer_1-2" data-name="Layer 1">
            <rect width="288.4" height="22.44" rx="6" style="fill:#ededed"/>
            <path class="cls-2" d="M286.31 1.29a4 4 0 0 0-.46-.05l2.85 5.56c-.05-.42-.1-.8-.16-1.14ZM283.66 1.14h-.43l5.82 11.41v-.91ZM281.08 1.13h-.43l8.53 16.72v-.87ZM278.51 1.15h-.42l10.46 20.51a1.46 1.46 0 0 0 .26-.33ZM276 1.2h-.42l10.64 20.87h.42ZM273.42 1.27H273l10.66 20.89h.42ZM270.88 1.35h-.42l10.64 20.86h.43ZM278.53 22.24h.47l-10.65-20.8h-.42ZM276 22.25h.44L265.82 1.53h-.42ZM273.39 22.26h.43L263.3 1.64h-.42ZM270.81 22.26h.43l-10.46-20.5h-.42ZM268.23 22.25h.43L258.27 1.88h-.42ZM265.65 22.24h.43L255.76 2h-.42ZM263.06 22.22h.44L253.26 2.15h-.42ZM260.48 22.21h.43l-10.15-19.9h-.42ZM257.89 22.19h.44L248.26 2.47h-.41ZM255.31 22.17h.43l-10-19.54h-.41ZM252.72 22.16h.44l-9.87-19.34h-.41ZM250.14 22.14h.43L240.82 3h-.42ZM247.55 22.12h.45l-9.65-18.87h-.41ZM245 22.11h.43L235.91 3.5h-.41ZM242.39 22.1h.43l-9.34-18.31h-.4ZM239.81 22.1h.43l-9.15-17.93-.39.08ZM237.24 22.1h.43L229 5.1a5 5 0 0 0-.18.48ZM234.67 22.12h.43l-7-13.82c0 .19-.09.39-.13.59ZM232.12 22.17h.42L227.36 12l-.09.66ZM230 22.26l-3-6v.86l2.35 4.6a1.42 1.42 0 0 0 .65.54ZM284.51 1.16l4.42 8.65q0-.49-.06-1L285 1.18ZM281.92 1.13l7.2 14.12v-.89l-6.77-13.23ZM279.35 1.14l9.81 19.24a2.78 2.78 0 0 0 0-.58v-.18l-9.38-18.48ZM276.8 1.18 287.41 22h.42L277.22 1.18ZM274.25 1.25l10.65 20.88h.43l-10.66-20.9ZM271.71 1.32l10.65 20.87h.43L272.13 1.31ZM269.18 1.41l10.62 20.82h.43L269.6 1.39ZM277.23 22.25h.43L267.07 1.48h-.42ZM274.66 22.26h.43L264.55 1.59h-.42ZM272.09 22.26h.43L262 1.7h-.42ZM269.51 22.25h.43L259.51 1.82h-.42ZM266.92 22.24h.44L257 2h-.42ZM264.34 22.23h.43L254.5 2.08h-.42ZM261.76 22.22h.43L252 2.23h-.42ZM259.17 22.2h.43L249.49 2.38h-.41ZM256.59 22.18h.41L247 2.55h-.41ZM254 22.16h.43l-9.91-19.43h-.42ZM251.42 22.15h.43L242 2.92h-.42ZM248.83 22.13h.43l-9.69-19h-.41ZM246.25 22.12h.43l-9.57-18.75h-.41ZM243.66 22.11h.44l-9.43-18.47h-.4ZM241.09 22.1h.43L232.26 4l-.39.07ZM238.51 22.1h.43l-9-17.66-.37.12ZM235.94 22.11h.43l-7.9-15.47c-.05.17-.1.36-.15.55ZM233.38 22.14h.43l-6.14-12c0 .21-.07.42-.11.63ZM230.84 22.22h.42l-4.15-8.13-.06.72Z"/>
            <path class="cls-2" d="M287.45 16.49c0 1.12-.51 2.07-1.22 2.15-6.64.79-51.19-.21-57.93.32-.75.06-1.32-.89-1.37-2.07-.2-4.49-.34-13.91.43-15.35 1.21-2.28 57.91-1.22 59.19-.2 1.12.9.82 10.19.9 15.15Z"/>
        </g>
    </g>
</svg>
