<svg xmlns="http://www.w3.org/2000/svg" xmlns:xlink="http://www.w3.org/1999/xlink" viewBox="0 0 59.8 12.81">
    <defs>
        <linearGradient id="a" x1="-20.15" y1="17.09" x2="53.11" y2="-15.92" gradientUnits="userSpaceOnUse">
            <stop offset="0" stop-color="#58595b"/>
            <stop offset=".15" stop-color="#595760"/>
            <stop offset=".33" stop-color="#5d516f"/>
            <stop offset=".53" stop-color="#634888"/>
            <stop offset=".75" stop-color="#6c3aaa"/>
            <stop offset=".97" stop-color="#772ad6"/>
            <stop offset="1" stop-color="#7927dd"/>
        </linearGradient>
        <linearGradient id="b" x1="-18.42" y1="20.93" x2="54.84" y2="-12.08" xlink:href="#a"/>
        <linearGradient id="c" x1="-17.27" y1="23.49" x2="55.99" y2="-9.52" xlink:href="#a"/>
        <linearGradient id="d" x1="-15.6" y1="27.22" x2="57.67" y2="-5.8" xlink:href="#a"/>
        <linearGradient id="e" x1="-14.09" y1="30.54" x2="59.17" y2="-2.47" xlink:href="#a"/>
        <linearGradient id="f" x1="-12.72" y1="33.59" x2="60.54" y2=".58" xlink:href="#a"/>
        <linearGradient id="g" x1="-11.54" y1="36.21" x2="61.73" y2="3.2" xlink:href="#a"/>
    </defs>
    <g data-name="Layer 2">
        <g data-name="Layer 1">
            <path d="M3.18.36 3.3.3a.33.33 0 0 1 .24 0s0 0 0 .05h.06a4.8 4.8 0 0 0 .94.06 2.14 2.14 0 0 1 .83.09.94.94 0 0 1 .12.09.47.47 0 0 0 .14.08L6 .81a.92.92 0 0 1 .3.11l.06.08a.32.32 0 0 0 .09.08l.28.19a1.11 1.11 0 0 1 .27.28.67.67 0 0 1 .06.12.46.46 0 0 0 0 .14l.09.09a.17.17 0 0 1 .13.1 1.63 1.63 0 0 1 .1.29c0 .11 0 .22.07.33s0 .09 0 .15a.88.88 0 0 0 0 .17v.17a1 1 0 0 0 0 .15.15.15 0 0 1 0 .11.34.34 0 0 0-.06.15.31.31 0 0 0 0 .23.37.37 0 0 1 0 .23l.04.02a.24.24 0 0 0 0 .12.05.05 0 0 0 0 .05.09.09 0 0 1 0 .06 1.61 1.61 0 0 1-.09.26c0 .1-.06.19-.08.27s0 .21-.06.28a.74.74 0 0 1 0 .19l-.09.16-.16.2a1.47 1.47 0 0 0-.1.13 1.13 1.13 0 0 0-.1.13 1.32 1.32 0 0 1-.26.22.4.4 0 0 0-.16.29.86.86 0 0 0 0 .36 1.52 1.52 0 0 0 .12.32c.05.1.11.2.16.28a1.47 1.47 0 0 1 .13.24 2.29 2.29 0 0 1 .07.28 1.15 1.15 0 0 0 .08.29v.13l.11.15v.11a.93.93 0 0 0 0 .1 1.15 1.15 0 0 1 .07.28 1.32 1.32 0 0 0 .08.3h.06v.06a14.856 14.856 0 0 0 .47 1.39.9.9 0 0 0 .1.22.52.52 0 0 1 .1.25H8v.05a2 2 0 0 1 .08.21.42.42 0 0 1 0 .26.29.29 0 0 1-.15.14 1.27 1.27 0 0 1-.26.11l-.32.11-.27.08a.42.42 0 0 0-.14.09l-.13.06-.48.05h-.5s-.1-.09-.14-.22l-.12-.4a3.38 3.38 0 0 1-.08-.34c0-.11 0-.23-.07-.34a2.92 2.92 0 0 0-.14-.31 2.22 2.22 0 0 1-.13-.31 3.59 3.59 0 0 1-.08-.36A2 2 0 0 0 5 9.71a1.13 1.13 0 0 0-.13-.29.94.94 0 0 1-.12-.22 1.14 1.14 0 0 1-.06-.29 1.48 1.48 0 0 0 0-.35c0-.18-.1-.35-.16-.51s-.12-.33-.2-.52l-.12-.29q-.06-.17-.09-.18A.56.56 0 0 0 3.8 7h-.38l-.36.07a.41.41 0 0 0-.2.09.46.46 0 0 0 0 .38 4.71 4.71 0 0 1 .09.52H3s0 .17.06.23a1.8 1.8 0 0 1 0 .19 2.62 2.62 0 0 0 0 .27v.31c0 .13.05.26.07.38a1.3 1.3 0 0 1 0 .28 1.89 1.89 0 0 1 0 .31 1.49 1.49 0 0 0 0 .22c0 .14 0 .29.08.43a3.4 3.4 0 0 1 .08.56V12a1.27 1.27 0 0 1 0 .28.47.47 0 0 1-.07.19.52.52 0 0 1-.31.16 2.58 2.58 0 0 1-.53.08 4 4 0 0 1-.6 0H1.3a1.08 1.08 0 0 1-.47-.21.71.71 0 0 1-.19-.5.2.2 0 0 1 0-.13.28.28 0 0 0 0-.13v-.08a.32.32 0 0 1 0-.13L.58 11a5 5 0 0 1 0-.53c0-.19 0-.38-.05-.56l-.11-.56v-.17a1.55 1.55 0 0 0 0-.3c0-.09 0-.18-.06-.25a2.07 2.07 0 0 1 0-.22.43.43 0 0 1 0-.19.41.41 0 0 0 0-.22.61.61 0 0 0 0-.24.94.94 0 0 1-.06-.18 3.23 3.23 0 0 1 0-.44 3.23 3.23 0 0 0 0-.44 2.73 2.73 0 0 0-.05-.5 2.74 2.74 0 0 1 0-.5V4.78Q.14 4.36.11 4l-.06-.75V1C0 .77 0 .66.06.62S.2.52.36.49A4.18 4.18 0 0 1 .92.43h1.27a3.49 3.49 0 0 1 .51 0 1.09 1.09 0 0 0 .37 0h.06Zm-.58 2a.26.26 0 0 0-.09.18 2 2 0 0 0 0 .25v.24a.8.8 0 0 1 0 .16.93.93 0 0 1 0 .28 1.29 1.29 0 0 0 0 .23 1.29 1.29 0 0 0 0 .36c0 .08 0 .17.08.26a.29.29 0 0 0 .21.29 1.19 1.19 0 0 0 .44 0 3 3 0 0 0 .52-.08l.39-.1.21-.06a.43.43 0 0 0 .16 0 .07.07 0 0 1 0-.06.08.08 0 0 1 .07 0 .08.08 0 0 0 .08 0A4.7 4.7 0 0 0 5.09 4a.84.84 0 0 0 .22-.31.65.65 0 0 0 0-.25 1.33 1.33 0 0 0 0-.28 1.35 1.35 0 0 0-.08-.24 1.13 1.13 0 0 0-.07-.15.67.67 0 0 0-.36-.28 2.08 2.08 0 0 0-.52-.11H3.12L3 2.37a.23.23 0 0 0-.13 0 .36.36 0 0 1-.14 0 .12.12 0 0 0-.13.02Z" style="fill:url(#a)"/>
            <path d="M15.39.43h.76a.24.24 0 0 1 0 .23.42.42 0 0 0 0 .24h.11a.89.89 0 0 1 0 .11v.18a1.43 1.43 0 0 0 0 .22 1.49 1.49 0 0 0 0 .17 1.21 1.21 0 0 1 0 .23V2.39a.27.27 0 0 1 0 .13.56.56 0 0 1-.26.13l-.36.08a4.72 4.72 0 0 1-1 0 6.37 6.37 0 0 0-1.08 0h-.15a.08.08 0 0 0 0 .07h-.68a.33.33 0 0 0-.06.12v.22a2.4 2.4 0 0 0 0 .24v.16a2.76 2.76 0 0 0 0 .41.56.56 0 0 0 .11.36.39.39 0 0 0 .24.08 2.13 2.13 0 0 0 .37 0h.43a2.16 2.16 0 0 1 .37 0 3.33 3.33 0 0 0 .41 0 .76.76 0 0 0 .21 0 .76.76 0 0 1 .21 0h.27a1.11 1.11 0 0 1 .26.07.46.46 0 0 1 .2.13.37.37 0 0 1 .09.23.19.19 0 0 1 0 .13.14.14 0 0 0 0 .13v.16a.88.88 0 0 1 0 .16 2.38 2.38 0 0 1 0 .33 2.13 2.13 0 0 1 0 .44v.11a1 1 0 0 1 0 .17V6.68h-2.62a.66.66 0 0 0-.28.08.45.45 0 0 0-.22.23 2 2 0 0 0-.08.35 2.74 2.74 0 0 0 0 .41v.42a.5.5 0 0 1 0 .16.26.26 0 0 0 0 .14q0 .4.15.51a1 1 0 0 0 .58.06h.21a.7.7 0 0 1 .26 0 1 1 0 0 1 .29 0h.38a2 2 0 0 0 .55 0 4.91 4.91 0 0 1 .53 0 5 5 0 0 1 .56 0 .52.52 0 0 1 .38.13.13.13 0 0 1 0 .1.4.4 0 0 0 0 .15 1 1 0 0 1 0 .45 2.54 2.54 0 0 0-.09.49 3.59 3.59 0 0 0 0 .43 2 2 0 0 1 0 .36 1.71 1.71 0 0 0 0 .32 1 1 0 0 1 0 .3s0 0-.05 0-.05 0-.05.05a.24.24 0 0 0 0 .15.14.14 0 0 1-.08.15H15.79v-.05a1.15 1.15 0 0 0-.34 0h-.43a7.5 7.5 0 0 0-1.27 0 9.9 9.9 0 0 1-1.44 0h-.11a.11.11 0 0 1-.1 0s0 0 0-.05h-.88a3.81 3.81 0 0 0-.59 0 .61.61 0 0 1-.39 0A2.45 2.45 0 0 0 9.7 12l-.06-.24a.88.88 0 0 1 0-.2.87.87 0 0 1 .05-.28.65.65 0 0 0 .06-.29.72.72 0 0 0 0-.2v-.21A13.88 13.88 0 0 1 9.63 9V5.07a9.7 9.7 0 0 0 0-1.21 6.66 6.66 0 0 1 0-1 1.54 1.54 0 0 1 .07-.29 1 1 0 0 0 0-.24 2.5 2.5 0 0 0 0-.49 1.7 1.7 0 0 1 0-.38.45.45 0 0 1 .09-.28.53.53 0 0 1 .31-.2.22.22 0 0 1 .16 0 .22.22 0 0 0 .16 0 .07.07 0 0 0 0-.05.06.06 0 0 1 0-.06 1.12 1.12 0 0 1 .29 0h.36a2 2 0 0 0 .35 0 .57.57 0 0 0 .28-.12.57.57 0 0 1 .3-.08 2.34 2.34 0 0 1 .38 0h.41a1.32 1.32 0 0 0 .36 0 .42.42 0 0 0 .15 0l.15-.05a4.6 4.6 0 0 1 .95-.06c.33-.12.67-.12.99-.13Z" style="fill:url(#b)"/>
            <path d="M19.39.07h.55a.22.22 0 0 1 .12 0 .37.37 0 0 1 .06.15c0 .08 0 .18.06.28s0 .22.07.34a2.21 2.21 0 0 0 .07.32c.17.75.34 1.46.52 2.13s.37 1.38.56 2.14a1.86 1.86 0 0 1 .1.39c0 .13.07.28.12.44a4.15 4.15 0 0 1 .12.48c0 .21.08.41.13.61a.41.41 0 0 0 .06.11.93.93 0 0 1 0 .1.17.17 0 0 1 0 .12.23.23 0 0 0 0 .14A.81.81 0 0 0 22 8l.09.22.12.32.1-.19a.89.89 0 0 0 .08-.17.55.55 0 0 0 0-.17.09.09 0 0 0 0-.06.09.09 0 0 1 0-.09s0-.07.07-.13a.53.53 0 0 0 .08-.17.57.57 0 0 0 0-.26.8.8 0 0 1 0-.21 2.4 2.4 0 0 1 .11-.31l.11-.27a1.88 1.88 0 0 0 0-.34 1.3 1.3 0 0 1 0-.34l.06-.32c0-.1 0-.2.05-.3A.58.58 0 0 1 23 5a.41.41 0 0 0 0-.28.25.25 0 0 1 0-.17 1.67 1.67 0 0 1 .06-.2 1.42 1.42 0 0 0 .05-.16 3.69 3.69 0 0 0 .05-.37 3 3 0 0 1 .06-.42.5.5 0 0 1 0-.13.81.81 0 0 0 .06-.13.38.38 0 0 0 0-.18.35.35 0 0 1 0-.18.58.58 0 0 1 0-.14.56.56 0 0 0 0-.12 1.51 1.51 0 0 0 .06-.44 3 3 0 0 1 .05-.5 1.24 1.24 0 0 1 0-.16l.06-.2c0-.06 0-.15.05-.27l.06-.37a2.72 2.72 0 0 1 .07-.33.3.3 0 0 1 .08-.18.57.57 0 0 1 .46-.07h1.35l.16.06a4 4 0 0 0 .52.24.51.51 0 0 1 .38.24.32.32 0 0 1 0 .14v.37a.11.11 0 0 0 0 .07.1.1 0 0 1 0 .1.47.47 0 0 1-.09.12.64.64 0 0 0-.08.14.48.48 0 0 0 0 .18.9.9 0 0 1 0 .18c-.07.3-.13.59-.19.86s-.12.55-.18.81-.13.54-.19.82l-.22.89a.9.9 0 0 0 0 .18.48.48 0 0 1 0 .18.64.64 0 0 1-.08.14.24.24 0 0 0-.07.13 1.09 1.09 0 0 0 0 .26 1.09 1.09 0 0 1 0 .26 3.26 3.26 0 0 1-.11.4.11.11 0 0 1-.05.08.13.13 0 0 0-.05.09c0 .11 0 .22-.05.33a1.86 1.86 0 0 1-.06.34.08.08 0 0 1 0 .07.11.11 0 0 0-.05.09c0 .11 0 .23-.05.34l-.06.33-.35.56a4.24 4.24 0 0 0-.16.53l-.18.69c0 .25-.12.5-.19.77a1.67 1.67 0 0 0-.05.19c0 .07 0 .15-.05.23l-.06.2a1.6 1.6 0 0 1-.05.21 1.18 1.18 0 0 0 0 .2.79.79 0 0 1-.06.22.38.38 0 0 1-.06.13s-.05.09-.07.13a.44.44 0 0 0-.05.09.47.47 0 0 1-.25 0 1.15 1.15 0 0 0-.37 0 .59.59 0 0 0-.19 0l-.17.05H22.02l-.24-.06h-.27a.3.3 0 0 1-.19 0c-.05 0-.09-.08-.14-.16a2.43 2.43 0 0 1-.14-.28l-.13-.31-.12-.28a.9.9 0 0 0-.08-.19s-.05-.09-.07-.13a.65.65 0 0 1-.06-.21 1.18 1.18 0 0 0 0-.2 1.29 1.29 0 0 0-.09-.2l-.06-.18c-.12-.28-.21-.52-.28-.72s-.18-.51-.26-.75l-.26-.69c-.08-.23-.17-.47-.25-.71s-.17-.51-.26-.81L19 6.3c-.05-.13-.09-.26-.13-.4a2.22 2.22 0 0 1-.12-.39 2.6 2.6 0 0 0-.1-.4c-.08-.25-.16-.5-.26-.74s-.18-.48-.26-.71a2.43 2.43 0 0 1-.13-.45 3.1 3.1 0 0 0-.09-.39l-.23-.69c-.08-.24-.16-.51-.24-.8S17.33 1 17.3.88a.56.56 0 0 1 0-.34.74.74 0 0 1 .1-.16l.13-.08h.17l.23-.05h.08a.08.08 0 0 0 .08 0 3.39 3.39 0 0 1 .64-.06Z" style="fill:url(#c)"/>
            <path d="M28 .72a1.4 1.4 0 0 1 .45-.07h3.18a.81.81 0 0 1 .22.07.71.71 0 0 0 .37 0 2.13 2.13 0 0 1 .46 0A1.26 1.26 0 0 1 33 1l.19.09a.76.76 0 0 1 .09.47c0 .23 0 .43-.05.62s0 .18 0 .33a.63.63 0 0 1-.06.25h-.56a.76.76 0 0 1-.3-.06s-.1 0-.17.06a.22.22 0 0 0-.08.14v.48a.7.7 0 0 1 0 .21 3.67 3.67 0 0 0 0 .61v2.19a.24.24 0 0 1 0 .14.34.34 0 0 0-.06.17.32.32 0 0 0 0 .14.27.27 0 0 1 0 .16v2a1.15 1.15 0 0 1 0 .24v.61a.38.38 0 0 0 0 .19.21.21 0 0 0 .11.08h1.04v.14a1.55 1.55 0 0 1 0 .22 2.09 2.09 0 0 1 0 .25v.22a.4.4 0 0 0 0 .15.89.89 0 0 1 0 .11 2.62 2.62 0 0 0 0 .27 1 1 0 0 1 0 .3v.21l-.06.16a.41.41 0 0 1 0 .09h-1.56a5.57 5.57 0 0 1-1 0c-.33 0-.61-.06-.82-.07a7.5 7.5 0 0 0-.82 0 1 1 0 0 1-.63-.09A.35.35 0 0 1 28 12a1.15 1.15 0 0 1-.09-.28v-.88a.66.66 0 0 1 0-.21v-.06l.05-.17a1.71 1.71 0 0 1 .07-.18c0-.06.05-.09.07-.1h.68v.09a.3.3 0 0 0 .17 0c.07 0 .11 0 .13-.07s0 0 .09 0a.08.08 0 0 0 .08 0 .51.51 0 0 0 .1-.33v-.53c0-.2 0-.39-.05-.6a3.66 3.66 0 0 1 0-.52v-2.1a1.65 1.65 0 0 0-.05-.23 1 1 0 0 1-.06-.3.57.57 0 0 1 0-.18 1.11 1.11 0 0 0 0-.19V2.94a.36.36 0 0 0-.19-.07h-.73a.35.35 0 0 1-.36-.3c0-.17 0-.37-.06-.59v-.26a2.11 2.11 0 0 1 0-.26V1.2a.53.53 0 0 1 0-.27l.07-.06.12-.11h.05L28 .72Z" style="fill:url(#d)"/>
            <path d="M38.08.46h.22a2.94 2.94 0 0 1 .44 0 3.53 3.53 0 0 1 .46 0 .39.39 0 0 1 .28.11s.08.05.19.06L40 .62l.52.15a4 4 0 0 1 .47.21l.18.09a.57.57 0 0 1 .18.12.08.08 0 0 1 0 .05.09.09 0 0 0 0 .06.35.35 0 0 0 .14.06.34.34 0 0 1 .12 0l.15.14.22.23c.07.08.14.15.2.23a.34.34 0 0 1 .09.17.69.69 0 0 1 0 .16 2 2 0 0 1-.1.21c0 .08-.09.15-.13.22a1.37 1.37 0 0 0-.1.14l-.1.1a.29.29 0 0 0-.1.07l-.39.38a.72.72 0 0 1-.44.24.59.59 0 0 1-.29-.1 2.29 2.29 0 0 1-.33-.24L40 3.09a1.5 1.5 0 0 0-.25-.19l-.28-.11-.3-.09-.28-.09a1 1 0 0 0-.4 0 1.26 1.26 0 0 0-.56.24.9.9 0 0 0-.38.48 1 1 0 0 0 0 .69 1.36 1.36 0 0 0 .41.45 2.72 2.72 0 0 0 .59.3l.57.23.18.07a.71.71 0 0 0 .18.08l.53.21.52.26.47.25a3.47 3.47 0 0 1 .45.26l.27.17a2.29 2.29 0 0 1 .31.2.56.56 0 0 1 0 .08.28.28 0 0 0 .05.08.11.11 0 0 0 .08 0 .06.06 0 0 1 .07 0 .24.24 0 0 1 .06.09v.12a.3.3 0 0 0 .08.08.22.22 0 0 1 .09.07l.19.26a.64.64 0 0 1 .06.14.9.9 0 0 0 .11.22.36.36 0 0 0 .07.09.36.36 0 0 1 .08.12.54.54 0 0 1 0 .15v.17c0 .11 0 .25.05.42a4.47 4.47 0 0 1 0 .52 4.28 4.28 0 0 1 0 .52 1.49 1.49 0 0 1-.08.42 1.21 1.21 0 0 0 0 .18c0 .06 0 .12-.05.18l-.08.15a.8.8 0 0 0-.08.16 2.39 2.39 0 0 0-.13.28 1.35 1.35 0 0 1-.18.29.28.28 0 0 1-.09.1.33.33 0 0 0-.13.11 3.47 3.47 0 0 0-.25.36.7.7 0 0 1-.31.26l-.11.06h-.1l-.35.19-.44.17-.21.08a.76.76 0 0 1-.19.07 2.89 2.89 0 0 1-.53 0h-1.35a3.18 3.18 0 0 1-.62 0 2.25 2.25 0 0 1-.44-.12l-.5-.18-.49-.18a2.43 2.43 0 0 1-.39-.18.06.06 0 0 1 0-.06v-.05h-.1a1.5 1.5 0 0 1-.22-.22c-.09-.09-.17-.18-.25-.25a.17.17 0 0 0-.1-.06.19.19 0 0 1-.1 0 .23.23 0 0 1-.05-.11.36.36 0 0 0-.06-.11 2.19 2.19 0 0 1-.21-.23.62.62 0 0 1-.1-.34v-.14a.31.31 0 0 1 .06-.12 1.7 1.7 0 0 1 .21-.31c.09-.1.19-.21.3-.31a.11.11 0 0 1 .08 0 .09.09 0 0 0 .07 0 .61.61 0 0 0 .14-.14l.17-.18a.75.75 0 0 1 .24-.18.39.39 0 0 1 .23-.07.37.37 0 0 1 .25.08l.17.18.16.18a1.43 1.43 0 0 0 .15.18 1.37 1.37 0 0 0 .2.13l.22.13.17.14a.76.76 0 0 0 .19.12l.23.08.29.08a.3.3 0 0 0 .16 0 .29.29 0 0 1 .16 0l.06.05a.3.3 0 0 0 .15 0l.46.05a1.48 1.48 0 0 0 .48-.05.93.93 0 0 0 .36-.16 1.45 1.45 0 0 0 .35-.35 1.58 1.58 0 0 0 .23-.49 1.34 1.34 0 0 0 0-.6.92.92 0 0 0-.3-.53 6.64 6.64 0 0 0-.49-.41 2.92 2.92 0 0 0-.64-.36l-.75-.32-.8-.28a7.68 7.68 0 0 1-.81-.42l-.27-.16a1.82 1.82 0 0 1-.3-.21l-.06-.07a.22.22 0 0 0 0-.08.11.11 0 0 0-.08 0 .09.09 0 0 1-.07 0 .56.56 0 0 1-.1-.15.55.55 0 0 0-.11-.17l-.15-.14a1.21 1.21 0 0 1-.16-.16l-.06-.07-.09-.14-.15-.23-.06-.11a.91.91 0 0 1-.06-.16 1.17 1.17 0 0 0 0-.2 4 4 0 0 1-.16-.74A3.83 3.83 0 0 1 35 3a1.49 1.49 0 0 1 .13-.47l.19-.42c.09-.17.17-.3.22-.38a1.68 1.68 0 0 1 .3-.29l.35-.27a2.73 2.73 0 0 1 .43-.26 4.51 4.51 0 0 1 .65-.22c.24-.05.47-.12.7-.19h.05Z" style="fill:url(#e)"/>
            <path d="M45 .72a1.38 1.38 0 0 1 .44-.07h3.18a.71.71 0 0 1 .22.07.73.73 0 0 0 .37 0 2.07 2.07 0 0 1 .46 0 1.21 1.21 0 0 1 .35.12l.18.09a.82.82 0 0 1 .1.47c0 .23 0 .43-.05.62s0 .18 0 .33a.63.63 0 0 1-.06.25h-.56a.66.66 0 0 1-.29-.06s-.1 0-.18.06a.21.21 0 0 0-.07.14 1.52 1.52 0 0 0 0 .23 1 1 0 0 0 0 .25 1.34 1.34 0 0 1 0 .21 3.58 3.58 0 0 0 0 .61v2.19a.23.23 0 0 1 0 .14.34.34 0 0 0-.09.33.32.32 0 0 0 0 .14.27.27 0 0 1 0 .12v2.85a.38.38 0 0 0 0 .19.2.2 0 0 0 .12.08h1.03s0 .06.06.14v.47a1.86 1.86 0 0 0 0 .22.77.77 0 0 0 0 .15.28.28 0 0 1 0 .11v.27a1 1 0 0 1 0 .3v.21a1 1 0 0 1-.05.16.31.31 0 0 1 0 .09H48.6a5.46 5.46 0 0 1-1 0c-.34 0-.61-.06-.82-.07a7.69 7.69 0 0 0-.83 0 1 1 0 0 1-.63-.09.41.41 0 0 1-.14-.19 2 2 0 0 1-.12-.6v-.3a2.17 2.17 0 0 0 0-.26 1.22 1.22 0 0 1 0-.21v-.06l.06-.17a.75.75 0 0 1 .07-.18c0-.06 0-.09.06-.1h.54a.33.33 0 0 1 .14 0v.09a.31.31 0 0 0 .17 0c.07 0 .12 0 .14-.07a.11.11 0 0 1 .08 0 .07.07 0 0 0 .08 0 .46.46 0 0 0 .1-.33 3.21 3.21 0 0 0 0-.53c0-.19 0-.39-.05-.6s0-.38 0-.52v-2.1a.84.84 0 0 0 0-.23 1.33 1.33 0 0 1-.05-.3 1.1 1.1 0 0 1 0-.18.58.58 0 0 0 0-.19V2.81a.4.4 0 0 0-.19-.07H45.2c-.21 0-.33-.12-.35-.3s-.05-.37-.07-.59v-.26a2.17 2.17 0 0 1 0-.26v-.26a.53.53 0 0 1 0-.27l.07-.06.12-.11a.06.06 0 0 1 .06 0L45 .72Z" style="fill:url(#f)"/>
            <path d="M55.92.22h.73a.9.9 0 0 1 .25 0 2.13 2.13 0 0 0 .49.07h1.26a3.64 3.64 0 0 1 .6 0 1.4 1.4 0 0 1 .29.09.34.34 0 0 1 .18.12.58.58 0 0 1 .07.26 2 2 0 0 1 0 .35v.52a1.08 1.08 0 0 1-.06.2l-.09.27a2.34 2.34 0 0 0-.09.28c0 .12-.06.18-.08.19a.78.78 0 0 1-.32.05h-.53L58 2.59H57.07a.32.32 0 0 0-.1.18 1.2 1.2 0 0 0 0 .27 1.43 1.43 0 0 0 0 .29v.26a1.09 1.09 0 0 1 0 .18A1 1 0 0 0 57 4V7.61c0 .23 0 .47.07.71v1.69c0 .55 0 1.17.05 1.83a2.81 2.81 0 0 0 0 .46v.23h-.09a.68.68 0 0 1-.17.07h-2.19a.46.46 0 0 1-.16-.06h-.1a.38.38 0 0 1 0-.16 2.81 2.81 0 0 1 0-.3V7.97a1 1 0 0 0 0-.16v-.52a.9.9 0 0 1 0-.22V4.23a2.36 2.36 0 0 1 0-.24 2.94 2.94 0 0 0 0-.44 3.38 3.38 0 0 0 0-.45.46.46 0 0 0-.06-.28.29.29 0 0 0-.21-.06H52a.38.38 0 0 1-.3 0 .74.74 0 0 1-.06-.14c0-.08-.06-.17-.09-.28s-.06-.2-.08-.3a1.06 1.06 0 0 1 0-.2v-.28a2.53 2.53 0 0 0 0-.46V.74a.59.59 0 0 1 0-.27.37.37 0 0 1 .3-.18 2.83 2.83 0 0 1 .54-.07h2.59c.38.05.73.03 1.02 0Z" style="fill:url(#g)"/>
        </g>
    </g>
</svg>
