<?xml version="1.0" encoding="UTF-8" standalone="no"?>
<svg
   xmlns:dc="http://purl.org/dc/elements/1.1/"
   xmlns:cc="http://creativecommons.org/ns#"
   xmlns:rdf="http://www.w3.org/1999/02/22-rdf-syntax-ns#"
   xmlns:svg="http://www.w3.org/2000/svg"
   xmlns="http://www.w3.org/2000/svg"
   viewBox="0 0 771.02399 771.02399"
   height="771.02399"
   width="771.02399"
   xml:space="preserve"
   id="svg2"
   version="1.1"><metadata
     id="metadata8"><rdf:RDF><cc:Work
         rdf:about=""><dc:format>image/svg+xml</dc:format><dc:type
           rdf:resource="http://purl.org/dc/dcmitype/StillImage" /></cc:Work></rdf:RDF></metadata><defs
     id="defs6"><clipPath
       id="clipPath18"
       clipPathUnits="userSpaceOnUse"><path
         id="path16"
         d="M 0,578.268 H 578.268 V 0 H 0 Z" /></clipPath><clipPath
       id="clipPath62"
       clipPathUnits="userSpaceOnUse"><path
         id="path60"
         d="M 31.4724,361.363 H 130.086 V 262.75 H 31.4724 Z" /></clipPath></defs><g
     transform="matrix(1.3333333,0,0,-1.3333333,0,771.024)"
     id="g10"><g
       id="g12"><g
         clip-path="url(#clipPath18)"
         id="g14"><g
           transform="translate(171.4799,336.2672)"
           id="g20"><path
             id="path22"
             style="fill:#0e3f6b;fill-opacity:1;fill-rule:nonzero;stroke:none"
             d="m 0,0 c 2.174,-0.251 4.348,-1.255 6.605,-2.258 1.923,-0.836 4.682,-2.09 4.933,-3.762 0.083,-0.502 -0.502,-1.923 -0.836,-2.842 -0.251,-0.502 -0.753,-1.589 -1.171,-2.342 -0.585,-0.92 -1.756,-3.427 -3.177,-3.678 -1.839,-0.335 -3.26,1.589 -4.849,2.257 -0.334,0.168 -0.836,0.084 -1.171,0.335 -0.668,0.25 -1.253,1.003 -1.755,1.086 -1.17,0.251 -3.428,0.335 -4.598,0 -0.251,0 -1.839,-0.92 -2.258,-1.421 -1.087,-1.17 -1.421,-2.759 -0.585,-4.264 0.084,-0.167 0.167,-0.752 0.251,-0.919 0.251,-0.167 0.669,-0.084 0.92,-0.251 1.003,-0.92 2.09,-1.253 2.842,-1.755 0.502,-0.251 0.752,-0.837 1.17,-1.088 0.251,-0.25 0.586,-0.167 0.837,-0.334 0.167,-0.083 0.418,-0.501 0.585,-0.585 1.003,-0.586 2.007,-0.92 2.842,-1.421 2.341,-1.423 4.515,-3.261 6.605,-4.85 1.923,-1.505 3.595,-2.675 4.933,-4.932 0.585,-1.087 0.669,-1.756 1.086,-3.177 0.251,-0.67 1.004,-2.007 1.171,-3.093 0.335,-2.007 0.251,-4.767 0,-6.606 -0.083,-0.501 -0.334,-1.003 -0.585,-1.756 -0.586,-2.173 -1.505,-4.179 -2.842,-6.019 -0.168,-0.251 -0.419,-0.334 -0.586,-0.585 -0.251,-0.419 -1.087,-1.254 -1.755,-1.756 -1.255,-0.92 -3.261,-1.755 -5.435,-2.591 -0.502,-0.167 -1.338,-0.753 -1.672,-0.836 -1.254,-0.251 -3.093,-0.084 -4.347,-0.251 -0.669,-0.168 -1.171,-0.502 -1.756,-0.586 -0.92,-0.166 -2.508,-0.333 -3.679,0 -0.167,0 -0.167,0.502 -0.334,0.586 -0.753,0.334 -2.843,0 -3.679,0.251 -0.251,0.083 -0.668,0.418 -1.17,0.585 -1.84,0.585 -4.264,1.839 -6.02,2.842 -0.334,0.251 -0.334,0.083 -0.585,0.334 -0.502,0.419 -2.257,1.254 -3.177,2.007 -0.084,0.084 -0.167,0.501 -0.251,0.585 -0.418,0.167 -1.505,0.502 -1.756,1.087 -0.668,1.505 -1.588,2.258 -0.585,4.097 0.167,0.167 0.418,0.334 0.585,0.501 0.084,0.168 -0.083,0.502 0,0.586 0.084,0.084 0.502,-0.084 0.585,0 0.168,0.335 0.084,0.669 0.251,0.919 0.335,0.335 1.004,1.087 1.422,1.672 1.17,1.506 2.926,3.93 4.598,4.013 1.672,0.084 1.923,-0.751 3.512,-2.006 0.668,-0.585 2.173,-1.756 3.093,-2.257 1.003,-0.585 2.508,-1.338 3.762,-1.755 2.843,-0.921 5.518,-0.837 7.441,0.835 0.836,0.753 1.672,1.421 1.756,2.592 0.334,3.428 -4.181,6.856 -6.605,8.36 -0.836,0.502 -1.756,0.92 -2.592,1.422 -0.334,0.251 -0.669,0.585 -1.17,0.836 -0.335,0.251 -1.004,0.334 -1.422,0.584 -0.251,0.251 -0.585,0.586 -1.17,0.921 -0.669,0.334 -1.337,0.501 -2.007,1.086 -0.083,0.167 -0.083,0.502 -0.25,0.586 -0.251,0.251 -0.669,0.083 -0.836,0.334 -0.168,0.084 -0.168,0.501 -0.335,0.585 -0.251,0.167 -1.087,0.251 -1.421,0.502 -0.167,0.167 -0.335,0.418 -0.586,0.586 -2.508,1.671 -4.681,4.597 -5.434,8.359 -0.167,0.67 -0.167,1.505 -0.334,2.258 -0.335,2.007 -0.084,4.097 0.585,6.103 0.836,2.425 3.344,5.434 5.518,6.856 0.92,0.668 2.425,1.17 3.679,1.756 1.421,0.585 2.842,1.505 3.762,1.672 1.003,0.251 2.257,0 3.177,0 1.588,0.083 3.846,0.417 6.27,0" /></g><g
           transform="translate(210.6113,344.2926)"
           id="g24"><path
             id="path26"
             style="fill:#0e3f6b;fill-opacity:1;fill-rule:nonzero;stroke:none"
             d="m 0,0 c 0.334,-0.502 0,-4.681 0,-7.19 0,-8.527 -0.501,-17.39 -0.585,-24.412 0,-1.088 -0.083,-2.592 0.251,-2.843 0.585,-0.418 -0.251,-0.585 1.755,1.087 2.091,1.756 5.017,4.598 7.19,6.354 0.753,0.585 1.422,1.004 2.258,1.755 1.588,1.255 4.18,3.428 6.605,5.1 0.92,0.669 2.173,1.338 3.511,2.007 0.418,0.251 0.836,1.087 1.421,1.171 0.669,0.167 2.007,0.251 2.592,0 0.585,-0.168 0.418,-0.168 0.836,-0.837 0.334,-0.668 0.669,-1.17 1.17,-2.006 0.669,-1.17 1.589,-4.347 2.007,-6.354 0.167,-0.753 0.418,-1.254 0.251,-2.006 -0.167,-0.753 -0.502,-1.087 -1.087,-1.673 -0.167,-0.167 -0.418,-0.167 -0.585,-0.334 -0.502,-0.419 -1.171,-1.254 -1.756,-1.672 -0.251,-0.251 -0.585,-0.084 -0.836,-0.335 -0.501,-0.418 -1.588,-1.337 -2.341,-2.006 -1.17,-1.087 -3.511,-2.424 -5.183,-3.763 -2.09,-1.755 -4.348,-3.009 -2.509,-4.849 0.084,-0.167 0.419,-0.502 0.502,-0.585 0.585,-0.418 1.338,-0.836 2.007,-1.422 0.501,-0.334 1.17,-0.584 1.505,-0.835 0.334,-0.334 0.501,-1.087 0.835,-1.504 0.586,-0.67 1.255,-1.255 2.007,-2.007 0.334,-0.335 0.92,-0.502 1.17,-0.837 0.168,-0.251 0.084,-0.584 0.251,-0.835 0.084,-0.168 0.502,-0.168 0.586,-0.335 0.251,-0.334 0.334,-1.004 0.585,-1.421 0.502,-0.753 1.421,-1.255 2.006,-2.007 0.585,-0.753 1.171,-1.504 1.756,-2.258 0.084,-0.251 0.084,-0.669 0.251,-0.919 0.083,-0.083 0.501,-0.167 0.585,-0.25 0.251,-0.334 0.251,-1.004 0.586,-1.421 0.083,-0.251 0.418,-0.335 0.585,-0.586 0.501,-0.836 2.508,-3.177 2.257,-4.599 -0.251,-2.173 -0.836,-1.17 -2.006,-2.006 -0.669,-0.502 -1.338,-1.087 -2.258,-1.756 -0.418,-0.25 -1.087,-0.25 -1.505,-0.585 -0.334,-0.251 -0.418,-0.837 -0.836,-1.088 -0.334,-0.25 -1.003,-0.417 -1.421,-0.584 -0.752,-0.418 -0.836,-0.669 -1.422,-0.585 -1.17,0.167 -2.926,3.427 -4.597,5.434 -1.338,1.505 -2.342,2.509 -3.429,4.014 -1.003,1.337 -2.173,2.675 -3.511,4.012 -0.334,0.417 -1.087,0.752 -1.421,1.17 -0.167,0.251 -0.084,0.67 -0.251,0.836 -0.334,0.335 -0.753,0.418 -1.171,0.92 -0.501,0.502 -1.421,1.003 -2.34,1.673 -0.92,0.753 -1.923,2.09 -2.843,2.006 -1.254,0 -4.18,-3.177 -4.598,-4.849 -0.251,-1.171 -0.251,-4.096 -0.251,-5.434 -0.084,-0.836 -0.084,-1.506 0,-2.592 v -1.756 c -0.167,-0.919 -0.669,-2.675 -0.92,-2.842 -0.167,-0.168 -2.842,-0.586 -3.428,-0.586 -1.17,-0.084 -3.093,0.084 -5.183,0.251 -2.006,0.167 -4.515,0 -4.849,0.335 -0.92,0.835 -0.084,7.942 0,10.033 0.083,2.508 -0.167,5.099 0,6.855 0.083,0.752 0.418,1.504 0.585,2.926 0.418,4.096 -0.084,8.863 0.251,13.46 0.083,1.087 0.585,2.425 0.585,3.512 0.084,1.588 -0.334,3.009 -0.251,4.013 0,0.836 0.418,1.672 0.502,2.842 0.251,2.007 0.251,4.348 0.334,6.856 0.168,4.264 0.168,9.113 0.586,13.795 0,0.668 0.083,1.84 0.251,2.592 0.166,0.836 0.835,2.592 0.919,2.592 0.669,0.417 3.595,0.083 3.093,0 C -7.524,1.004 -0.919,1.254 0,0" /></g><g
           transform="translate(268.3032,321.4689)"
           id="g28"><path
             id="path30"
             style="fill:#0e3f6b;fill-opacity:1;fill-rule:nonzero;stroke:none"
             d="m 0,0 c 0.251,-0.251 0.752,-2.174 0.92,-3.177 0.083,-1.255 -0.084,-2.927 0,-4.599 0.083,-2.006 0.501,-4.096 0.501,-5.434 0.084,-2.591 -0.418,-5.601 -0.501,-8.862 -0.168,-2.926 0.083,-6.103 0,-9.197 C 0.836,-33.025 0.418,-35.783 0.334,-38.208 0.251,-38.709 0,-39.21 0,-39.88 c 0,-0.668 0.334,-1.086 0.334,-1.756 -0.083,-0.417 -0.501,-0.919 -0.584,-1.421 -0.418,-2.425 0.333,-1.672 -2.007,-2.007 -0.753,-0.167 -1.338,-0.334 -2.007,-0.334 -1.254,0.083 -2.424,0.585 -3.762,0.585 -0.752,0 -2.006,-0.334 -3.177,-0.251 -0.669,0 -3.01,0.084 -3.177,0.251 -1.254,1.254 0.502,9.866 0.585,11.788 0.168,1.673 -0.083,2.927 0,4.348 0.084,0.753 0.502,1.421 0.586,2.258 0.501,3.511 0.083,8.276 0.334,12.374 0.083,1.839 0.418,4.346 0.501,6.855 0.168,2.758 0,5.936 0.586,6.939 0.418,0.585 1.672,0.92 2.341,1.086 C -8.444,1.17 -1.338,1.588 0,0" /></g><g
           transform="translate(266.0459,344.7111)"
           id="g32"><path
             id="path34"
             style="fill:#add600;fill-opacity:1;fill-rule:nonzero;stroke:none"
             d="M 0,0 C 1.087,-0.669 1.003,-0.251 1.672,-1.672 1.923,-2.09 1.756,-2.007 2.007,-2.258 2.926,-3.26 3.428,-6.187 3.177,-8.027 3.093,-8.444 2.759,-8.778 2.592,-9.448 2.425,-9.866 2.425,-10.534 2.257,-10.869 2.174,-11.12 1.672,-11.371 1.421,-11.705 c -0.334,-0.501 -0.334,-1.003 -0.585,-1.17 -0.418,-0.335 -1.254,-0.586 -2.006,-0.836 -1.087,-0.502 -1.756,-1.255 -3.177,-0.92 -0.251,0.084 -0.419,0.586 -0.586,0.586 -1.087,0.251 -1.672,-0.084 -2.591,0.334 -0.669,0.334 -3.261,2.34 -3.679,3.093 -0.669,1.17 -1.254,3.093 -1.171,4.347 0,1.004 0.586,1.673 1.171,2.843 0.836,1.84 0.752,2.258 2.592,3.428 1.087,0.835 1.338,0.669 3.427,0.919 C -2.842,1.17 -1.756,1.086 0,0" /></g><g
           transform="translate(319.5556,346.3829)"
           id="g36"><path
             id="path38"
             style="fill:#0e3f6b;fill-opacity:1;fill-rule:nonzero;stroke:none"
             d="M 0,0 C 0.752,-0.585 1.003,-4.849 1.087,-8.611 1.421,-17.222 2.341,-29.346 2.592,-37.622 2.759,-42.889 4.431,-67.051 0,-70.229 c -0.251,-0.167 -2.091,0.168 -3.177,0 0.083,0 -0.251,-0.5 -0.335,-0.584 -0.836,-0.335 -4.012,-0.084 -5.434,0 -0.92,0.167 -2.675,0.752 -2.592,0.584 -0.418,0.502 0,3.095 0,4.014 0.084,1.589 0.251,-0.586 0.335,0.669 0,1.003 -0.335,2.34 -0.335,3.511 0.084,1.839 0.502,3.679 0.586,5.435 0,10.701 0.334,1.923 0.334,11.202 0,11.036 -0.334,22.407 -0.334,34.529 0,4.181 -0.753,8.946 0,10.618 0.083,0.168 0.668,0.418 0.836,0.586 C -10.033,0.335 -1.589,1.254 0,0 m -25.333,4.097 c 0,0 0.586,-2.258 0.836,-3.679 0.669,-3.678 0.836,-7.357 1.171,-11.538 0.251,-3.845 0.418,-7.19 0.502,-10.032 0.083,-1.588 0,-3.511 0,-5.769 0.083,-2.675 0.501,-5.518 0.585,-8.276 0.167,-2.927 0.251,-5.853 0.334,-8.695 0.168,-6.02 -0.083,-12.04 0.251,-17.475 0.167,-2.006 1.338,-6.771 0.335,-8.025 -0.586,-0.669 -4.014,-0.418 -6.104,-0.92 -0.251,0 -0.167,-0.417 -0.502,-0.501 -1.17,-0.418 -2.842,0 -4.932,0.251 -1.254,0.166 -3.512,0.333 -3.679,0.584 -0.334,0.251 -0.334,2.927 -0.334,4.6 0.167,16.887 0.418,35.197 -0.251,51.082 -0.084,2.006 -0.167,5.601 -0.335,9.196 -0.167,3.177 -1.086,7.19 -0.25,8.361 0.501,0.753 1.337,0 2.592,0.585 l 0.25,0.586 c 0.669,0.082 1.087,-0.335 1.756,-0.335 0.92,0 1.171,0.251 2.006,0.335 0.502,0 4.599,0.752 5.769,-0.335" /></g><g
           transform="translate(346.7314,294.8824)"
           id="g40"><path
             id="path42"
             style="fill:#0e3f6b;fill-opacity:1;fill-rule:nonzero;stroke:none"
             d="m 0,0 c 0.084,-0.251 0.501,-1.004 0.836,-1.421 0.585,-0.837 1.505,-1.339 2.006,-1.756 0.502,-0.334 1.673,-1.338 2.007,-1.422 3.594,-0.919 6.102,0.502 8.109,1.422 1.756,0.836 3.094,1.589 4.264,2.592 1.255,1.087 2.842,2.173 3.177,3.762 0.167,0.836 -0.335,2.174 -0.335,3.177 0.084,3.094 1.338,5.518 -0.501,7.106 -1.337,1.087 -3.009,1.839 -4.598,2.341 -0.836,0.251 -1.839,0.586 -2.592,0.837 -0.586,0.25 -0.752,0.501 -1.171,0.584 C 9.447,17.641 6.771,17.641 6.02,17.557 3.762,17.055 1.337,15.132 0.836,14.045 -0.502,11.203 -1.505,3.511 0,0 m 31.017,49.996 c 0.502,-0.084 1.087,-0.418 1.755,-0.586 1.004,-0.251 1.421,0 1.672,-0.251 -0.083,0.084 0.586,-1.504 0.586,-2.006 0.167,-1.589 -0.753,-4.682 -0.837,-6.354 -0.334,-5.351 -0.083,-10.116 -0.334,-15.55 -0.167,-4.766 0.084,-9.699 0,-13.796 V 9.781 c 0.167,-2.34 -0.334,-4.179 -0.502,-6.939 -0.334,-4.514 0.669,-12.122 0.251,-17.808 -0.083,-1.17 0,-1.672 -0.585,-2.257 -0.251,-0.251 0.084,-0.418 -0.251,-0.585 -0.835,-0.335 -4.681,-0.084 -6.019,0 -0.502,0 -1.755,0.418 -2.926,0.585 -2.258,0.25 -2.843,-0.251 -3.177,1.422 0,0.083 -0.335,0.25 -0.251,0.584 0.084,0.167 0.167,0.502 0,1.422 -0.167,0.836 -0.335,1.505 -1.421,0.836 -0.167,0 -0.167,-0.502 -0.334,-0.586 -0.084,0 -0.418,0.168 -0.586,0 -0.083,0 -0.166,-0.501 -0.25,-0.501 -0.752,-0.334 -2.174,-0.92 -3.178,-1.505 -0.668,-0.334 -1.253,-1.087 -1.421,-1.087 -0.418,-0.167 -1.338,-0.084 -2.007,-0.335 -0.585,-0.167 -1.253,-0.501 -1.421,-0.584 -2.425,-0.335 -7.44,-0.419 -8.611,0.334 -0.25,0.083 -0.501,0.501 -0.585,0.585 -0.501,0.167 -1.254,0.084 -1.756,0.251 -0.418,0.251 -0.92,0.669 -1.421,0.836 -0.502,0.25 -1.171,0.418 -1.422,0.585 -0.585,0.335 -1.421,1.505 -2.34,2.007 -0.083,0.084 -0.668,0.167 -0.836,0.335 -0.167,0.167 -0.251,0.835 -0.585,1.17 -0.585,0.669 -2.09,1.756 -2.592,2.509 -0.251,0.501 -0.502,1.337 -0.836,2.09 -0.084,0.167 -0.502,0.668 -0.585,0.835 -0.084,0.334 0.083,0.753 0,1.171 -0.168,0.585 -0.669,1.087 -0.837,1.672 -0.167,0.417 -0.251,1.003 -0.334,1.17 -0.669,2.341 -1.087,7.358 -0.836,10.367 0.251,2.76 1.087,6.187 2.007,8.862 0.167,0.335 0.501,0.837 0.585,1.172 0.167,0.584 0.083,1.086 0.251,1.42 0.417,0.752 1.421,1.84 2.341,2.843 1.087,1.337 1.923,2.257 3.427,3.176 0.836,0.586 2.006,1.589 2.842,2.007 0.335,0.167 1.004,0.167 1.506,0.335 0.752,0.251 2.592,1.254 3.678,1.421 3.929,0.585 10.618,-0.084 13.544,-1.17 0.753,-0.251 2.091,-1.254 3.177,-1.673 0.167,-0.083 0.669,-0.585 1.087,-0.334 0.501,0.251 1.003,2.258 0.919,3.762 -0.083,0.502 -0.334,0.836 -0.334,1.171 0.084,0.418 0.501,0.752 0.585,1.087 0.251,1.756 0,4.263 0.335,6.019 0.083,0.753 -0.168,1.505 0.251,2.341 0.334,0.753 -0.168,1.087 0,2.258 0.083,0.668 0.417,1.839 0.585,2.925 0.167,1.004 0.418,3.01 0.585,3.177 0.502,0.502 2.759,0.419 3.679,0.502 0.167,0.084 1.839,0.586 3.762,0.335" /></g><g
           transform="translate(427.33,328.1569)"
           id="g44"><path
             id="path46"
             style="fill:#0e3f6b;fill-opacity:1;fill-rule:nonzero;stroke:none"
             d="m 0,0 c 0.251,-0.584 -0.334,-2.926 -0.585,-4.347 -0.167,-1.506 -0.669,-2.843 -0.836,-4.013 -0.084,-0.502 0.251,-1.338 0,-2.592 -0.084,-0.585 -0.167,-0.669 -0.251,-1.087 l -0.334,-1.17 c -1.087,-0.753 -8.277,0.25 -9.782,0 -0.418,-0.083 -0.836,-0.418 -1.421,-0.585 -1.171,-0.419 -2.509,-0.753 -3.763,-1.422 -2.257,-1.254 -3.845,-2.341 -3.678,-6.019 0,-0.251 0.251,-0.502 0.251,-0.92 0,-0.251 -0.334,-0.418 -0.251,-0.836 0.251,-3.595 1.087,-8.026 1.421,-12.039 0.167,-1.84 0,-5.518 0.585,-7.525 0,-0.167 0.251,-0.251 0.251,-0.251 0.084,-0.418 -0.585,-0.335 -0.585,-1.17 0,-1.17 0.836,-5.852 -0.251,-6.855 -0.752,-0.753 -4.263,-0.67 -6.354,-0.837 -1.254,-0.167 -4.933,-0.752 -6.02,0.251 -0.251,0.251 -0.083,1.087 -0.251,2.007 -0.083,0.502 -0.584,1.17 -0.584,1.421 0,1.338 0.584,1.421 0.584,2.007 0,0.418 -0.5,1.003 -0.584,1.42 -0.167,1.171 -0.251,2.258 -0.334,3.512 0,0.418 0.334,0.92 0.334,1.421 -0.083,1.004 -0.502,2.006 -0.585,3.178 -0.084,1.086 0.083,2.173 0,3.428 -0.167,1.755 -0.753,3.511 -0.836,5.434 -0.084,0.668 0.334,1.17 0.251,1.756 -0.168,1.588 -0.753,2.842 -0.837,3.678 -0.251,2.424 -0.251,4.682 -0.585,6.939 -0.083,0.669 0.167,1.338 0,2.007 -0.083,0.167 -0.502,0.25 -0.585,0.584 -0.084,0.251 0.083,0.586 0,0.837 -0.334,2.508 -0.502,5.016 -0.836,7.19 -0.084,0.502 -1.171,2.592 -0.585,3.763 0.417,0.752 2.842,0.835 4.013,1.086 0.752,0.251 1.42,0.418 2.005,0.585 0.586,0.168 0.836,0.168 1.171,0.335 0.585,0.25 4.264,0.585 5.184,0 0.92,-0.669 0.669,-4.097 1.672,-4.599 0.502,-0.251 1.338,0.251 2.341,0.837 0.251,0.167 0.502,0.668 0.836,0.836 0.418,0.25 0.752,0.083 1.17,0.334 0.335,0.167 0.502,0.669 0.836,0.837 0.418,0.25 0.752,0.083 1.171,0.333 0.668,0.334 1.17,0.92 1.756,1.087 0.668,0.251 1.755,0.168 2.508,0.335 0.92,0.166 1.588,0.166 2.341,0.25 C -8.193,1.672 -0.752,1.756 0,0" /></g><g
           transform="translate(451.7461,317.4557)"
           id="g48"><path
             id="path50"
             style="fill:#0e3f6b;fill-opacity:1;fill-rule:nonzero;stroke:none"
             d="m 0,0 c -0.585,-0.335 -1.756,-0.501 -2.341,-1.337 -0.251,-0.251 -1.672,-3.428 -1.255,-3.847 0.335,-0.251 4.181,0 4.264,0 0.335,0.084 0.586,0.168 1.088,0.251 1.672,0.418 9.865,0.168 10.283,0.669 0.752,1.003 -0.586,2.843 -1.589,3.763 C 8.611,1.254 6.271,1.337 3.93,1.087 3.511,1.003 2.09,1.087 1.756,1.003 1.087,0.836 0.919,0.501 0,0 m 7.774,12.875 c 0.168,0 0.837,0.084 0.92,0 0,-0.083 -0.083,-0.585 0,-0.585 0.669,-0.251 2.425,0 3.178,-0.251 0.585,-0.25 1.254,-0.836 2.007,-1.17 1.504,-0.752 2.424,-1.171 3.678,-2.342 1.171,-1.003 2.34,-2.507 3.511,-3.678 0.167,-0.25 0.334,-0.669 0.502,-0.92 0.585,-0.501 1.504,-4.096 2.006,-5.685 0.753,-2.174 0.92,-4.097 0.92,-8.109 0,-0.502 0.334,-4.432 0,-4.85 -0.334,-0.333 -8.193,0 -9.196,0 -3.345,0.084 -6.438,0.418 -8.612,0.251 -2.006,-0.084 -3.678,-0.501 -4.598,-0.501 -2.007,-0.167 -4.515,0.334 -6.354,-0.334 -0.419,-0.168 -1.338,-0.502 -1.422,-0.586 -0.251,-0.251 0.251,-0.502 0.251,-0.586 0,0.502 -0.502,-1.254 -0.502,-1.086 0,-1.338 1.422,-4.849 2.007,-5.518 0.836,-1.003 2.174,-1.672 3.679,-2.258 1.505,-0.584 5.853,-0.919 8.025,-0.584 2.509,0.334 5.352,1.839 7.526,3.176 0.836,0.502 2.424,2.007 2.843,2.007 0.167,0 1.503,-0.92 2.34,-1.756 0.585,-0.585 1.17,-1.588 1.672,-2.257 0.251,-0.335 0.669,-0.836 0.919,-1.17 0.084,-0.167 0.084,-0.669 0.251,-0.837 0.251,-0.418 0.753,-0.668 1.171,-1.756 0.084,-0.334 -0.167,-0.835 0,-1.17 l 0.585,-0.251 c -0.083,-0.586 -1.17,-2.508 -2.007,-3.427 -0.417,-0.418 -1.253,-0.753 -1.755,-1.17 -0.585,-0.418 -1.004,-0.837 -1.422,-1.171 -0.501,-0.335 -1.169,-0.836 -1.754,-1.171 -1.255,-0.585 -2.509,-0.836 -4.014,-1.421 -0.585,-0.167 -1.254,-0.753 -1.756,-0.836 -1.086,-0.251 -2.508,-0.084 -3.679,-0.251 -2.758,-0.418 -4.848,-0.752 -8.36,-0.335 -0.585,0.084 -1.338,0.502 -2.006,0.586 -1.756,0.251 -2.509,0.083 -4.014,0.585 -0.501,0.168 -1.002,0.418 -1.42,0.585 -1.004,0.334 -2.341,0.753 -2.927,1.087 -0.083,0.084 -0.167,0.586 -0.25,0.586 -1.171,0.585 -2.425,1.922 -3.428,3.177 -0.67,0.836 -1.422,1.755 -2.007,3.176 -0.167,0.418 -0.167,0.919 -0.335,1.421 -0.167,0.419 -0.418,0.753 -0.585,1.172 -0.167,0.501 -0.083,0.752 -0.251,1.421 -0.167,0.751 -0.92,2.423 -1.171,3.762 -0.083,0.752 -0.25,1.589 -0.25,2.257 0,0.251 0.25,0.585 0.25,0.585 -0.166,1.588 -0.752,2.341 -0.585,4.348 0.084,0.585 0.419,1.923 0.585,3.093 0.168,1.589 0.251,2.926 0.586,4.347 0.418,1.672 1.003,3.595 1.756,5.435 0.084,0.334 0.418,0.669 0.585,0.92 0.418,0.919 0.585,1.755 1.087,2.507 0.167,0.335 0.585,0.753 0.92,1.171 0.418,0.669 1.588,1.505 2.257,2.341 0.167,0.167 0.084,0.585 0.335,0.836 0.501,0.586 1.672,1.588 2.508,2.341 2.591,2.007 7.775,3.93 12.123,4.515 0.334,0.083 2.34,0.501 3.677,0.334" /></g><g
           transform="translate(524.8212,329.9962)"
           id="g52"><path
             id="path54"
             style="fill:#0e3f6b;fill-opacity:1;fill-rule:nonzero;stroke:none"
             d="m 0,0 c 0.753,-0.167 1.672,-0.167 2.258,-0.334 0.418,-0.084 1.923,-1.087 2.592,-1.422 0.501,-0.25 1.003,-0.334 1.421,-0.584 2.173,-1.171 4.347,-3.93 5.517,-6.606 0.251,-0.752 0.251,-1.672 0.502,-2.591 0.167,-0.335 0.502,-0.753 0.586,-1.088 0.334,-0.918 0.585,-2.34 0.919,-3.762 0.084,-0.835 0.418,-1.756 0.585,-2.591 0.084,-1.004 -0.167,-2.174 0,-3.177 0.084,-0.836 0.502,-1.506 0.502,-2.257 0.251,-3.01 -0.167,-6.521 -0.251,-9.783 -0.083,-2.256 0.167,-4.347 0,-6.018 -0.083,-1.088 -0.502,-2.342 -0.585,-3.512 -0.084,-1.421 0.167,-3.344 0,-4.85 -0.167,-1.505 -0.502,-3.761 -1.17,-4.346 -1.004,-0.837 -3.763,-0.335 -6.021,-0.251 -2.173,0.083 -5.266,-0.168 -6.019,0.585 -1.505,1.504 0.084,6.604 0.251,8.862 0.084,0.501 -0.251,0.919 -0.251,1.505 0,1.086 0.502,2.507 0.586,4.263 0.418,7.274 0.167,18.31 -1.422,21.57 -0.251,0.502 -0.836,1.255 -1.421,2.007 -0.502,0.502 -1.422,1.588 -1.756,1.755 -0.752,0.251 -2.759,0.251 -4.013,0.251 -2.842,0 -4.096,-0.418 -6.019,-1.169 -1.255,-0.419 -2.509,-0.837 -3.763,-1.422 -2.006,-1.003 -6.019,-3.595 -6.855,-6.019 -0.669,-1.673 -0.586,-5.016 -0.586,-8.361 -0.167,-6.522 -0.25,-10.2 -0.585,-17.223 -0.083,-0.669 -0.418,-6.521 -0.92,-6.855 -0.167,-0.168 -2.759,-0.335 -4.013,-0.335 -1.254,0.084 -2.758,0.586 -3.427,0.586 -0.669,0 -1.589,-0.335 -2.843,-0.251 -0.752,0 -2.759,0.167 -2.926,0.251 -0.753,0.836 -0.167,7.106 0,10.617 0.418,7.441 0.585,13.878 0.92,21.571 0.251,5.852 -0.419,10.534 -0.335,15.8 0,0.753 -0.167,1.338 0,2.007 0.084,0.419 0.251,1.338 0.586,1.756 0.417,0.418 1.504,0.335 2.341,0.837 1.17,0.751 6.186,0.501 8.61,0.25 0.251,0 0.92,0.167 1.087,0 0.251,-0.168 -0.083,-0.418 0.335,-0.585 0.92,-0.167 1.421,0.335 1.756,0 -0.084,0.084 0.167,-1.672 0.251,-2.258 0,0 -0.251,-2.341 0,-2.592 1.003,-0.835 2.09,1.171 2.006,1.171 0.753,0.418 1.672,0.585 2.007,0.836 1.587,0.92 2.758,1.923 3.762,2.341 1.253,0.418 2.759,0.586 4.013,0.837 1.756,0.333 2.926,0.417 4.598,0.584 1.338,0.083 5.016,0.251 7.19,0" /></g><g
           id="g56"><g
             id="g58" /><g
             id="g68"><g
               style="opacity:0"
               id="g66"
               clip-path="url(#clipPath62)"><path
                 id="path64"
                 style="fill:#221f1f;fill-opacity:1;fill-rule:nonzero;stroke:none"
                 d="m 31.473,361.363 h 98.613 V 262.749 H 31.473 Z" /></g></g></g><g
           transform="translate(80.019,323.653)"
           id="g70"><path
             id="path72"
             style="fill:#b15be1;fill-opacity:1;fill-rule:nonzero;stroke:none"
             d="m 0,0 c 0.405,-0.015 0.781,-0.152 1.125,-0.334 2.208,-1.169 3.325,-3.965 4.377,-6.347 0.264,-0.596 0.515,-1.214 0.585,-1.917 0.07,-0.702 -0.062,-1.509 -0.49,-2.167 -1.128,-1.73 -3.307,-1.69 -4.752,-1.775 -2.219,-0.13 -4.324,0.289 -6.123,1.342 -0.748,0.437 -1.505,1.13 -1.207,2.327 0.148,0.596 0.481,1.153 0.822,1.682 0.951,1.471 1.807,3.023 2.704,4.533 0.659,1.11 1.482,2.531 2.698,2.648 C -0.173,0.001 -0.086,0.003 0,0" /></g><g
           transform="translate(51.2085,313.1466)"
           id="g74"><path
             id="path76"
             style="fill:#ee426e;fill-opacity:1;fill-rule:nonzero;stroke:none"
             d="m 0,0 c -5.466,1.181 -10.11,-2.935 -10.584,-8.096 -0.003,-0.039 0.01,-0.079 0.005,-0.117 -1.988,-15.485 15.772,-44.289 41.436,-42.062 25.989,2.256 41.417,31.347 37.642,45.488 -0.01,0.038 0,0.079 -0.005,0.117 C 67.858,0.936 62.592,4.13 57.247,2.48 48.906,-0.081 39.418,-6.935 28.999,-7.386 18.578,-7.837 8.531,-1.83 0,0" /></g><g
           transform="translate(69.4648,328.8448)"
           id="g78"><path
             id="path80"
             style="fill:#58bde4;fill-opacity:1;fill-rule:nonzero;stroke:none"
             d="m 0,0 c -0.213,-0.029 -0.432,-0.035 -0.655,-0.016 -1.745,0.148 -3.07,1.769 -2.959,3.62 0.629,10.509 -1.444,15.699 -5.976,17.077 -3.199,0.972 -8,0.216 -8.884,-4.735 -1.479,-8.285 1.238,-10.346 2.224,-13.953 0.475,-1.742 1.621,-3.284 0.545,-4.727 -1.076,-1.445 -3.553,-2.072 -4.444,-0.501 -4.226,7.447 -6.19,15.078 -3.989,22.285 2.097,6.864 10.04,9.963 16.196,8.092 C -4.263,26.024 3.907,23.16 2.704,3.066 2.608,1.453 1.452,0.197 0,0" /></g><g
           transform="translate(57.8047,354.3883)"
           id="g82"><path
             id="path84"
             style="fill:#58bde4;fill-opacity:1;fill-rule:nonzero;stroke:none"
             d="m 0,0 c -4.354,0 -9.008,-2.447 -10.435,-7.118 -1.818,-5.954 -0.569,-12.832 3.711,-20.442 0.258,0.03 0.721,0.229 0.966,0.558 0.06,0.24 -0.217,0.963 -0.382,1.396 -0.17,0.444 -0.362,0.948 -0.511,1.493 -0.211,0.771 -0.528,1.482 -0.895,2.305 -1.151,2.579 -2.584,5.789 -1.371,12.586 0.439,2.455 1.702,4.385 3.653,5.58 2.214,1.356 5.188,1.664 7.955,0.823 7.606,-2.311 7.916,-12.092 7.488,-19.248 -0.042,-0.689 0.419,-1.314 1.007,-1.364 0.064,-0.006 0.126,-0.004 0.188,0.005 0.464,0.062 0.825,0.515 0.858,1.077 C 13.356,-3.563 6.167,-1.378 3.097,-0.445 2.117,-0.147 1.068,0 0,0 m -6.803,-31.833 c -0.096,0 -0.191,0.002 -0.285,0.009 -1.402,0.087 -2.59,0.813 -3.259,1.991 -4.957,8.736 -6.361,16.799 -4.174,23.963 2.512,8.22 11.957,11.611 18.86,9.513 5.788,-1.759 13.346,-6.394 12.158,-26.247 -0.155,-2.594 -2.069,-4.72 -4.55,-5.056 -0.371,-0.05 -0.749,-0.059 -1.125,-0.027 -2.885,0.245 -5.088,2.88 -4.908,5.875 0.796,13.307 -3.164,14.51 -4.465,14.905 -1.569,0.477 -3.328,0.328 -4.481,-0.378 -0.906,-0.554 -1.455,-1.434 -1.679,-2.688 -0.982,-5.504 0.013,-7.734 1.066,-10.094 0.402,-0.901 0.818,-1.833 1.115,-2.92 0.094,-0.342 0.233,-0.707 0.381,-1.094 0.526,-1.376 1.321,-3.455 -0.183,-5.473 -1.034,-1.388 -2.8,-2.279 -4.471,-2.279" /></g><g
           transform="translate(104.4384,325.402)"
           id="g86"><path
             id="path88"
             style="fill:#fddb00;fill-opacity:1;fill-rule:nonzero;stroke:none"
             d="m 0,0 -5.086,4.412 c -0.865,0.751 -2.044,1.027 -3.153,0.74 l -6.518,-1.689 c -2.791,-0.723 -5.201,2.068 -4.076,4.724 l 2.624,6.201 c 0.446,1.054 0.345,2.261 -0.27,3.227 l -3.621,5.677 c -1.55,2.431 0.36,5.585 3.233,5.337 l 6.708,-0.58 c 1.141,-0.099 2.258,0.37 2.986,1.254 l 4.28,5.198 c 1.833,2.226 5.423,1.383 6.075,-1.425 l 1.522,-6.56 C 4.962,25.401 5.753,24.484 6.819,24.065 L 13.085,21.6 c 2.684,-1.056 2.992,-4.73 0.521,-6.218 L 7.838,11.908 C 6.857,11.317 6.23,10.281 6.161,9.138 L 5.752,2.417 C 5.578,-0.461 2.179,-1.89 0,0" /></g></g></g></g></svg>