<?xml version="1.0" encoding="UTF-8"?><svg id="Layer_1" xmlns="http://www.w3.org/2000/svg" xmlns:xlink="http://www.w3.org/1999/xlink" viewBox="0 0 793.535 382.365"><defs><clipPath id="clippath"><path d="M185.008,0H82.923C37.12,0,0,37.144,0,82.923V382.365H793.535V82.923c0-45.778-37.144-82.923-82.898-82.923H185.008Z" style="fill:none;"/></clipPath></defs><g style="clip-path:url(#clippath);"><rect x="-249.999" y="-4.133" width="1084.485" height="386.498" style="fill:#a64ffe;"/><circle cx="62.151" cy="58.545" r="197.33" transform="translate(-23.194 61.094) rotate(-45)" style="fill:#8b39ea; opacity:.56;"/><circle cx="793.535" cy="212.917" r="197.33" transform="translate(81.866 623.476) rotate(-45)" style="fill:#8b39ea; opacity:.56;"/><circle cx="62.151" cy="58.545" r="108.287" transform="translate(-23.194 61.094) rotate(-45)" style="fill:#ff5794;"/><circle cx="43.028" cy="304.534" r="56.604" style="fill:#37e0ae;"/><circle cx="172.452" cy="269.521" r="113.209" style="fill:#8b39ea;"/><circle cx="793.535" cy="215.898" r="123.053" transform="translate(454.511 965.147) rotate(-80.874)" style="fill:#8b39ea;"/><circle cx="744.66" cy="1.94" r="89.827" transform="translate(624.323 736.815) rotate(-80.85)" style="fill:#ffe339;"/><circle cx="477.623" cy="236.753" r="56.604" style="fill:#ff5794;"/><circle cx="654.833" cy="-7.315" r="56.604" style="fill:#37e0ae;"/></g></svg>