<svg xmlns="http://www.w3.org/2000/svg" viewBox="0 0 257.48 37.23">
    <defs>
        <style>
            .cls-1{fill:#f1f2f2;stroke:#58bde4;stroke-linecap:round;stroke-linejoin:round;stroke-width:.5px;stroke-dasharray:3 3}
        </style>
    </defs>
    <g id="Layer_2" data-name="Layer 2">
        <g id="Layer_1-2" data-name="Layer 1">
            <path class="cls-1" d="m53.12 10.3.37 19.37a2.77 2.77 0 0 1-.13.94c-1.12 3.48-3.74 5.39-8.3 5.52L14.89 37c-7.13 0-13-3.75-13.41-8.55L.28 13.07C-.28 6.06 8.06.2 18.51.25l20.91.58C47 1 53 5.19 53.12 10.3ZM204.36 10.3 204 29.67a2.77 2.77 0 0 0 .13.94c1.11 3.48 3.74 5.39 8.3 5.52l30.16.85c7.14 0 13-3.75 13.41-8.55l1.21-15.36C257.76 6.06 249.42.2 239 .25l-20.94.58c-7.58.17-13.6 4.36-13.7 9.47ZM69.47 26.94 69.1 7.57a3 3 0 0 1 .13-.94c1.12-3.48 3.74-5.39 8.3-5.52L107.7.25c7.13 0 13 3.75 13.41 8.55l1.21 15.37c.55 7-7.79 12.87-18.24 12.81l-20.91-.57c-7.59-.21-13.6-4.41-13.7-9.47ZM137 26.94l-.36-19.37a2.71 2.71 0 0 1 .13-.94c1.11-3.48 3.74-5.39 8.3-5.52l30.19-.86c7.14 0 13 3.75 13.41 8.55l1.21 15.37c.55 7-7.79 12.87-18.24 12.81l-20.91-.57c-7.58-.21-13.6-4.41-13.73-9.47Z"/>
        </g>
    </g>
</svg>
