<svg xmlns="http://www.w3.org/2000/svg" viewBox="0 0 125.54 33.85">
    <g data-name="Layer 2">
        <g data-name="Layer 1">
            <path d="M121.69 33.6H4.16c-2 0-3.64-3.92-3.72-8.87L.25 12C.18 7 1.77 2.86 3.78 2.81L120.8.25c2.57-.06 4.62 5.27 4.48 11.64l-.3 14c-.09 4.3-1.54 7.71-3.29 7.71Z" style="fill:#f1f2f2"/>
            <path d="M121.69 33.6H4.16c-2 0-3.64-3.92-3.72-8.87L.25 12C.18 7 1.77 2.86 3.78 2.81L120.8.25c2.57-.06 4.62 5.27 4.48 11.64l-.3 14c-.09 4.3-1.54 7.71-3.29 7.71Z" style="fill:none;stroke:#58bde4;stroke-linecap:round;stroke-linejoin:round;stroke-width:.5px;stroke-dasharray:2.98 2.98"/>
        </g>
    </g>
</svg>
