<svg xmlns="http://www.w3.org/2000/svg" viewBox="0 0 125.54 33.85">
    <g data-name="Layer 2">
        <g data-name="Layer 1">
            <path d="M3.86 33.6h117.53c2 0 3.63-3.92 3.71-8.87l.19-12.73c.07-5-1.52-9.1-3.53-9.15L4.75.25C2.18.19.12 5.52.26 11.89l.3 14c.09 4.3 1.54 7.71 3.3 7.71Z" style="fill:#f1f2f2"/>
            <path d="M3.86 33.6h117.53c2 0 3.63-3.92 3.71-8.87l.19-12.73c.07-5-1.52-9.1-3.53-9.15L4.75.25C2.18.19.12 5.52.26 11.89l.3 14c.09 4.3 1.54 7.71 3.3 7.71Z" style="fill:none;stroke:#58bde4;stroke-linecap:round;stroke-linejoin:round;stroke-width:.5px;stroke-dasharray:2.98 2.98"/>
        </g>
    </g>
</svg>
