<svg xmlns="http://www.w3.org/2000/svg" viewBox="0 0 322.59 111.04">
    <defs>
        <linearGradient id="linear-gradient" x1="334.12" y1="82.97" x2="-6.73" y2="33.19" gradientUnits="userSpaceOnUse">
            <stop offset="0" stop-color="#58bde4"/>
            <stop offset="1" stop-color="#b15be1"/>
        </linearGradient>
        <style>
            .cls-2{fill:#fddb00}
        </style>
    </defs>
    <g id="Layer_2" data-name="Layer 2">
        <g id="Layer_1-2" data-name="Layer 1">
            <path d="M322.59 24.08v87H0v-87C0 10.79 15.09 0 33.71 0h41.5l7.55 9.55c4 5 11.41 8.12 19.48 8.12h118.11c8.07 0 15.51-3.1 19.48-8.12L247.37 0h41.52c18.6 0 33.7 10.79 33.7 24.08Z" style="fill:url(#linear-gradient)"/>
            <path class="cls-2" d="m294.24 79.36.88-5.2a2.74 2.74 0 0 0-.79-2.41l-3.78-3.66a2.72 2.72 0 0 1 1.45-4.65l5.21-.77a2.73 2.73 0 0 0 2.05-1.49l2.31-4.73a2.72 2.72 0 0 1 4.88 0l2.35 4.72a2.74 2.74 0 0 0 2.05 1.48l5.22.74a2.72 2.72 0 0 1 1.56 4.61l-3.76 3.69a2.73 2.73 0 0 0-.78 2.41l.91 5.2a2.72 2.72 0 0 1-3.94 2.88l-4.67-2.44a2.73 2.73 0 0 0-2.53 0l-4.66 2.46a2.72 2.72 0 0 1-3.96-2.84Z"/>
            <path class="cls-2" transform="matrix(.16 -.99 .99 .16 -42.71 87.07)" d="M25.98 64.71h8.04v8.04h-8.04z"/>
            <path class="cls-2" d="M25.25 72.13 26.6 64l8.14 1.35-1.35 8.15Zm1.53-7.9L25.5 72l7.71 1.28 1.28-7.72Z"/>
            <path class="cls-2" d="m25 72.31 1.42-8.58L35 65.15l-1.43 8.58Zm2-7.83-1.21 7.29L33 73l1.21-7.28Z"/>
            <path class="cls-2" d="m24.87 72.4 1.46-8.8 8.79 1.46-1.46 8.79Zm1.64-8.55-1.39 8.37 8.36 1.38 1.39-8.36Zm-.89 8 1.25-7.5 7.5 1.24-1.25 7.5Zm1.43-7.25-1.17 7.07 7.06 1.17 1.18-7.07Z"/>
            <path class="cls-2" transform="rotate(-22.3 293.454 34.727)" d="M290.9 32.2h5.04v5.04h-5.04z"/>
            <path class="cls-2" d="m292 38.15-2-4.86 4.86-2 2 4.87Zm-1.71-4.75 1.83 4.47 4.44-1.87-1.83-4.47Z"/>
            <path class="cls-2" d="m291.93 38.28-2.07-5.05 5-2.07 2.14 5.05Zm-1.53-4.82 1.75 4.28 4.29-1.74-1.76-4.28Z"/>
            <path class="cls-2" d="m291.87 38.42-2.15-5.25L295 31l2.16 5.25ZM290 33.29l2 4.84 4.84-2-2-4.84Zm2.09 4.59-1.84-4.48 4.49-1.84 1.84 4.44Zm-1.55-4.36 1.67 4.08 4.08-1.68-1.67-4.08Z"/>
            <path class="cls-2" transform="rotate(-15.18 17.725 89.09)" d="M15.21 86.58h5.04v5.04h-5.04z"/>
            <path class="cls-2" d="m14.5 87.25 5.08-1.38L21 90.94l-5.08 1.38Zm4.93-1.11-4.66 1.26L16 92.05l4.65-1.26Z"/>
            <path class="cls-2" d="m14.39 87.18 5.26-1.43L21.08 91l-5.27 1.43Zm5-.92-4.47 1.21 1.21 4.46 4.47-1.21Z"/>
            <path class="cls-2" d="m14.25 87.1 5.47-1.48 1.49 5.47-5.47 1.48Zm5.32-1.22-5.05 1.38 1.37 5 5.05-1.37Zm-4.81 1.51 4.68-1.27 1.26 4.68-4.7 1.27Zm4.52-1L15 87.54l1.15 4.26 4.26-1.15Z"/>
            <path class="cls-2" transform="matrix(.97 -.26 .26 .97 3.37 69.17)" d="M258.69 19.42h5.04v5.04h-5.04z"/>
            <path class="cls-2" d="m258 20.09 5.08-1.37 1.37 5.07-5.07 1.38Zm4.9-1.09-4.65 1.27 1.26 4.65 4.66-1.26Z"/>
            <path class="cls-2" d="m257.86 20 5.27-1.42 1.42 5.26-5.26 1.43Zm5-.92-4.47 1.21 1.21 4.47 4.47-1.21Z"/>
            <path class="cls-2" d="m257.73 20 5.47-1.49 1.49 5.48-5.48 1.48Zm5.32-1.22L258 20.1l1.37 5 5.05-1.37Zm-4.82 1.51 4.68-1.29 1.27 4.68-4.68 1.27Zm4.53-1-4.26 1.15 1.16 4.26 4.25-1.16Z"/>
        </g>
    </g>
</svg>
