<svg xmlns="http://www.w3.org/2000/svg" viewBox="0 0 133.15 40.67">
    <defs>
        <clipPath id="clip-path" transform="translate(3.74 4.89)">
            <path class="cls-1" d="M125.32 26.64c.08 1.82-2.2 3.37-5.19 3.51-28.29 1.34-84.39-.15-113.08.74-3.19.1-5.62-1.44-5.85-3.36-.83-7.31-2.56-21.82.73-24.17C7.08-.35 118-1.24 123 2c3.83 2.49 2 16.56 2.32 24.64Z"/>
        </clipPath>
        <style>
            .cls-1,.cls-4,.cls-7,.cls-8,.cls-9{fill:#57bde5}.cls-4,.cls-7,.cls-8,.cls-9{fill-rule:evenodd}.cls-7,.cls-9{mix-blend-mode:screen}.cls-7{opacity:.5}.cls-8{mix-blend-mode:multiply}
        </style>
    </defs>
    <g style="isolation:isolate">
        <g id="Layer_2" data-name="Layer 2">
            <g id="Layer_1-2" data-name="Layer 1">
                <path class="cls-1" d="M125.32 26.64c.08 1.82-2.2 3.37-5.19 3.51-28.29 1.34-84.39-.15-113.08.74-3.19.1-5.62-1.44-5.85-3.36-.83-7.31-2.56-21.82.73-24.17C7.08-.35 118-1.24 123 2c3.83 2.49 2 16.56 2.32 24.64Z" transform="translate(3.74 4.89)"/>
                <g style="clip-path:url(#clip-path)">
                    <path class="cls-4" d="M1-4.89h123.7a4.75 4.75 0 0 1 4.73 4.77V31a4.75 4.75 0 0 1-4.73 4.76H1A4.75 4.75 0 0 1-3.74 31V-.12a4.8 4.8 0 0 1 1.38-3.37A4.72 4.72 0 0 1 1-4.89Z" transform="translate(3.74 4.89)"/>
                    <path class="cls-4" d="M1-1.81h123.7a1.71 1.71 0 0 1 1.19.49L128-3.49a4.68 4.68 0 0 0-3.34-1.4H1a4.72 4.72 0 0 0-3.34 1.4L-.2-1.32A1.67 1.67 0 0 1 1-1.81ZM124.68 32.71H1a1.64 1.64 0 0 1-1.18-.5l-2.16 2.18A4.71 4.71 0 0 0 1 35.78h123.7a4.67 4.67 0 0 0 3.3-1.39l-2.15-2.18a1.68 1.68 0 0 1-1.19.5ZM-.69 31V-.12a1.68 1.68 0 0 1 .49-1.2l-2.16-2.17A4.8 4.8 0 0 0-3.74-.12V31a4.81 4.81 0 0 0 1.38 3.37l2.16-2.16A1.65 1.65 0 0 1-.69 31Z" transform="translate(3.74 4.89)"/>
                    <path class="cls-4" d="M126.36-.12V31a1.69 1.69 0 0 1-.49 1.19l2.13 2.2a4.78 4.78 0 0 0 1.41-3.39V-.12A4.76 4.76 0 0 0 128-3.49l-2.15 2.17a1.72 1.72 0 0 1 .49 1.2Z" transform="translate(3.74 4.89)"/>
                    <path d="M62.83 34.25c-34.23 0-62-.59-62-.89s51.1-.28 62-.28 62 0 62 .28-27.75.89-62 .89Z" transform="translate(3.74 4.89)" style="mix-blend-mode:screen;opacity:.3;fill-rule:evenodd;fill:#57bde5"/>
                    <path d="M-.69 19.7V-.12a1.68 1.68 0 0 1 .49-1.2l-2.16-2.17A4.8 4.8 0 0 0-3.74-.12V21a7 7 0 0 1 3.05-1.3Z" transform="translate(3.74 4.89)" style="opacity:.5;fill-rule:evenodd;fill:#57bde5"/>
                    <path class="cls-7" d="M124.68-4.43H1a4.23 4.23 0 0 0-3 1.27 4.31 4.31 0 0 0-1.25 3v19.9a1.07 1.07 0 0 0 2.13 0V-.12a2.16 2.16 0 0 1 .6-1.52A2.07 2.07 0 0 1 1-2.27h123.7a2.15 2.15 0 0 1 2.14 2.15v4.65a1.07 1.07 0 0 0 2.13 0V-.12a4.3 4.3 0 0 0-4.27-4.31Z" transform="translate(3.74 4.89)"/>
                    <path class="cls-4" d="M43.3-2.7c-23 0-41.62.28-41.62.43s34.32.12 41.62.12 41.62 0 41.62-.12S66.29-2.7 43.3-2.7Z" transform="translate(3.74 4.89)"/>
                    <path class="cls-8" d="M-1.65 34a5.22 5.22 0 0 1 1.16-1.2 1.59 1.59 0 0 1 .79-.24 1.7 1.7 0 0 1-.95-1.14 1.71 1.71 0 0 1-.18 1.06A5 5 0 0 1-2 33.71a1.07 1.07 0 0 1-.81.16 5.07 5.07 0 0 0 1 1 1.2 1.2 0 0 1 .16-.87ZM127.31 34a5.22 5.22 0 0 0-1.16-1.23 1.55 1.55 0 0 0-.78-.24 1.69 1.69 0 0 0 .94-1.14 1.78 1.78 0 0 0 .18 1.06 5.22 5.22 0 0 0 1.16 1.23 1.09 1.09 0 0 0 .81.16 4.79 4.79 0 0 1-1 1 1.21 1.21 0 0 0-.12-.87Z" transform="translate(3.74 4.89)"/>
                    <path class="cls-9" d="M-1.65-3.13A5.22 5.22 0 0 0-.49-1.9a1.59 1.59 0 0 0 .79.24A1.7 1.7 0 0 0-.65-.52a1.69 1.69 0 0 0-.18-1.06A5 5 0 0 0-2-2.81 1.08 1.08 0 0 0-2.8-3a5.29 5.29 0 0 1 1-1 1.2 1.2 0 0 0 .11.87ZM127.31-3.13a5.22 5.22 0 0 1-1.16 1.23 1.55 1.55 0 0 1-.78.24 1.69 1.69 0 0 1 .94 1.14 1.77 1.77 0 0 1 .18-1.06 5.22 5.22 0 0 1 1.16-1.23 1.1 1.1 0 0 1 .81-.17 5 5 0 0 0-1-1 1.21 1.21 0 0 1-.12.87Z" transform="translate(3.74 4.89)"/>
                    <path class="cls-4" d="M1-1.81a1.67 1.67 0 0 0-1.2.49 1.68 1.68 0 0 0-.49 1.2V31A1.68 1.68 0 0 0 1 32.71h123.7a1.69 1.69 0 0 0 1.66-1.71V-.12a1.69 1.69 0 0 0-1.68-1.69Z" transform="translate(3.74 4.89)"/>
                    <path class="cls-9" d="M117.23 32.29a42.93 42.93 0 0 0-7.57.42 66.89 66.89 0 0 0 7.57.24 67 67 0 0 0 7.58-.24 43 43 0 0 0-7.58-.42ZM104.36 32.38a22.08 22.08 0 0 0-4.8.33 35 35 0 0 0 4.8.18 35 35 0 0 0 4.8-.18 22.08 22.08 0 0 0-4.8-.33Z" transform="translate(3.74 4.89)"/>
                    <path class="cls-7" d="M-.69 19.7c17.1-2.34 109.51-12.06 127.05-14.52v-5.3a1.69 1.69 0 0 0-1.68-1.69H1a1.67 1.67 0 0 0-1.2.49 1.68 1.68 0 0 0-.49 1.2V19.7Z" transform="translate(3.74 4.89)"/>
                </g>
            </g>
        </g>
    </g>
</svg>
