<svg xmlns="http://www.w3.org/2000/svg" xmlns:xlink="http://www.w3.org/1999/xlink" viewBox="0 0 190.84 40.67"><defs><style>.cls-1{fill:none;}.cls-2{isolation:isolate;}.cls-3{fill:#59bee5;}.cls-10,.cls-11,.cls-12,.cls-13,.cls-14,.cls-15,.cls-16,.cls-17,.cls-18,.cls-19,.cls-3,.cls-5,.cls-6,.cls-7,.cls-8,.cls-9{fill-rule:evenodd;}.cls-10,.cls-12,.cls-15,.cls-16,.cls-18,.cls-19,.cls-3{mix-blend-mode:screen;}.cls-4{clip-path:url(#clip-path);}.cls-5{fill:#ab5826;}.cls-6{fill:url(#linear-gradient);}.cls-7{fill:url(#radial-gradient);}.cls-8{fill:url(#linear-gradient-2);}.cls-9{fill:url(#linear-gradient-3);}.cls-10{opacity:0.3;fill:url(#radial-gradient-2);}.cls-11,.cls-12,.cls-19{opacity:0.5;}.cls-11{fill:url(#radial-gradient-3);}.cls-12{fill:url(#radial-gradient-4);}.cls-13{fill:#fff;}.cls-14{fill:#d6ac8b;mix-blend-mode:multiply;}.cls-15{fill:url(#radial-gradient-5);}.cls-16{fill:url(#radial-gradient-6);}.cls-17{fill:url(#linear-gradient-4);}.cls-18{fill:#dbba67;}.cls-19{fill:url(#radial-gradient-7);}.cls-20{font-size:14px;fill:#595a5c;font-family:BalooBhai2-Medium, BalooBhai2 Medium;font-weight:500;}.cls-21{letter-spacing:-0.01em;}.cls-22{letter-spacing:0em;}.cls-23{letter-spacing:0em;}.cls-24{letter-spacing:-0.01em;}.cls-25{letter-spacing:-0.04em;}.cls-26{letter-spacing:-0.01em;}.cls-27{letter-spacing:0em;}</style><clipPath id="clip-path" transform="translate(5.9 3.57)"><path class="cls-1" d="M179.13,26.64c.12,1.82-3.15,3.37-7.44,3.51C131.15,31.49,52.13,30,11,30.89c-4.57.1-8-1.44-8.37-3.36C1.44,20.22-2.43,5.71,2.27,3.36,9.66-.35,166.57-1.24,173.68,2,179.2,4.49,178.66,18.56,179.13,26.64Z"/></clipPath><linearGradient id="linear-gradient" x1="89.52" x2="89.52" y2="-3.57" gradientUnits="userSpaceOnUse"><stop offset="0" stop-color="#fee48f"/><stop offset="1" stop-color="#fdba2b"/></linearGradient><radialGradient id="radial-gradient" cx="93.82" cy="17.34" r="97.38" gradientTransform="translate(-145.44 13.14) scale(1.71 1.2)" gradientUnits="userSpaceOnUse"><stop offset="0" stop-color="#f99f1b"/><stop offset="1" stop-color="#78471c"/></radialGradient><linearGradient id="linear-gradient-2" x1="-5.9" y1="16.76" x2="-0.82" y2="16.76" gradientUnits="userSpaceOnUse"><stop offset="0" stop-color="#f1b41c"/><stop offset="1" stop-color="#ffc641"/></linearGradient><linearGradient id="linear-gradient-3" x1="179.87" y1="16.76" x2="184.94" y2="16.76" gradientUnits="userSpaceOnUse"><stop offset="0" stop-color="#945b25"/><stop offset="1" stop-color="#78471c"/></linearGradient><radialGradient id="radial-gradient-2" cx="-24.44" cy="13.85" r="15.73" gradientTransform="translate(265.82 13.14) scale(7.2 1.2)" gradientUnits="userSpaceOnUse"><stop offset="0" stop-color="#ffe9c2"/><stop offset="1" stop-color="#ffdea4"/></radialGradient><radialGradient id="radial-gradient-3" cx="83.05" cy="-2.55" r="7.26" gradientTransform="translate(-145.44 13.14) scale(1.71 1.2)" xlink:href="#radial-gradient-2"/><radialGradient id="radial-gradient-4" cx="102.2" cy="-14.52" r="85.99" gradientTransform="translate(-145.44 13.14) scale(1.71 1.2)" gradientUnits="userSpaceOnUse"><stop offset="0" stop-color="#ffe9c2"/><stop offset="1" stop-color="#010101"/></radialGradient><radialGradient id="radial-gradient-5" cx="84.77" cy="-10.5" r="4.49" gradientTransform="translate(-145.44 13.14) scale(1.71 1.2)" gradientUnits="userSpaceOnUse"><stop offset="0" stop-color="#ffd58d"/><stop offset="1" stop-color="#865d24"/></radialGradient><radialGradient id="radial-gradient-6" cx="190.08" cy="-10.62" r="4.93" xlink:href="#radial-gradient-5"/><linearGradient id="linear-gradient-4" x1="143.1" y1="70.34" x2="35.94" y2="-36.81" gradientUnits="userSpaceOnUse"><stop offset="0" stop-color="#fbae32"/><stop offset="1" stop-color="#fee850"/></linearGradient><radialGradient id="radial-gradient-7" cx="93.36" cy="-12.94" r="91.93" xlink:href="#radial-gradient-4"/></defs><g class="cls-2"><g id="Layer_2" data-name="Layer 2"><g id="Layer_1-2" data-name="Layer 1"><path class="cls-3" d="M153.25,32.9a53,53,0,0,0-7.47.33c0,.11,4,.18,7.47.18s7.46-.07,7.46-.18a52.88,52.88,0,0,0-7.46-.33Z" transform="translate(5.9 3.57)"/><g class="cls-4"><path class="cls-5" d="M.87-3.57h177.3c3.73,0,6.77,2.14,6.77,4.76V32.33c0,2.63-3,4.77-6.77,4.77H.87C-2.86,37.1-5.9,35-5.9,32.33V1.19a4.18,4.18,0,0,1,2-3.36A8.31,8.31,0,0,1,.87-3.57Z" transform="translate(5.9 3.57)"/><path class="cls-6" d="M.87-.5h177.3a3,3,0,0,1,1.7.5L183-2.17a8.29,8.29,0,0,0-4.78-1.4H.87a8.31,8.31,0,0,0-4.78,1.4L-.82,0A2.92,2.92,0,0,1,.87-.5Z" transform="translate(5.9 3.57)"/><path class="cls-7" d="M178.17,34H.87a2.92,2.92,0,0,1-1.69-.5L-3.91,35.7A8.31,8.31,0,0,0,.87,37.1h177.3A8.29,8.29,0,0,0,183,35.7l-3.08-2.17a3,3,0,0,1-1.7.5Z" transform="translate(5.9 3.57)"/><path class="cls-8" d="M-1.53,32.33V1.19A1.49,1.49,0,0,1-.82,0L-3.91-2.17a4.18,4.18,0,0,0-2,3.36V32.33a4.18,4.18,0,0,0,2,3.37l3.09-2.17a1.49,1.49,0,0,1-.71-1.2Z" transform="translate(5.9 3.57)"/><path class="cls-9" d="M180.57,1.19V32.33a1.51,1.51,0,0,1-.7,1.2L183,35.7a4.18,4.18,0,0,0,2-3.37V1.19a4.18,4.18,0,0,0-2-3.36L179.87,0a1.5,1.5,0,0,1,.7,1.19Z" transform="translate(5.9 3.57)"/><path class="cls-10" d="M89.52,35.56C40.46,35.56.69,35,.69,34.67s73.25-.27,88.83-.27,88.83,0,88.83.27-39.77.89-88.83.89Z" transform="translate(5.9 3.57)"/><path class="cls-11" d="M-1.53,21V1.19A1.49,1.49,0,0,1-.82,0L-3.91-2.17a4.18,4.18,0,0,0-2,3.36V22.3A12.78,12.78,0,0,1-1.53,21Z" transform="translate(5.9 3.57)"/><path class="cls-12" d="M178.17-3.11H.87A7.56,7.56,0,0,0-3.45-1.85a3.79,3.79,0,0,0-1.79,3v19.9c0,1.42,3.05,1.42,3.05,0V1.19a1.92,1.92,0,0,1,.9-1.52A3.84,3.84,0,0,1,.87-1h177.3c1.68,0,3.06,1,3.06,2.15V5.85c0,1.41,3.06,1.41,3.06,0V1.19c0-2.37-2.75-4.3-6.12-4.3Z" transform="translate(5.9 3.57)"/><path class="cls-13" d="M61.53-1.38C28.58-1.38,1.87-1.1,1.87-1s49.19.13,59.66.13,59.65,0,59.65-.13-26.71-.42-59.65-.42Z" transform="translate(5.9 3.57)"/><path class="cls-14" d="M-2.89,35.35a6.43,6.43,0,0,1,1.66-1.24,3,3,0,0,1,1.12-.23,2,2,0,0,1-1.35-1.15,1.3,1.3,0,0,1-.26,1.06A6.35,6.35,0,0,1-3.38,35a2.14,2.14,0,0,1-1.16.17,6.36,6.36,0,0,0,1.48,1,.85.85,0,0,1,.17-.86Z" transform="translate(5.9 3.57)"/><path class="cls-14" d="M181.94,35.35a6.6,6.6,0,0,0-1.66-1.24,3,3,0,0,0-1.13-.23,2.06,2.06,0,0,0,1.36-1.15,1.23,1.23,0,0,0,.26,1.06A6.18,6.18,0,0,0,182.43,35a2.09,2.09,0,0,0,1.15.17,6,6,0,0,1-1.48,1,.85.85,0,0,0-.16-.86Z" transform="translate(5.9 3.57)"/><path class="cls-15" d="M-2.89-1.82A6.4,6.4,0,0,0-1.23-.59,2.78,2.78,0,0,0-.11-.35,2,2,0,0,0-1.46.8,1.33,1.33,0,0,0-1.72-.27,6.82,6.82,0,0,0-3.38-1.5a2.22,2.22,0,0,0-1.16-.16,6.36,6.36,0,0,1,1.48-1,.85.85,0,0,0,.17.86Z" transform="translate(5.9 3.57)"/><path class="cls-16" d="M181.94-1.82a6.58,6.58,0,0,1-1.66,1.23,2.82,2.82,0,0,1-1.13.24A2,2,0,0,1,180.51.8a1.26,1.26,0,0,1,.26-1.07,6.64,6.64,0,0,1,1.66-1.23,2.18,2.18,0,0,1,1.15-.16,6,6,0,0,0-1.48-1,.85.85,0,0,1-.16.86Z" transform="translate(5.9 3.57)"/><path class="cls-17" d="M.87-.5A2.92,2.92,0,0,0-.82,0a1.49,1.49,0,0,0-.71,1.19V32.33c0,.93,1.08,1.7,2.4,1.7h177.3c1.32,0,2.4-.77,2.4-1.7V1.19c0-.92-1.08-1.69-2.4-1.69Z" transform="translate(5.9 3.57)"/><path class="cls-18" d="M167.49,33.6a84.41,84.41,0,0,0-10.86.43c0,.14,5.81.23,10.86.23s10.86-.09,10.86-.23a84.41,84.41,0,0,0-10.86-.43Z" transform="translate(5.9 3.57)"/><path class="cls-18" d="M149,33.7a44.82,44.82,0,0,0-6.87.33c0,.11,3.67.18,6.87.18s6.88-.07,6.88-.18A45,45,0,0,0,149,33.7Z" transform="translate(5.9 3.57)"/><path class="cls-19" d="M-1.53,21C23,18.68,155.43,9,180.57,6.5V1.19c0-.92-1.08-1.69-2.4-1.69H.87A2.92,2.92,0,0,0-.82,0a1.49,1.49,0,0,0-.71,1.19V21Z" transform="translate(5.9 3.57)"/></g><text class="cls-20" transform="translate(24.22 23.58)"><tspan class="cls-21">C</tspan><tspan x="7.97" y="0">o</tspan><tspan class="cls-22" x="15.65" y="0">n</tspan><tspan class="cls-23" x="23.37" y="0">tinue </tspan><tspan class="cls-24" x="56.74" y="0">U</tspan><tspan x="65.72" y="0">sing</tspan><tspan class="cls-25" x="90.13" y="0"> </tspan><tspan class="cls-26" x="92.52" y="0">T</tspan><tspan x="99.38" y="0">he </tspan><tspan class="cls-27" x="117.14" y="0">A</tspan><tspan x="125.66" y="0">pp</tspan></text></g></g></g></svg>