<svg xmlns="http://www.w3.org/2000/svg" xmlns:xlink="http://www.w3.org/1999/xlink" viewBox="0 0 190.84 40.67">
    <defs>
        <radialGradient id="radial-gradient" cx="168.81" cy="17.32" r="97.38" gradientTransform="matrix(1.71 0 0 1.2 -273.74 13.16)" gradientUnits="userSpaceOnUse">
            <stop offset="0" stop-color="#fa9e00"/>
            <stop offset="1" stop-color="#784400"/>
        </radialGradient>
        <radialGradient id="radial-gradient-2" cx="130.99" cy="13.84" r="15.73" gradientTransform="matrix(7.2 0 0 1.2 -852.87 13.16)" gradientUnits="userSpaceOnUse">
            <stop offset="0" stop-color="#ffe9c2"/>
            <stop offset="1" stop-color="#ffdda3"/>
        </radialGradient>
        <radialGradient id="radial-gradient-3" cx="158.05" cy="-2.57" r="7.26" gradientTransform="matrix(1.71 0 0 1.2 -273.74 13.16)" xlink:href="#radial-gradient-2"/>
        <radialGradient id="radial-gradient-4" cx="177.2" cy="-14.54" r="85.99" gradientTransform="matrix(1.71 0 0 1.2 -273.74 13.16)" gradientUnits="userSpaceOnUse">
            <stop offset="0" stop-color="#ffe9c2"/>
            <stop offset="1"/>
        </radialGradient>
        <radialGradient id="radial-gradient-5" cx="159.77" cy="-10.51" r="4.49" gradientTransform="matrix(1.71 0 0 1.2 -273.74 13.16)" gradientUnits="userSpaceOnUse">
            <stop offset="0" stop-color="#ffd58c"/>
            <stop offset="1" stop-color="#875b0e"/>
        </radialGradient>
        <radialGradient id="radial-gradient-6" cx="265.08" cy="-10.64" r="4.93" xlink:href="#radial-gradient-5"/>
        <radialGradient id="radial-gradient-7" cx="168.36" cy="-12.95" r="91.93" xlink:href="#radial-gradient-4"/>
        <linearGradient id="linear-gradient" x1="89.52" x2="89.52" y2="-3.57" gradientUnits="userSpaceOnUse">
            <stop offset="0" stop-color="#ffe58f"/>
            <stop offset="1" stop-color="#ffbb29"/>
        </linearGradient>
        <linearGradient id="linear-gradient-2" x1="-5.9" y1="16.76" x2="-.82" y2="16.76" gradientUnits="userSpaceOnUse">
            <stop offset="0" stop-color="#f2b416"/>
            <stop offset="1" stop-color="#ffc540"/>
        </linearGradient>
        <linearGradient id="linear-gradient-3" x1="179.87" y1="16.76" x2="184.94" y2="16.76" gradientUnits="userSpaceOnUse">
            <stop offset="0" stop-color="#945900"/>
            <stop offset="1" stop-color="#784400"/>
        </linearGradient>
        <linearGradient id="linear-gradient-4" x1="143.1" y1="70.34" x2="35.94" y2="-36.81" gradientUnits="userSpaceOnUse">
            <stop offset="0" stop-color="#ffaf30"/>
            <stop offset="1" stop-color="#ffe94f"/>
        </linearGradient>
        <clipPath id="clip-path" transform="translate(5.9 3.57)">
            <path d="M179.13 26.64c.12 1.82-3.15 3.37-7.44 3.51C131.15 31.49 52.13 30 11 30.89c-4.57.1-8-1.44-8.37-3.36-1.19-7.31-5.06-21.82-.36-24.17C9.66-.35 166.57-1.24 173.68 2c5.52 2.49 4.98 16.56 5.45 24.64Z" style="fill:none"/>
        </clipPath>
        <style>
            .cls-13,.cls-17{fill-rule:evenodd}.cls-17{mix-blend-mode:screen}.cls-13{fill:#d6ac8a;mix-blend-mode:multiply}.cls-17{fill:#dbba67}
        </style>
    </defs>
    <g style="isolation:isolate">
        <g id="Layer_2" data-name="Layer 2">
            <g style="clip-path:url(#clip-path)" id="Layer_1-2" data-name="Layer 1">
                <path d="M.87-3.57h177.3c3.73 0 6.77 2.14 6.77 4.76v31.14c0 2.63-3 4.77-6.77 4.77H.87c-3.73 0-6.77-2.1-6.77-4.77V1.19a4.18 4.18 0 0 1 2-3.36 8.31 8.31 0 0 1 4.77-1.4Z" transform="translate(5.9 3.57)" style="fill-rule:evenodd;fill:#ab5500"/>
                <path d="M.87-.5h177.3a3 3 0 0 1 1.7.5L183-2.17a8.29 8.29 0 0 0-4.78-1.4H.87a8.31 8.31 0 0 0-4.78 1.4L-.82 0A2.92 2.92 0 0 1 .87-.5Z" transform="translate(5.9 3.57)" style="fill:url(#linear-gradient);fill-rule:evenodd"/>
                <path d="M178.17 34H.87a2.92 2.92 0 0 1-1.69-.5l-3.09 2.2a8.31 8.31 0 0 0 4.78 1.4h177.3a8.29 8.29 0 0 0 4.83-1.4l-3.08-2.17a3 3 0 0 1-1.7.5Z" transform="translate(5.9 3.57)" style="fill:url(#radial-gradient);fill-rule:evenodd"/>
                <path d="M-1.53 32.33V1.19A1.49 1.49 0 0 1-.82 0l-3.09-2.17a4.18 4.18 0 0 0-2 3.36v31.14a4.18 4.18 0 0 0 2 3.37l3.09-2.17a1.49 1.49 0 0 1-.71-1.2Z" transform="translate(5.9 3.57)" style="fill:url(#linear-gradient-2);fill-rule:evenodd"/>
                <path d="M180.57 1.19v31.14a1.51 1.51 0 0 1-.7 1.2L183 35.7a4.18 4.18 0 0 0 2-3.37V1.19a4.18 4.18 0 0 0-2-3.36L179.87 0a1.5 1.5 0 0 1 .7 1.19Z" transform="translate(5.9 3.57)" style="fill:url(#linear-gradient-3);fill-rule:evenodd"/>
                <path d="M89.52 35.56C40.46 35.56.69 35 .69 34.67s73.25-.27 88.83-.27 88.83 0 88.83.27-39.77.89-88.83.89Z" transform="translate(5.9 3.57)" style="mix-blend-mode:screen;opacity:.3;fill:url(#radial-gradient-2);fill-rule:evenodd"/>
                <path d="M-1.53 21V1.19A1.49 1.49 0 0 1-.82 0l-3.09-2.17a4.18 4.18 0 0 0-2 3.36V22.3A12.78 12.78 0 0 1-1.53 21Z" transform="translate(5.9 3.57)" style="fill:url(#radial-gradient-3);opacity:.5;fill-rule:evenodd"/>
                <path d="M178.17-3.11H.87a7.56 7.56 0 0 0-4.32 1.26 3.79 3.79 0 0 0-1.79 3v19.9c0 1.42 3.05 1.42 3.05 0V1.19a1.92 1.92 0 0 1 .9-1.52A3.84 3.84 0 0 1 .87-1h177.3c1.68 0 3.06 1 3.06 2.15v4.7c0 1.41 3.06 1.41 3.06 0V1.19c0-2.37-2.75-4.3-6.12-4.3Z" transform="translate(5.9 3.57)" style="fill:url(#radial-gradient-4);opacity:.5;mix-blend-mode:screen;fill-rule:evenodd"/>
                <path d="M61.53-1.38c-32.95 0-59.66.28-59.66.38s49.19.13 59.66.13 59.65 0 59.65-.13-26.71-.42-59.65-.42Z" transform="translate(5.9 3.57)" style="fill:#fff;fill-rule:evenodd"/>
                <path class="cls-13" d="M-2.89 35.35a6.43 6.43 0 0 1 1.66-1.24 3 3 0 0 1 1.12-.23 2 2 0 0 1-1.35-1.15 1.3 1.3 0 0 1-.26 1.06A6.35 6.35 0 0 1-3.38 35a2.14 2.14 0 0 1-1.16.17 6.36 6.36 0 0 0 1.48 1 .85.85 0 0 1 .17-.86ZM181.94 35.35a6.6 6.6 0 0 0-1.66-1.24 3 3 0 0 0-1.13-.23 2.06 2.06 0 0 0 1.36-1.15 1.23 1.23 0 0 0 .26 1.06 6.18 6.18 0 0 0 1.66 1.21 2.09 2.09 0 0 0 1.15.17 6 6 0 0 1-1.48 1 .85.85 0 0 0-.16-.86Z" transform="translate(5.9 3.57)"/>
                <path d="M-2.89-1.82A6.4 6.4 0 0 0-1.23-.59a2.78 2.78 0 0 0 1.12.24A2 2 0 0 0-1.46.8a1.33 1.33 0 0 0-.26-1.07A6.82 6.82 0 0 0-3.38-1.5a2.22 2.22 0 0 0-1.16-.16 6.36 6.36 0 0 1 1.48-1 .85.85 0 0 0 .17.86Z" transform="translate(5.9 3.57)" style="fill:url(#radial-gradient-5);mix-blend-mode:screen;fill-rule:evenodd"/>
                <path d="M181.94-1.82a6.58 6.58 0 0 1-1.66 1.23 2.82 2.82 0 0 1-1.13.24A2 2 0 0 1 180.51.8a1.26 1.26 0 0 1 .26-1.07 6.64 6.64 0 0 1 1.66-1.23 2.18 2.18 0 0 1 1.15-.16 6 6 0 0 0-1.48-1 .85.85 0 0 1-.16.86Z" transform="translate(5.9 3.57)" style="fill:url(#radial-gradient-6);mix-blend-mode:screen;fill-rule:evenodd"/>
                <path d="M.87-.5A2.92 2.92 0 0 0-.82 0a1.49 1.49 0 0 0-.71 1.19v31.14c0 .93 1.08 1.7 2.4 1.7h177.3c1.32 0 2.4-.77 2.4-1.7V1.19c0-.92-1.08-1.69-2.4-1.69Z" transform="translate(5.9 3.57)" style="fill:url(#linear-gradient-4);fill-rule:evenodd"/>
                <path class="cls-17" d="M167.49 33.6a84.41 84.41 0 0 0-10.86.43c0 .14 5.81.23 10.86.23s10.86-.09 10.86-.23a84.41 84.41 0 0 0-10.86-.43ZM149 33.7a44.82 44.82 0 0 0-6.87.33c0 .11 3.67.18 6.87.18s6.88-.07 6.88-.18a45 45 0 0 0-6.88-.33Z" transform="translate(5.9 3.57)"/>
                <path d="M-1.53 21C23 18.68 155.43 9 180.57 6.5V1.19c0-.92-1.08-1.69-2.4-1.69H.87A2.92 2.92 0 0 0-.82 0a1.49 1.49 0 0 0-.71 1.19V21Z" transform="translate(5.9 3.57)" style="fill:url(#radial-gradient-7);opacity:.5;mix-blend-mode:screen;fill-rule:evenodd"/>
            </g>
        </g>
    </g>
</svg>
