<svg xmlns="http://www.w3.org/2000/svg" viewBox="0 0 51.25 45.51"><defs><style>.cls-1{isolation:isolate;}.cls-2{fill:#bf392c;}.cls-3{fill:#ee426e;}.cls-4{opacity:0.1;mix-blend-mode:multiply;}</style></defs><title>Asset 2</title><g class="cls-1"><g id="Layer_2" data-name="Layer 2"><g id="Layer_1-2" data-name="Layer 1"><path class="cls-2" d="M47.58,25.9a13.72,13.72,0,0,0,3.67-9.36c0-.31,0-3.09,0-3.38C51,5.9,44.82,2.75,37.46,2.75a13.78,13.78,0,0,0-11.82,6.7,13.79,13.79,0,0,0-11.83-6.7C6.71,2.75.77,4.05,0,13.13c0,.66,0,2.69,0,3.41A13.76,13.76,0,0,0,5.21,27.31l20.43,18.2s14.79-13.64,20-17.87a18.54,18.54,0,0,0,1.92-1.72l0,0Z"/><path class="cls-3" d="M47.58,23.15A13.78,13.78,0,1,0,25.64,6.7,13.79,13.79,0,1,0,5.21,24.56l20.43,18.2s14.79-13.64,20-17.87a18.54,18.54,0,0,0,1.92-1.72l0,0Z"/><path class="cls-4" d="M51.24,13.44v-.28s0,0,0-.06V13A11.7,11.7,0,0,0,51,11.09a13.83,13.83,0,0,0-6.82-9.35L12.3,33.62,25.64,45.51s14.79-13.64,20-17.87a18.54,18.54,0,0,0,1.92-1.72l0,0h0a13.72,13.72,0,0,0,3.67-9.36V13.79C51.25,13.67,51.25,13.55,51.24,13.44Z"/></g></g></g></svg>