<svg xmlns="http://www.w3.org/2000/svg" viewBox="0 0 432.94 232.56">
    <defs>
        <style>
            .cls-1{opacity:.32}.cls-2{fill:#9462a8}.cls-3{fill:#ee426e}.cls-4{fill:#58bde4}.cls-7{fill:#0e3f6b}
        </style>
    </defs>
    <g id="Layer_2" data-name="Layer 2">
        <g id="Layer_1-2" data-name="Layer 1">
            <g class="cls-1">
                <path class="cls-2" d="m.27 172.74-.27.81s1.88.61 5 1.34l.13-.63C2.27 173.6.5 173.05.26 173Zm9.81 2.6L10 176c1.71.32 3.41.61 5.05.83l.07-.63c-1.65-.24-3.34-.52-5-.83ZM132 59.3l.37.5a19.25 19.25 0 0 1 4.35-2.47l-.23-.6a20.4 20.4 0 0 0-4.48 2.54Zm-3.5 3.7a12.72 12.72 0 0 0-2 4.76l.74.13-.07-.07a12.08 12.08 0 0 1 1.92-4.5Zm-45.69 47.3v.06l.4.44a36.29 36.29 0 0 1 3.93-3.14l-.35-.5a38.32 38.32 0 0 0-4 3.19Zm-3.48 3.7a42 42 0 0 0-3 4.17l.56.3a40.08 40.08 0 0 1 2.93-4.09Zm11.83-9.52.3.56c1.43-.74 3-1.47 4.58-2.14l-.24-.58c-1.64.68-3.2 1.4-4.64 2.17Zm-17.31 18.15v.05c-.73 1.43-1.42 2.93-2.16 4.59l.59.26c.72-1.67 1.42-3.17 2.14-4.59Zm67.6-67.25.09.63a15.59 15.59 0 0 1 5 0l.09-.62-.07-.07a16.25 16.25 0 0 0-5.12 0ZM20.13 176.72v.64h.06c1.73.13 3.44.23 5.07.26V177c-1.61 0-3.33-.12-5.07-.26ZM126.47 72.89a14.06 14.06 0 0 0 1.83 4.83l.54-.34a13.58 13.58 0 0 1-1.73-4.61l.07-.07Zm-25.9 27.6v.05l.18.56c1.42-.51 3-1 4.77-1.57l.08-.08-.18-.62c-1.78.56-3.35 1.06-4.8 1.57Zm-31 31.41.11.11c-.57 1.48-1.14 3-1.76 4.76l.6.21c.57-1.61 1.15-3.2 1.73-4.73l.14.05-.13-.13Zm-39.32 44.93v.7l.07.07v-.07c1.71-.09 3.4-.25 5-.49v.05l.09-.08-.09-.61c-1.62.23-3.32.4-5 .49Zm80-79.34.17.62c1-.28 1.92-.55 2.87-.81l2-.57-.18-.63-1.53.42-3.35 1Zm-43.92 44.05c-.58 1.71-1.15 3.48-1.6 4.82v.05l.61.2c.6-1.83 1.11-3.4 1.59-4.81v-.05Zm85.05-84.1-.41.49c.15.14.31.28.49.46a7 7 0 0 1 1.91 3.66L154 62a7.67 7.67 0 0 0-2-4c-.17-.17-.36-.34-.53-.48ZM132.21 81l-.35.53a16.72 16.72 0 0 0 4.65 2.13v.12l.13-.13.2-.69-.09.09a16 16 0 0 1-4.49-2Zm-69.05 70.2-1 3.09-.55 1.71.61.2.42-1.31c.37-1.18.74-2.34 1.1-3.47Zm56.89-56.5.19.6c1.82-.54 3.41-1 4.85-1.55l-.22-.6c-1.44.5-3 1-4.84 1.55Zm-79.78 80.73.15.59a39.82 39.82 0 0 0 4.88-1.59l-.24-.59a39.67 39.67 0 0 1-4.8 1.56ZM153.15 66.92l.09.09a23.34 23.34 0 0 1-1.07 3.38c-.18.45-.36.9-.56 1.33l.57.25c.18-.41.37-.85.57-1.35a23.41 23.41 0 0 0 1.1-3.48h.06l-.08-.08ZM59.72 160.7A26.37 26.37 0 0 1 57 165l.51.39a28.4 28.4 0 0 0 2.75-4.39Zm69.92-69.32.24.6c1.63-.67 3.2-1.37 4.65-2.12l-.29-.56c-1.42.72-2.93 1.4-4.61 2.09Zm-80.06 80.24.31.52a28.44 28.44 0 0 0 4.13-3l-.42-.47a27.31 27.31 0 0 1-4 3ZM195.32 29.81a14.06 14.06 0 0 0-2 2.48l.54.34a14.26 14.26 0 0 1 1.94-2.4 15 15 0 0 1 1.39-1.23l-.39-.5a14.85 14.85 0 0 0-1.48 1.31Zm-46 46.34a34.58 34.58 0 0 1-3 4l.45.4a31.13 31.13 0 0 0 3-4.12Zm-10.69 10.64.34.54a39.5 39.5 0 0 0 3.73-2.75 39.29 39.29 0 0 0 4 0v-.63c-1.34.07-2.64.1-3.85.05l-.15-.19h-.05l-.17.15h-.81l-.06.64h.15c-1 .78-2 1.54-3.13 2.26Zm62.65-60.74.22.58h.07a21.9 21.9 0 0 1 4.83-1.2l-.08-.64h-.05a22.52 22.52 0 0 0-5 1.25Zm-10.16 10.88c-.54 1.43-1 3-1.59 4.86l.61.18c.53-1.83 1-3.39 1.57-4.8Zm-2.91 9.77c-.42 1.6-.85 3.24-1.31 4.91l.62.17c.42-1.47.82-3 1.18-4.4l.15-.56Zm-36.49 36.61.11.63c1.64-.27 3.32-.62 5-1l-.16-.61c-1.64.4-3.31.75-5 1Zm33.67-26.87a48.27 48.27 0 0 1-1.9 4.67l.58.27a48.68 48.68 0 0 0 1.93-4.69Zm-23.84 24.44.21.61a31.43 31.43 0 0 0 4.39-1.81.61.61 0 0 0 .16-.09.57.57 0 0 0 .19-.1l-.31-.55-.35.18a30.13 30.13 0 0 1-4.29 1.76Zm19.24-15.53.24.24a38 38 0 0 1-3 4l.48.37a38 38 0 0 0 3-4.07v-.11Zm-10.3 11 .37.54a40 40 0 0 0 4-3.16l-.38-.44a40.09 40.09 0 0 1-4 3.11Z"/>
            </g>
            <g class="cls-1">
                <path class="cls-3" d="M251 33a.21.21 0 0 0 0-.19.33.33 0 0 0 0-.06.52.52 0 0 0-.1-.11l-.12-.11-.1-.07-.2-.15L250 32l-1-.72-1.59-1.16c-1.18-.85-2.36-1.71-3.55-2.55l-1.7-1.23-2-1.45-.7-.48-1.29-.9-.55-.37-1.05-.71-1.09-.73-.56-.37-1.31-.85-.56-.37-2.22-1.41-.56-.35-1.32-.82-1.78-1.09c-.62-.37-1.23-.75-1.84-1.13l-.77-.48-1.14-.73-.68-.44-1.17-.76-.31-.22-.75-.51-.88-.64a8.32 8.32 0 0 1-.74-.59l-.34-.3-.31-.29a.2.2 0 0 0 0-.13.27.27 0 0 0-.24-.22.25.25 0 0 0-.19.05.34.34 0 0 0-.1.16c-.08.4-.17.8-.27 1.19l-.07.24c-.05.18-.1.36-.16.54-.12.43-.23.87-.35 1.3s-.21.8-.3 1.21-.19.86-.29 1.29-.21.82-.3 1.23-.15.73-.23 1.09c0 .17-.08.34-.11.51a4.21 4.21 0 0 0-.09.49c-.34.3-.66.61-1 .93s-.57.64-.85 1l-.41.44c-.14.16-.29.32-.44.47l-.46.48-.43.46c-.21.23-.42.44-.64.66s-.48.47-.73.69a7.28 7.28 0 0 0-.8.77.2.2 0 0 0-.05.09.26.26 0 0 0-.11.16.26.26 0 0 0 0 .12v.07l.06.05h.16l.15.06.29.11.58.23.61.25a6.19 6.19 0 0 0 .6.23l.58.19.61.18.41.09c-.05.18-.11.35-.15.53s-.11.4-.16.61c-.11.42-.22.85-.32 1.28-.06.21-.1.42-.15.64s-.1.39-.14.58-.07.42-.11.62-.07.42-.11.63-.07.53-.09.8 0 .26 0 .39a1.09 1.09 0 0 1 0 .18v.14a.24.24 0 0 0 0 .08.27.27 0 0 0 .08.1.21.21 0 0 0 .17 0 .17.17 0 0 0 .13-.07c.35 0 .7.06 1 .07h16.21l1.51-.08c1.5-.09 3-.17 4.48-.23H249.05l1-.13h.1a1.38 1.38 0 0 0 .27.08.23.23 0 0 0 .18-.05H250.83a.24.24 0 0 0 .17-.2Zm-34.62-14.77c.09-.41.16-.83.26-1.24s.21-.88.3-1.32.17-.81.26-1.21c0-.21.09-.42.14-.63s.12-.44.17-.66c.11-.41.21-.81.33-1.21.06-.24.14-.48.19-.72l.12-.52.19.18.63.55c.19.16.39.31.59.46l.3.22.26.19 1 .72.77.51.83.55 1.16.75.63.41 1.85 1.15 1.92 1.19 2.15 1.34.61.39 1.32.85.54.35 1.12.73 1 .69.6.4 1.29.88.5.34 2.23 1.56c.57.39 1.13.8 1.7 1.2l3.31 2.4c1.27.92 2.53 1.83 3.78 2.76l.7.52-.15-.06-.76-.35-.41-.19-.39-.19c-.54-.25-1.1-.46-1.65-.68s-1.08-.43-1.63-.63l-.8-.3-.86-.34-1.6-.68-1.7-.71-.81-.31-.8-.3-1.57-.67-1.7-.66-.85-.33-.81-.31-1.59-.61c-.58-.22-1.17-.42-1.76-.63s-1.09-.39-1.64-.6l-1.65-.63-.79-.3-.8-.32-1.74-.64-.81-.31L221 21c-.28-.1-.56-.19-.84-.3l-.84-.32c-.26-.11-.53-.2-.79-.3l-.86-.32-.67-.26-.39-.15-.3-.1h-.15a2.46 2.46 0 0 1 .07-.29c.06-.32.11-.52.15-.73Zm-4.26 5.56c.3-.32.58-.65.87-1l.42-.46.41-.46.76-.89c.23-.28.49-.55.75-.81l.24-.23.32-.29.11-.05.05-.05h.14l.47.17.45.18.77.3.88.33.77.3.83.32c.28.1.56.19.83.3l.82.31.85.33 1.71.64.76.3.89.34.82.31.79.3.83.31.87.31c.57.2 1.14.41 1.7.63l.78.31.79.3 1.71.66 1.69.66.81.34.83.32.8.3.8.32 1.71.71c.54.22 1.07.46 1.62.67s1.11.42 1.66.62l1.65.64.79.32.21.09c-.29-.1-.59-.18-.89-.27l-.94-.26-.89-.24-1-.26-.6-.16c-.21-.06-.41-.13-.62-.18l-.61-.17-1.18-.32-.89-.26-.9-.27c-.64-.2-1.29-.39-1.94-.57l-1.84-.53-1.84-.49-.79-.2-.86-.22-.94-.28-.89-.25-2-.53-.83-.22-1-.25-1.81-.42-2-.45-1.82-.41-.92-.21-.93-.23c-.6-.15-1.2-.3-1.8-.43l-.68-.15-.19-.05a.24.24 0 0 0-.18-.14.28.28 0 0 0-.12 0H214.77a.17.17 0 0 0-.12.06.22.22 0 0 0 0 .13l-.23.09-.6.23-1.17.46-1.19.5h-.1c.24-.23.51-.49.76-.75Zm.78 2.63-.59-.18-.57-.21-.85-.33-.43-.15-.19-.07.28-.11.58-.22 1.18-.46 1.17-.46c.41-.16.81-.33 1.21-.52l.26-.14-.06.29c-.12.4-.25.8-.39 1.19-.07.19-.15.37-.21.56l-.12.34a3.57 3.57 0 0 0-.1.35l-.09.36v.1Zm35.67 6.43h-13.11l-1.35.07-2.25.11-1.18.07h-.91l-1.52.06H213.12v-.75c.06-.41.15-.82.23-1.24 0-.19.07-.39.11-.58s.11-.42.16-.63c.1-.42.21-.83.31-1.25s.2-.85.31-1.27a6.06 6.06 0 0 0 .16-.61c.05-.22.1-.44.16-.66l.06-.24c.13-.41.27-.81.39-1.21.06-.22.13-.44.19-.66s0-.23.08-.34v-.18l.44.11c.29.06.58.12.87.2.64.15 1.27.32 1.9.49s1.2.29 1.8.43 1.23.31 1.85.45l2 .46 1 .23.85.2.8.2.9.25 1.6.44.84.24.49.14.51.15.47.13.55.14.9.23c.5.12 1 .26 1.49.4l2.19.62.86.26 1 .31 1.83.55 1.62.45.91.26 1 .25.89.24 1 .26.71.2.45.17.43.15.88.33.44.15.44.15h-.43ZM217.23 12.25v-.06Z"/>
            </g>
            <g class="cls-1">
                <path class="cls-4" d="M395.15 180a.21.21 0 0 0 0 .26c3.45 4.54 7.1 8.94 10.65 13.4a31 31 0 0 0 4.82 5.46 19.3 19.3 0 0 0 3.08 1.88c.73.37 1.42.9 2.24.62a.22.22 0 0 0 .14-.24 15.61 15.61 0 0 0-1.44-5.49.11.11 0 0 0 0-.17c-2.36-3.37-5.2-6.47-7.85-9.62s-5.25-6.43-8.06-9.45a.22.22 0 0 0-.23-.07 2.42 2.42 0 0 0-3-.12c-1.18.86-.92 2.27-.54 3.48a.16.16 0 0 0 .19.06Zm11.18 13.58c-3.5-4.4-6.92-8.88-10.5-13.22a10.8 10.8 0 0 1 .81-1c4.84 6.07 9.44 12.39 14.47 18.31a.22.22 0 0 0 .14.17l.11.13a.85.85 0 0 0 0 .23 1.12 1.12 0 0 0-.89.12 35.59 35.59 0 0 1-4.14-4.76Zm-3.62-7.42a.26.26 0 0 0 .11-.07l.07.11a.18.18 0 0 0 0 .14Zm.52.65.38.39.18.24c.07.12.15.24.23.36Zm11 13.49a.18.18 0 0 0-.14 0 1.73 1.73 0 0 1 .18-.39.59.59 0 0 0-.07.37Zm.53-.69a.17.17 0 0 0-.14 0 .7.7 0 0 0-.25.23.12.12 0 0 0 0 .05 1.28 1.28 0 0 1 .53-.45Zm-.35-3.84.05.05a.13.13 0 0 0-.05.17c.33 1 .67 2.06.9 3.11a1.55 1.55 0 0 0-1.58 1.36c-.42-.22-.84-.45-1.25-.69a12.47 12.47 0 0 1-1.56-1.1h.14a.14.14 0 0 0 .13-.23.86.86 0 0 1 .44.1c.15.15.41 0 .27-.21a.74.74 0 0 1 0-1 .73.73 0 0 1 .76-.14 1.46 1.46 0 0 0 .07.19.18.18 0 0 0 .34-.05.11.11 0 0 0 0-.14v-.05a.12.12 0 0 0 .06-.2l-.11-.15a1.11 1.11 0 0 1 1.35-1.05.07.07 0 0 0 .01.01Zm-5-2.8h.05l.55.69-.47-.47Zm-2.92-6.63c2.56 3.06 5 6.29 7.74 9.19a1.35 1.35 0 0 0-1.48.89c-2.29-3.22-4.87-6.27-7.32-9.38a65.15 65.15 0 0 0-6.34-7.45 16.13 16.13 0 0 0-1.24-1.37c.32-.29.65-.58 1-.86 2.39 3.04 5.04 5.96 7.57 8.96Zm-8.11-9.7a.23.23 0 0 0 0 .21l.26.31a11.69 11.69 0 0 0-3.06 2.89l-.07-.09a.19.19 0 0 0-.11-.07c.93-1.08 1.9-2.12 2.88-3.16a.11.11 0 0 0 .03-.11Zm-2.61.08a2.42 2.42 0 0 1 2.37-.17 28.77 28.77 0 0 0-2.86 3c-.35-1.03-.54-2.15.42-2.85Z"/>
            </g>
            <path d="m147.18 161.06.25.14c1.84 1 3.74 1.92 5.65 2.8a23.75 23.75 0 0 0 2.82 1.14c.36.11 2.53.91 2.47-.3a2 2 0 0 0-.21-.72c-1.06-2.45-2-5-3-7.49-.31-.76-.54-1.59-1.24-1.9a3 3 0 0 0-1.54-.06c-2.3.3-4.58.69-6.9 1.21-.9.2-3.17.72-2.57 2a4.63 4.63 0 0 0 2 1.84c.73.45 1.49.91 2.27 1.34Z" style="stroke-miterlimit:10;stroke-width:2px;stroke:#fd0;fill:none;opacity:.32"/>
            <path d="M424.52 125.38a2.47 2.47 0 0 0-1-1.81c-2-1.29-3.64.54-5.12 1.54-1 .66-1.37.35-1.91-.4a4 4 0 0 0-2.09-1.53 2.61 2.61 0 0 0-1.07-.1c-3 .48-1.45 4.46-.52 6a13.15 13.15 0 0 0 2.63 3.3 5.28 5.28 0 0 0 4.84 1.31 6.4 6.4 0 0 0 3.77-4.37 9.25 9.25 0 0 0 .47-3.94Z" style="stroke:#ff7d00;stroke-miterlimit:10;stroke-width:2px;fill:none;opacity:.32"/>
            <g class="cls-1">
                <path class="cls-2" d="M380.65 37c.18.16.37.29.56.44s.5.39.74.6c.57.47 1.09 1 1.69 1.42.3.21.61.39.89.62s.59.5.89.75.61.45.92.67a10.64 10.64 0 0 1 .92.74c.61.5 1.2 1 1.78 1.53l.86.76c.29.25.6.46.91.68s.62.49.93.74l.89.75c.29.24.58.48.89.69a10.6 10.6 0 0 1 .92.7c.6.5 1.22 1 1.8 1.5.27.23.5.51.77.74l.9.75.46.38c.1.08.25-.07.14-.15a20.94 20.94 0 0 1-1.76-1.51 20.16 20.16 0 0 0-1.75-1.46l-.89-.74c-.3-.24-.64-.43-.94-.67l-1.79-1.49c-.3-.25-.63-.46-.94-.69s-.6-.49-.88-.74c-.58-.51-1.14-1-1.73-1.52l-.93-.77c-.3-.25-.62-.46-.93-.68-.61-.44-1.13-1-1.75-1.4a10.12 10.12 0 0 1-.92-.65l-.83-.73c-.48-.42-1-.81-1.47-1.19l-.25-.2c-.1-.09-.24.06-.14.15ZM363.28 58.53l1.9 1.59a6.05 6.05 0 0 1 .82.78 7.84 7.84 0 0 0 .83.8c.3.25.61.51.92.75a5.9 5.9 0 0 1 .8.7 12.88 12.88 0 0 0 1.7 1.6c.63.51 1.25 1 1.87 1.55a18.12 18.12 0 0 0 1.88 1.48 6.18 6.18 0 0 1 .85.68 3.79 3.79 0 0 0 .45.34c.17.1.32.22.49.33a5.21 5.21 0 0 0 .52.28 1 1 0 0 1 .24.14c.08.06.14.14.21.2a4.23 4.23 0 0 0 .47.25l.2.16.25.14a4.94 4.94 0 0 1 .44.36l.42.38a8.44 8.44 0 0 0 .88.7c.31.21.66.35 1 .58a2 2 0 0 0 .63.44.39.39 0 0 0 .33-.05c.11-.07 0-.25-.11-.18s-.46-.14-.6-.27a5.53 5.53 0 0 0-.89-.56 12.83 12.83 0 0 1-1.78-1.4 2.66 2.66 0 0 0-.45-.29l-.21-.17a1.15 1.15 0 0 0-.25-.12 1.61 1.61 0 0 1-.42-.32 2.2 2.2 0 0 0-.47-.27 3.46 3.46 0 0 1-.52-.32c-.15-.11-.31-.2-.47-.3s-.55-.49-.84-.72l-.37-.29c-.16-.1-.32-.22-.48-.34l-.91-.76c-.62-.52-1.24-1-1.87-1.55a18.71 18.71 0 0 1-1.7-1.51 9.45 9.45 0 0 0-.77-.78l-.87-.69a9 9 0 0 1-.87-.75c-.27-.26-.5-.56-.76-.81s-.61-.52-.92-.77l-.94-.78-.45-.38c-.11-.08-.25.07-.14.15Z"/>
                <path class="cls-2" d="M398.77 51.56c-.29.34-.59.66-.87 1a9.61 9.61 0 0 0-.78 1c-.5.74-1.12 1.4-1.65 2.12-.27.36-.53.73-.81 1.08a9.83 9.83 0 0 0-.74 1.08 9.79 9.79 0 0 1-.83 1.09l-.86 1-3.52 4.24-1.71 2.18c-.28.35-.58.7-.86 1-.15.18-.28.35-.43.52s-.29.28-.44.42a11.63 11.63 0 0 0-.85 1l-.88 1.06c-.27.33-.53.65-.79 1a2.45 2.45 0 0 1-.42.43l-.49.37c-.14.12-.21.31-.37.4h.12c.1-.1-.06-.24-.15-.14a.16.16 0 0 0 0 .25.12.12 0 0 0 .13 0c.15-.1.22-.26.35-.38a4.91 4.91 0 0 1 .51-.39 5.15 5.15 0 0 0 .76-.86L384.9 69c.14-.16.27-.33.42-.48s.3-.27.44-.42c.31-.32.58-.69.86-1l1.76-2.1 3.53-4.25c.58-.71 1.17-1.41 1.76-2.12a10.06 10.06 0 0 0 .71-1.08c.25-.39.56-.73.83-1.1s.53-.73.81-1.08l.85-1c.27-.35.5-.73.76-1.08s.56-.68.86-1l.43-.5c.08-.1-.07-.24-.15-.14ZM380.73 36.77c-1.18 1.42-2.33 2.87-3.53 4.28-.62.74-1.26 1.45-1.84 2.22-.15.19-.26.39-.39.59a5.09 5.09 0 0 1-.46.58l-.93 1.13c-.63.75-1.27 1.5-1.89 2.26a6.12 6.12 0 0 0-.45.56c-.14.19-.23.4-.37.59-.28.36-.62.68-.88 1.06-.14.2-.24.42-.38.62l-.44.55c-.3.37-.62.72-.94 1.08-.63.74-1.24 1.5-1.86 2.24l-1.88 2.26c-.13.16-.28.31-.4.48l-.15.22c-.17.23-.33.46-.51.69l-.16.21c-.09.1.06.24.15.14.31-.36.57-.76.84-1.14.11-.16.25-.3.38-.46l.48-.58.93-1.12 1.88-2.23c.6-.73 1.26-1.42 1.83-2.18.14-.19.24-.39.36-.58a4.18 4.18 0 0 1 .46-.58c.14-.17.3-.34.44-.52s.24-.42.38-.61c.28-.39.61-.75.92-1.11l.92-1.11.95-1.15c.16-.18.32-.37.47-.56a6.12 6.12 0 0 0 .45-.56c.14-.2.25-.42.4-.61s.29-.38.44-.56c.31-.38.62-.75.94-1.11 1.22-1.42 2.38-2.88 3.56-4.32l.43-.51c.09-.11-.06-.25-.15-.14ZM380.55 33.62c.48.42 1 .78 1.49 1.19.68.56 1.31 1.2 2 1.72.33.23.69.44 1 .69s.71.61 1.08.91.67.51 1 .76a14.91 14.91 0 0 1 1.17.93c.72.59 1.42 1.18 2.1 1.8a21.45 21.45 0 0 0 2.09 1.72c.77.54 1.48 1.18 2.2 1.78s1.47 1.09 2.18 1.68 1.64 1.27 2.37 2 1.52 1.37 2.32 2c.17.14.4-.11.23-.25a26.84 26.84 0 0 1-2.07-1.77 25.17 25.17 0 0 0-2.07-1.8l-1.05-.87c-.37-.3-.79-.53-1.15-.83l-2.13-1.77c-.34-.28-.71-.52-1.07-.78a12.28 12.28 0 0 1-1-.87c-.7-.62-1.39-1.25-2.11-1.85l-1.13-.92c-.34-.28-.72-.52-1.09-.78-.71-.52-1.32-1.16-2.05-1.65a14 14 0 0 1-1.24-.9c-.38-.32-.73-.66-1.11-1-.57-.49-1.19-.93-1.77-1.42-.16-.14-.4.11-.23.25ZM359.89 59.2l2.26 1.88c.7.57 1.24 1.29 1.93 1.86.37.31.74.62 1.12.91a6.49 6.49 0 0 1 1 .85 16.43 16.43 0 0 0 2.07 1.93c1.51 1.24 3 2.58 4.58 3.67.38.25.69.59 1.05.87.17.13.36.24.54.36a6.9 6.9 0 0 0 .56.47 4.07 4.07 0 0 1 .65.35 3.56 3.56 0 0 0 .48.39 5.89 5.89 0 0 1 1 .64 16.85 16.85 0 0 0 2.35 1.86 5.84 5.84 0 0 1 .68.41c.14.1.26.23.4.34a.7.7 0 0 0 .81.13c.19-.11 0-.4-.19-.29s-.6-.29-.79-.44-.71-.41-1.06-.64c-.75-.47-1.34-1.15-2-1.68-.16-.12-.34-.2-.5-.32a1.94 1.94 0 0 0-.43-.27 2 2 0 0 1-.52-.38 3 3 0 0 0-.55-.31 9.14 9.14 0 0 1-1.21-.77c-.36-.26-.67-.6-1-.87s-.73-.47-1.07-.75-.75-.61-1.12-.92c-.74-.62-1.48-1.24-2.23-1.85a21.24 21.24 0 0 1-2.06-1.85 8 8 0 0 0-.88-.87l-1-.82a12.1 12.1 0 0 1-1.14-1 9.73 9.73 0 0 0-1-1l-2.47-2c-.17-.14-.41.11-.24.25Z"/>
                <path class="cls-2" d="M402.09 50.84c-.66.8-1.36 1.54-1.95 2.41s-1.35 1.69-2 2.56-1.27 1.64-1.81 2.52a23.87 23.87 0 0 1-2 2.57L390.1 66l-2.1 2.49-1 1.26a12.9 12.9 0 0 1-1 1.08 15.37 15.37 0 0 0-1.11 1.31l-1.2 1.44a10.34 10.34 0 0 1-1 1.2c-.21.2-.46.35-.68.53s-.29.38-.49.51h.21V76c.13-.17-.12-.41-.26-.23a.24.24 0 0 0 0 .37.16.16 0 0 0 .21 0 1.54 1.54 0 0 0 .35-.37 3.63 3.63 0 0 1 .64-.52 4.87 4.87 0 0 0 .86-1c.68-.86 1.4-1.68 2.09-2.52a10.75 10.75 0 0 1 1-1 13.05 13.05 0 0 0 1-1.21c.72-.85 1.43-1.71 2.14-2.56 1.4-1.69 2.8-3.39 4.21-5.08l2.11-2.54a10.31 10.31 0 0 0 .83-1.24c.3-.48.68-.91 1-1.36s.7-1 1.07-1.43.75-.9 1.1-1.37.67-1 1-1.44.83-.93 1.22-1.4c.15-.17-.11-.41-.25-.24ZM380.65 33.25c-1.41 1.7-2.78 3.42-4.2 5.1-.73.87-1.5 1.72-2.18 2.62-.16.21-.29.44-.43.66s-.37.48-.56.72l-1.11 1.33c-.75.91-1.51 1.81-2.26 2.71-.18.22-.37.43-.53.65s-.3.53-.49.77c-.32.41-.69.78-1 1.2-.15.2-.24.44-.39.65s-.35.47-.54.69c-.37.46-.76.89-1.15 1.34-.74.86-1.46 1.75-2.19 2.62s-1.64 2-2.5 3c-.46.51-.79 1.12-1.24 1.64-.14.17.11.4.26.24.36-.43.67-.91 1-1.37s.7-.83 1-1.24l1.13-1.36 2.19-2.64c.73-.89 1.54-1.72 2.22-2.65.14-.19.24-.39.36-.59a5.13 5.13 0 0 1 .54-.69c.17-.2.36-.4.52-.62a7.65 7.65 0 0 0 .43-.67 14.22 14.22 0 0 1 1.16-1.43l1.11-1.33 1.2-1.34c.35-.43.74-.84 1.06-1.29.16-.24.29-.49.46-.72s.35-.46.54-.69c.36-.44.73-.87 1.1-1.31 1.63-1.89 3.18-3.84 4.77-5.76.14-.17-.11-.41-.25-.24ZM380.48 36.75a1.62 1.62 0 0 0-.37.37 6.85 6.85 0 0 1-.45.61c-.32.37-.53.8-.81 1.19A10.41 10.41 0 0 0 378 40a8.42 8.42 0 0 1-.86 1.13c-.3.37-.67.68-1 1.06l-.44.54a2.91 2.91 0 0 1-.52.47 7.08 7.08 0 0 0-.88 1c-.33.41-.67.81-1 1.21-.67.8-1.33 1.61-2 2.4s-1 1.52-1.6 2.22c-.29.35-.52.74-.81 1.09s-.64.76-1 1.14-.53.78-.84 1.15a9.46 9.46 0 0 0-.87 1.11 10.26 10.26 0 0 1-1 1.21c-.18.22-.31.47-.5.69l-.57.69c-.22.27-.45.52-.67.78s-.42.44-.32.66a.23.23 0 0 0 .35.13h.05a.24.24 0 0 0-.26-.41l.35.13c.05.1 0 .12.05 0a.58.58 0 0 0 .1-.12L364 58c.25-.27.48-.56.71-.84s.58-.79.89-1.16.62-.68.88-1c.13-.17.22-.36.35-.53l.46-.54c.31-.37.53-.8.84-1.16s.64-.72.94-1.09.54-.74.83-1.1.56-.71.82-1.07A5.19 5.19 0 0 1 371 49c.15-.18.28-.37.41-.56a12.93 12.93 0 0 1 .94-1.14l1-1.16c.63-.76 1.22-1.55 1.88-2.29.28-.31.63-.53.89-.86a9.89 9.89 0 0 1 .95-1.09 11.4 11.4 0 0 0 1-1.17c.16-.2.26-.43.42-.63s.34-.38.5-.58c.35-.41.57-.91.91-1.32a5.73 5.73 0 0 0 .48-.6 1.45 1.45 0 0 1 .19-.29 2.43 2.43 0 0 1 .25-.2c.24-.2-.12-.53-.35-.33Z"/>
                <path class="cls-2" d="m380.77 37-.36-.19a.67.67 0 0 0 .35.58 10.54 10.54 0 0 0 .95.7 20 20 0 0 1 1.94 1.49c.63.52 1.25 1 1.89 1.56a2.24 2.24 0 0 1 .34.35c.11.11.23.19.35.29s.21.23.32.34a6.07 6.07 0 0 0 .57.43c.67.48 1.29 1 1.93 1.58l.37.32c.15.11.31.18.45.3.32.25.54.63.84.91.55.49 1.09 1 1.67 1.45.3.23.62.44.92.68s.57.57.89.82a7.13 7.13 0 0 0 1.07.83 11.11 11.11 0 0 1 1.25.74c.37.28.72.6 1.07.9l.51.41c.09.08.32.2.35.32.06.3.52.15.46-.15s-.31-.37-.49-.52l-1-.83a9.52 9.52 0 0 0-.88-.69c-.38-.23-.77-.43-1.14-.66a8.75 8.75 0 0 1-1-.77c-.28-.23-.52-.51-.8-.75a22.4 22.4 0 0 1-1.8-1.44c-.26-.26-.53-.49-.8-.74a8.74 8.74 0 0 0-.83-.89c-.29-.21-.57-.41-.84-.63l-.93-.77c-.3-.25-.59-.51-.91-.74a4.62 4.62 0 0 1-.5-.37c-.14-.12-.25-.28-.39-.4a2.74 2.74 0 0 1-.36-.32 2.5 2.5 0 0 0-.33-.32c-.33-.26-.65-.53-1-.8-.69-.57-1.35-1.21-2.09-1.72-.34-.25-.69-.48-1-.72l-.54-.39c-.12-.1-.34-.2-.34-.37a.24.24 0 0 0-.37-.19c-.28.15 0 .56.25.41ZM363.31 58.12a.31.31 0 0 0 0 .51c.11.12.18.26.29.37s.31.25.45.39.42.49.67.7a4.87 4.87 0 0 1 .42.35c.12.14.21.29.34.42a20.77 20.77 0 0 0 1.83 1.52l2 1.62.9.75c.29.25.57.52.88.74s.59.44.89.67.68.41 1 .62l.93.59a4.35 4.35 0 0 1 .42.33c.19.16.4.28.6.43.66.46 1.34.85 2 1.35.33.26.68.5 1 .76s.7.6 1.06.89.76.55 1.12.86l.49.41c.17.14.37.24.55.38s.57-.16.33-.35-.59-.41-.87-.65-.59-.51-.91-.73c-.64-.44-1.19-1-1.83-1.44s-1.16-1-1.8-1.34c-.32-.19-.62-.39-.93-.59s-.61-.5-.95-.71l-.88-.57c-.33-.2-.69-.37-1-.59-.58-.43-1.13-.88-1.69-1.34-1.25-1-2.48-2.11-3.77-3.12a11.51 11.51 0 0 1-.93-.77c-.27-.26-.46-.55-.76-.79a3.59 3.59 0 0 1-.42-.37c-.11-.12-.2-.27-.32-.38a4.19 4.19 0 0 1-.45-.39c-.07-.08-.11-.18-.18-.26s-.1-.08-.13-.13v.18l-.1.15c.24-.19 0-.6-.25-.4Z"/>
                <path class="cls-2" d="m398.65 51.89-.05-.29a2.45 2.45 0 0 1-.38.47 5.24 5.24 0 0 0-.42.54c-.13.19-.22.38-.35.56a2.66 2.66 0 0 0-.33.56 4.56 4.56 0 0 1-.85 1.16c-.27.32-.56.62-.85.92a24.81 24.81 0 0 0-1.81 1.89c-.22.29-.42.59-.62.91a9.41 9.41 0 0 1-.89 1.11c-.14.17-.3.34-.43.53s-.23.37-.38.55c-.31.36-.62.73-.92 1.11a5.83 5.83 0 0 0-.82 1.1 7.27 7.27 0 0 1-.91 1.16l-.43.52c-.13.16-.22.34-.34.5s-.21.34-.33.5-.31.37-.46.56c-.32.36-.62.73-.93 1.1a4.74 4.74 0 0 1-.4.49c-.14.15-.29.27-.44.42-.33.36-.73.69-1 1.07s-.65.73-1 1.1-.71.85-1.06 1.28a7.91 7.91 0 0 1-.52.63 3.12 3.12 0 0 0-.45.44c-.19.24.15.57.35.33.2-.24-.15-.57-.35-.33l.35.33a2.16 2.16 0 0 1 .37-.37 4.73 4.73 0 0 0 .46-.53l1-1.16c.29-.35.61-.65.9-1 .15-.17.27-.36.42-.52s.33-.3.48-.47.61-.6.91-.9.6-.74.9-1.09.63-.71.9-1.09.41-.67.65-1l.93-1.12a5.34 5.34 0 0 0 .41-.53 4.46 4.46 0 0 1 .4-.66l1-1.13.45-.53c.15-.18.24-.37.37-.55a24.53 24.53 0 0 0 1.59-2.06 4.94 4.94 0 0 1 .78-1c.34-.31.63-.67 1-1a9.76 9.76 0 0 0 1-1c.33-.4.71-.79 1-1.22.13-.21.18-.45.31-.65a6.9 6.9 0 0 0 .42-.63 6.14 6.14 0 0 1 .49-.65 3.19 3.19 0 0 0 .43-.54.26.26 0 0 0-.05-.29c-.2-.23-.53.12-.33.36Z"/>
                <path class="cls-2" d="m380.88 37.12.05-.07-.4-.09a.9.9 0 0 0 .41.45c.27.2.53.42.78.63a4.88 4.88 0 0 0 .8.64 6.88 6.88 0 0 1 1 .78c.3.26.61.51.92.76s.54.54.84.79c.58.51 1.22.93 1.81 1.42l4 3.32a6.06 6.06 0 0 0 .79.63 2.9 2.9 0 0 1 .51.29 4.86 4.86 0 0 1 .41.38 5.93 5.93 0 0 0 .84.74c.33.27.64.55 1 .79.19.14.4.25.59.39a5.76 5.76 0 0 0 .51.35l1 .59a5 5 0 0 1 1.05.89 7 7 0 0 0 1 .92c.23.2.56-.15.32-.35a7.47 7.47 0 0 1-.82-.77 7.23 7.23 0 0 0-.88-.87 5.57 5.57 0 0 0-.85-.5c-.13-.06-.24-.17-.37-.24l-.56-.36c-.3-.23-.63-.4-.92-.63l-1-.83c-.28-.23-.5-.49-.76-.72s-.24-.21-.37-.3a6.22 6.22 0 0 1-.56-.32c-1.28-1.06-2.54-2.12-3.82-3.17l-.92-.77c-.3-.25-.61-.45-.92-.69s-.55-.43-.8-.67-.55-.54-.86-.79l-1.1-.91c-.17-.14-.33-.29-.5-.42s-.3-.16-.44-.26c-.34-.27-.65-.57-1-.84l-.32-.25c-.07-.06-.26-.15-.29-.25a.24.24 0 0 0-.4-.09l-.05.07c-.19.25.16.58.35.33Z"/>
                <path class="cls-2" d="M380.82 37c.2-.23-.15-.56-.35-.32a23.65 23.65 0 0 0-1.36 2.2c-.26.37-.52.72-.8 1.06s-.54.7-.85 1c-.14.14-.32.24-.46.36l-.49.43a11.15 11.15 0 0 0-.83 1 6 6 0 0 0-.38.47c-.14.17-.18.39-.31.56s-.24.26-.34.42l-.39.67c-.21.38-.46.72-.7 1.09a12 12 0 0 1-.86 1l-1.83 2.21-3.65 4.4c-.35.41-.69.83-1 1.25a10.07 10.07 0 0 1-.91 1.05 10 10 0 0 0-1 1.16l-1 1.23c-.2.23.15.56.35.32.6-.72 1.19-1.44 1.79-2.15.12-.14.26-.26.39-.39a4.83 4.83 0 0 0 .41-.49l.92-1.09c1.22-1.47 2.43-2.94 3.65-4.4l1.79-2.16.93-1.12c.27-.33.51-.67.78-1a11.75 11.75 0 0 0 .69-1.13 3.71 3.71 0 0 1 .36-.52 2.5 2.5 0 0 0 .3-.53 7.5 7.5 0 0 1 .83-1 6.5 6.5 0 0 1 .87-.87 4.52 4.52 0 0 0 .53-.43c.17-.19.33-.39.49-.58a14.18 14.18 0 0 0 .92-1.13 13.06 13.06 0 0 0 .73-1.19 8.48 8.48 0 0 1 .84-1.35l-.35-.32c-.2.24.15.57.35.33Z"/>
                <path class="cls-2" d="M367.55 53.79c.13.09.32 0 .46 0a3.5 3.5 0 0 1 .64-.08 5.5 5.5 0 0 1 .69.11l.72.09a10.75 10.75 0 0 0 1.39 0c.47 0 .95-.06 1.42-.12.22 0 .44-.07.66-.1a5.19 5.19 0 0 1 .68 0 1.69 1.69 0 0 1 .32 0h.35a3.74 3.74 0 0 1 .67 0 7 7 0 0 0 1.38.17 1.71 1.71 0 0 1 .32 0h.35a5.38 5.38 0 0 1 .69.07c.23 0 .46.09.68.15s.48.12.71.21a4.41 4.41 0 0 1 1.18.66 1.2 1.2 0 0 1 .37.44c.06.17.1.35.15.52s.17.4.25.6l.27.68c.17.43.33.86.48 1.3a10 10 0 0 0 .56 1.3 3.23 3.23 0 0 1 .27.64c.07.2.12.41.19.61a4.86 4.86 0 0 0 .25.63 4.92 4.92 0 0 1 .3.61 6.32 6.32 0 0 1 .18.62c0 .21.1.41.15.62s.06.46.1.69.1.43.16.64a9.27 9.27 0 0 0 .49 1.23c.19.4.46.75.64 1.17a1.54 1.54 0 0 1 .05.31c0 .09.09.17.1.26s.25.14.23 0a1.14 1.14 0 0 0-.09-.26v-.3a3.41 3.41 0 0 0-.29-.61c-.11-.19-.25-.38-.35-.58s-.19-.41-.28-.62a6.24 6.24 0 0 1-.39-1.32c0-.22-.06-.45-.11-.66s-.1-.43-.14-.64a4.31 4.31 0 0 0-.19-.61 3.1 3.1 0 0 0-.28-.58 8.74 8.74 0 0 1-.46-1.3 11.74 11.74 0 0 0-.59-1.3c-.2-.43-.32-.88-.48-1.32s-.35-.9-.53-1.34c-.08-.2-.18-.39-.24-.59a4.32 4.32 0 0 0-.16-.51 1.18 1.18 0 0 0-.34-.43 3.58 3.58 0 0 0-.56-.4 5.72 5.72 0 0 0-1.29-.52 7.27 7.27 0 0 0-1.39-.27h-.33c-.12 0-.24-.05-.36-.05a6.21 6.21 0 0 1-1.4-.12 2.1 2.1 0 0 0-.66 0h-1.33c-.22 0-.47.07-.7.11s-.47.05-.7.07c-.48 0-1 .09-1.44.08a10 10 0 0 1-1.45-.11 3.46 3.46 0 0 0-1.32-.08l-.25.05h-.24c-.06 0-.22.12-.11.2ZM394 52.85a9.61 9.61 0 0 1-2-1.82l-.48-.47a5.89 5.89 0 0 0-.55-.44 2.47 2.47 0 0 0-.66-.3l-.34-.1-.32-.08a7.52 7.52 0 0 1-1.3-.72c-.21-.13-.39-.28-.59-.43a3.3 3.3 0 0 0-.63-.38l-.65-.3-.32-.14a1.47 1.47 0 0 0-.3-.08 1 1 0 0 0-.49.15 2.09 2.09 0 0 0-.45.33 1.44 1.44 0 0 0-.22.27 1 1 0 0 0-.11.33 2 2 0 0 0 0 .6 1.76 1.76 0 0 0 .25.58 6.65 6.65 0 0 0 .36.56 5.87 5.87 0 0 0 .95 1 6.71 6.71 0 0 0 1.17.87c.21.11.45.19.67.3a3.9 3.9 0 0 1 .62.37c.2.14.38.29.57.44s.37.3.54.46.32.36.47.54l.46.54a6 6 0 0 0 .5.51 2.94 2.94 0 0 0 .6.39 4.12 4.12 0 0 0 .69.27 1.45 1.45 0 0 0 .55.09 1.53 1.53 0 0 0 1-.58 2.42 2.42 0 0 0 .38-.51 1.14 1.14 0 0 0 .1-.63v-.34a1.23 1.23 0 0 0 0-.27 1.19 1.19 0 0 0-.28-.52c-.11-.14-.3-.27-.3-.47s-.23-.13-.23 0a.78.78 0 0 0 .27.51 1.18 1.18 0 0 1 .3.47 2.12 2.12 0 0 1 0 .56.92.92 0 0 1-.07.59 2.35 2.35 0 0 1-.36.47 1.69 1.69 0 0 1-.49.39 1.3 1.3 0 0 1-1 0 3.2 3.2 0 0 1-1.17-.71 12.52 12.52 0 0 1-.9-1 4.48 4.48 0 0 0-.47-.5c-.18-.16-.36-.3-.54-.45a5.61 5.61 0 0 0-1.16-.78c-.22-.09-.44-.17-.65-.28a4.52 4.52 0 0 1-.58-.39l-.55-.46c-.17-.14-.33-.28-.49-.44a5.48 5.48 0 0 1-.76-1 1.45 1.45 0 0 1-.23-.54 1.85 1.85 0 0 1 .06-.57.91.91 0 0 1 .37-.51 2.5 2.5 0 0 1 .41-.25.59.59 0 0 1 .22 0 .72.72 0 0 1 .25.07 5.41 5.41 0 0 1 .61.27c.21.1.43.19.64.31a4.54 4.54 0 0 1 .56.42c.19.14.4.26.6.39s.41.25.63.36a2.39 2.39 0 0 0 .64.26c.21.06.43.12.64.2l.32.13a1.73 1.73 0 0 1 .28.19l.5.44c.63.59 1.15 1.29 1.82 1.83a6.18 6.18 0 0 0 .53.36.11.11 0 0 0 .1-.2ZM379 48.1a3.52 3.52 0 0 0-.45-.64 3.61 3.61 0 0 0-.69-.46 1.39 1.39 0 0 0-.35-.16h-.55a.75.75 0 0 0-.21 0 2.7 2.7 0 0 0-.39.08 1 1 0 0 0-.65.39.77.77 0 0 0 .05.66 1.48 1.48 0 0 0 .21.3c.09.11.15.24.23.35a2.75 2.75 0 0 0 .56.57l.35.29a2.39 2.39 0 0 0 .35.28 1.56 1.56 0 0 1 .34.23c.1.1.18.22.27.32a5.3 5.3 0 0 0 .6.56c.08.08.15.18.24.26a1.76 1.76 0 0 0 .3.24 1.83 1.83 0 0 0 .3.18c.11 0 .22.12.33.16a1 1 0 0 0 .72-.06l.34-.16c.1-.06.2-.1.3-.15a.37.37 0 0 0 .22-.24.79.79 0 0 0-.07-.37 1.4 1.4 0 0 0-.13-.36A2.26 2.26 0 0 0 381 50a1.19 1.19 0 0 1-.19-.35 2.37 2.37 0 0 0-.19-.35 2.81 2.81 0 0 0-.52-.62 3.92 3.92 0 0 0-.32-.25c-.11-.1-.22-.2-.34-.29a.53.53 0 0 0-.17-.08.43.43 0 0 1-.16-.05c-.12-.08-.23.13-.1.2s.21 0 .3.11.2.18.3.26a3.93 3.93 0 0 1 .57.5 2.79 2.79 0 0 1 .4.61 3.31 3.31 0 0 0 .15.33c.07.11.16.19.23.3a.85.85 0 0 1 .15.3 1.91 1.91 0 0 1 .1.34c0 .08-.08.11-.15.14l-.29.14a1.57 1.57 0 0 1-.61.23.57.57 0 0 1-.31-.07 1.59 1.59 0 0 1-.29-.15 2.08 2.08 0 0 1-.53-.39c-.08-.09-.15-.18-.23-.26l-.29-.24a1.6 1.6 0 0 1-.26-.26 3.61 3.61 0 0 0-.25-.3 1.43 1.43 0 0 0-.31-.24 1.94 1.94 0 0 1-.33-.23c-.21-.17-.42-.34-.62-.52a2.56 2.56 0 0 1-.46-.57A2.77 2.77 0 0 0 376 48a.87.87 0 0 1-.14-.29.49.49 0 0 1 0-.27.37.37 0 0 1 .2-.19 2.18 2.18 0 0 1 .69-.2h.68a1 1 0 0 1 .31.15l.34.2a1.23 1.23 0 0 1 .29.22 1.14 1.14 0 0 1 .21.28c.07.1.13.21.19.3s.28 0 .19-.12Z"/>
                <path class="cls-2" d="M367.35 54c.1.1.29 0 .41 0a3.41 3.41 0 0 1 .71-.06 1 1 0 0 1 .34.08.75.75 0 0 0 .33.06h.36l.38.06a1.78 1.78 0 0 0 .65 0 6.93 6.93 0 0 1 1.4-.17h.71a5.61 5.61 0 0 1 .71 0l.71.07a13.86 13.86 0 0 0 1.44 0c.24 0 .48 0 .72-.06s.5 0 .74 0h.7a6.36 6.36 0 0 1 .75.08c.22.05.45.07.67.13a2.8 2.8 0 0 0 .31.09 1.38 1.38 0 0 1 .34.12 2.43 2.43 0 0 1 .3.24 2 2 0 0 1 .26.24.54.54 0 0 1 .09.25.81.81 0 0 0 .13.3 5.5 5.5 0 0 0 .38.56 1.28 1.28 0 0 1 .17.3c0 .11.06.22.11.33a4.59 4.59 0 0 1 .28.64 1.76 1.76 0 0 0 .1.3 1.32 1.32 0 0 0 .16.25 1.5 1.5 0 0 1 .29.56 4.84 4.84 0 0 0 .13.64c.08.21.12.43.2.65a5.24 5.24 0 0 0 .29.64l.33.61c.1.2.17.42.26.63s.21.41.3.62.18.39.25.6.11.46.19.68a3.29 3.29 0 0 0 .34.54c.12.18.06.39.11.58s.06.42.13.63.18.41.24.63.15.41.22.62.07.23.1.34 0 .2 0 .29a.52.52 0 0 0 .17.22c.07.08.17.15.25.23a.7.7 0 0 1 .15.23.41.41 0 0 0 .05.09c-.09.12.08.27.17.16a.21.21 0 0 0 0-.2l-.06-.08a.61.61 0 0 1-.05-.12c-.08-.2-.29-.31-.43-.46s-.08-.07-.1-.11a.25.25 0 0 1 0-.12 1.3 1.3 0 0 0-.07-.33c-.06-.23-.16-.44-.23-.67s-.14-.41-.23-.62a2 2 0 0 1-.11-.32c0-.12 0-.24-.05-.36a1.17 1.17 0 0 1 0-.27 1.19 1.19 0 0 0-.05-.32 2.85 2.85 0 0 0-.33-.52 2.61 2.61 0 0 1-.21-.67 3.35 3.35 0 0 0-.25-.62c0-.1-.08-.21-.12-.31s-.11-.2-.16-.31-.18-.42-.27-.63c-.19-.45-.46-.85-.64-1.3-.09-.21-.12-.44-.21-.65a4.69 4.69 0 0 1-.14-.65 1.53 1.53 0 0 0-.25-.57c-.06-.09-.13-.16-.18-.24a1 1 0 0 1-.12-.32 4.59 4.59 0 0 0-.28-.64 4.51 4.51 0 0 0-.26-.64c-.12-.19-.27-.36-.39-.56a1.05 1.05 0 0 1-.15-.3.65.65 0 0 0-.08-.27 2 2 0 0 0-.49-.48 1.51 1.51 0 0 0-.26-.18 1.39 1.39 0 0 0-.33-.1c-.24-.06-.46-.13-.7-.17s-.46-.09-.69-.11h-.75a5.61 5.61 0 0 0-.71 0c-.49 0-1 .1-1.46.1l-.72-.05c-.26 0-.51 0-.76-.06a8.54 8.54 0 0 0-1.43 0h-.73a5.4 5.4 0 0 0-.69.08 2.38 2.38 0 0 1-.7.11c-.23 0-.47-.07-.7-.07h-.35a2.15 2.15 0 0 1-.36-.11 1.78 1.78 0 0 0-.69 0H367.46s-.26.07-.15.17ZM375.74 47.78a.92.92 0 0 0 .09.28c.05.09.08.19.13.28a1.5 1.5 0 0 0 .19.25l.21.21a5.27 5.27 0 0 0 .51.43l.28.24a1.41 1.41 0 0 0 .29.18 1.22 1.22 0 0 1 .29.17l.27.18.57.47a2.19 2.19 0 0 0 .55.41 3.58 3.58 0 0 0 .63.21.86.86 0 0 0 .17 0h.51c.11 0 .18-.1.26-.16a1.44 1.44 0 0 1 .33-.16.12.12 0 0 0 0-.16.11.11 0 0 0-.15 0 2 2 0 0 0-.26.11l-.11.08a.15.15 0 0 0-.06.05H379.85a3.89 3.89 0 0 1-.58-.18 1.08 1.08 0 0 1-.24-.12l-.27-.23-.54-.44a3.49 3.49 0 0 0-.53-.42l-.28-.14a1.31 1.31 0 0 1-.27-.21c-.16-.13-.34-.26-.5-.4l-.25-.24-.21-.23a.92.92 0 0 1-.14-.28.9.9 0 0 1-.11-.27c0-.15-.25-.14-.23 0ZM393.61 55.53a1.78 1.78 0 0 1-.5.19 3.12 3.12 0 0 1-.61 0 1.2 1.2 0 0 1-.33 0l-.29-.14a5.11 5.11 0 0 0-.64-.27.75.75 0 0 1-.13-.06l-.13-.1-.26-.22a4.27 4.27 0 0 1-.47-.48 4.81 4.81 0 0 0-.42-.48c-.16-.15-.34-.29-.51-.43s-.34-.31-.52-.44a2.9 2.9 0 0 0-.29-.19 2.69 2.69 0 0 1-.27-.2l-.28-.23a1.33 1.33 0 0 0-.26-.21 2.61 2.61 0 0 1-.27-.19 1.24 1.24 0 0 0-.3-.16 3.58 3.58 0 0 1-.59-.36l-.26-.21a.73.73 0 0 1-.08-.09 1.36 1.36 0 0 0-.12-.12 1.52 1.52 0 0 1-.22-.22.39.39 0 0 1-.08-.1s0-.1-.08-.14-.14-.37-.24-.55a1.33 1.33 0 0 1-.1-.28 1.33 1.33 0 0 0-.1-.28.92.92 0 0 1-.09-.28 1.41 1.41 0 0 1 0-.29 2.11 2.11 0 0 1 .06-.61.84.84 0 0 1 .18-.24.49.49 0 0 1 .23-.15l.29-.06c.14 0 .07-.25-.07-.22a1.14 1.14 0 0 0-.57.22 2.65 2.65 0 0 0-.21.26.57.57 0 0 0-.1.31c0 .21 0 .43-.05.64a1 1 0 0 0 0 .3 2.85 2.85 0 0 0 .12.31c0 .1.06.2.09.3a2.44 2.44 0 0 0 .14.28l.11.3c0 .09.09.19.14.28l.09.12.12.14c.07.07.16.13.23.21a.48.48 0 0 1 .09.11l.14.11.28.21a3.28 3.28 0 0 0 .31.2l.33.16a1.87 1.87 0 0 1 .29.2l.28.19a5.83 5.83 0 0 0 .55.46l.31.2a1.44 1.44 0 0 1 .27.22l.54.45a3.18 3.18 0 0 1 .49.48c.15.18.3.35.46.52s.35.31.53.46a2.81 2.81 0 0 0 .63.3l.33.15a2 2 0 0 0 .3.14 2.09 2.09 0 0 0 .35 0 1.74 1.74 0 0 0 .32 0 2.12 2.12 0 0 0 .62-.11 1.92 1.92 0 0 1 .25-.12.12.12 0 0 0 .07-.15.1.1 0 0 0-.14-.07Z"/>
            </g>
            <path class="cls-7" d="M187.67 186.88a11.38 11.38 0 0 1 3.2 1.1c.93.4 2.27 1 2.39 1.82a4.58 4.58 0 0 1-.4 1.38c-.12.24-.37.77-.57 1.14s-.85 1.66-1.54 1.78c-.89.16-1.58-.77-2.35-1.09-.17-.08-.41 0-.57-.17-.33-.12-.61-.48-.85-.52a5.77 5.77 0 0 0-2.23 0 3.21 3.21 0 0 0-1.1.69 1.7 1.7 0 0 0-.28 2.07c0 .08.08.36.12.44s.32 0 .44.12a8.66 8.66 0 0 0 1.38.86c.25.12.37.4.57.52s.29.08.41.16.2.25.28.29c.49.28 1 .45 1.38.69a39 39 0 0 1 3.21 2.35 8.5 8.5 0 0 1 2.39 2.39 7.58 7.58 0 0 1 .53 1.55 7.67 7.67 0 0 1 .56 1.5 11.43 11.43 0 0 1 0 3.2 6.86 6.86 0 0 1-.28.85 8.62 8.62 0 0 1-1.38 2.92c-.08.13-.2.17-.28.29a4.06 4.06 0 0 1-.86.85 12.22 12.22 0 0 1-2.63 1.26c-.25.08-.65.36-.81.4-.61.13-1.5 0-2.11.13-.33.08-.57.24-.85.28a4.48 4.48 0 0 1-1.79 0c-.08 0-.08-.24-.16-.28-.37-.17-1.38 0-1.79-.13-.12 0-.32-.2-.56-.28a16.5 16.5 0 0 1-2.92-1.38c-.17-.12-.17 0-.29-.16s-1.09-.61-1.54-1c0 0-.08-.24-.12-.28-.2-.08-.73-.24-.85-.53-.33-.73-.77-1.09-.29-2 .08-.09.21-.17.29-.25s0-.24 0-.28.24 0 .28 0 0-.33.12-.45a7.92 7.92 0 0 0 .69-.81c.57-.73 1.42-1.91 2.23-2s.94.37 1.71 1a10.54 10.54 0 0 0 1.5 1.09 9.87 9.87 0 0 0 1.82.85 3.61 3.61 0 0 0 3.61-.4c.41-.37.81-.69.85-1.26.17-1.66-2-3.33-3.2-4.06-.41-.24-.85-.44-1.26-.69a3.12 3.12 0 0 0-.57-.4c-.16-.12-.48-.16-.68-.28a2.5 2.5 0 0 0-.57-.45 3.63 3.63 0 0 1-1-.53c0-.08 0-.24-.12-.28s-.32 0-.4-.16-.08-.25-.17-.29-.52-.12-.69-.24a2.47 2.47 0 0 0-.28-.29 6.38 6.38 0 0 1-2.64-4c-.08-.33-.08-.73-.16-1.1a6.14 6.14 0 0 1 .29-3 7.62 7.62 0 0 1 2.67-3.33 13.66 13.66 0 0 1 1.79-.85 16.11 16.11 0 0 1 1.82-.81 6.61 6.61 0 0 1 1.54 0 12.84 12.84 0 0 1 3.07.06ZM206.65 183a22.86 22.86 0 0 1 0 3.49c0 4.13-.24 8.43-.28 11.84 0 .53 0 1.26.12 1.38s-.12.28.85-.53 2.44-2.23 3.49-3.08c.37-.28.69-.49 1.1-.85.77-.61 2-1.67 3.2-2.48a13.52 13.52 0 0 1 1.7-1c.21-.12.41-.53.69-.57a2.68 2.68 0 0 1 1.26 0c.29.08.2.08.41.41s.32.57.57 1a14.76 14.76 0 0 1 1 3.08 2.08 2.08 0 0 1 .12 1 1.5 1.5 0 0 1-.53.81c-.08.08-.2.08-.28.16-.24.2-.57.61-.85.81-.12.12-.29 0-.41.16s-.77.65-1.13 1c-.57.53-1.71 1.17-2.52 1.82-1 .86-2.11 1.46-1.22 2.36a1.76 1.76 0 0 0 .25.28 11.23 11.23 0 0 1 1 .69c.24.16.57.28.73.41s.24.52.41.73.61.6 1 1c.16.16.45.24.57.41s0 .28.12.4.24.08.28.16.17.49.29.69c.24.37.69.61 1 1s.57.73.85 1.09a1.53 1.53 0 0 0 .13.45s.24.08.28.12.12.49.28.69.21.16.29.28c.24.41 1.21 1.54 1.09 2.23-.12 1.06-.4.57-1 1-.33.24-.65.53-1.1.85-.2.12-.52.12-.73.28s-.2.41-.4.53a3.56 3.56 0 0 1-.69.28c-.37.21-.41.33-.69.29-.57-.08-1.42-1.66-2.23-2.64a24.11 24.11 0 0 1-1.67-1.95 18.29 18.29 0 0 0-1.7-1.94c-.16-.2-.53-.37-.69-.57s0-.32-.12-.41-.37-.2-.57-.44a10.69 10.69 0 0 0-1.13-.81c-.45-.37-.94-1-1.38-1-.61 0-2 1.54-2.23 2.36a17.23 17.23 0 0 0-.13 2.63 6.6 6.6 0 0 0 0 1.26v.85a4.53 4.53 0 0 1-.44 1.38 8.31 8.31 0 0 1-1.67.29 21.42 21.42 0 0 1-2.51-.13 12.85 12.85 0 0 1-2.35-.16c-.45-.4 0-3.85 0-4.87 0-1.21-.08-2.47 0-3.32 0-.37.2-.73.28-1.42.2-2 0-4.3.12-6.53 0-.53.29-1.18.29-1.71 0-.77-.17-1.46-.13-1.94s.21-.82.25-1.38c.12-1 .12-2.11.16-3.33.08-2.07.08-4.42.28-6.69a6.2 6.2 0 0 1 .13-1.26 5.81 5.81 0 0 1 .44-1.26 2.92 2.92 0 0 1 1.5 0c.6-.18 3.81-.3 4.25.32ZM234.64 194.06a5.65 5.65 0 0 1 .45 1.54v2.23c0 1 .24 2 .24 2.64 0 1.26-.2 2.72-.24 4.3-.08 1.42 0 3 0 4.46 0 .85-.24 2.19-.28 3.37a4.1 4.1 0 0 0-.17.81c0 .33.17.53.17.85s-.25.45-.29.69c-.2 1.18.17.81-1 1a4.55 4.55 0 0 1-1 .16c-.61 0-1.18-.29-1.83-.29a13.71 13.71 0 0 1-1.54.13 7.11 7.11 0 0 1-1.54-.13c-.61-.6.24-4.78.28-5.72s0-1.42 0-2.1c0-.37.25-.69.29-1.1.24-1.7 0-4 .16-6 0-.9.2-2.11.24-3.33s0-2.88.29-3.37a2.27 2.27 0 0 1 1.13-.52c.55-.19 4-.39 4.64.38Z"/>
            <path d="M233.55 182.78c.53.33.49.13.81.82.12.2 0 .16.16.28a4.36 4.36 0 0 1 .57 2.8c0 .2-.2.36-.28.69s-.08.53-.17.69-.28.24-.4.4-.16.49-.28.57a3.8 3.8 0 0 1-1 .41c-.53.24-.85.61-1.54.44-.12 0-.2-.28-.28-.28-.53-.12-.81 0-1.26-.16a7.93 7.93 0 0 1-1.79-1.5 4.5 4.5 0 0 1-.56-2.11c0-.49.28-.81.56-1.38.41-.89.37-1.1 1.26-1.67.53-.4.65-.32 1.66-.44a3.33 3.33 0 0 1 2.54.44Z" style="fill:#add600"/>
            <path class="cls-7" d="M247.22 180s.29 1.09.41 1.78c.32 1.79.4 3.57.56 5.6.13 1.86.21 3.49.25 4.87v2.8c0 1.29.24 2.67.28 4s.12 2.84.16 4.22c.09 2.92 0 5.84.13 8.48.08 1 .65 3.28.16 3.89-.29.33-1.95.21-3 .45-.12 0-.08.2-.25.24a6.35 6.35 0 0 1-2.39-.12 8.49 8.49 0 0 1-1.78-.28 7.25 7.25 0 0 1-.17-2.24c.08-8.19.21-17.07-.12-24.78 0-1-.08-2.72-.16-4.46-.08-1.54-.53-3.49-.12-4.06.24-.36.65 0 1.26-.28l.12-.29c.32 0 .52.17.85.17a7 7 0 0 0 1-.17c.26 0 2.24-.36 2.81.18Zm12.29 2c.37.29.49 2.36.53 4.18.16 4.18.61 10.06.73 14.08.08 2.55.89 14.28-1.26 15.82-.12.08-1-.08-1.54 0 0 0-.12.24-.16.28a11.58 11.58 0 0 1-2.64 0 9.77 9.77 0 0 0-1.26-.28c-.2-.25 0-1.5 0-2 0-.77.13.28.17-.32s-.17-1.14-.17-1.71c0-.89.25-1.78.29-2.63 0-5.2.16-.94.16-5.44 0-5.35-.16-10.87-.16-16.75 0-2-.37-4.34 0-5.16 0-.08.32-.2.4-.28s4.14-.43 4.91.21ZM287.75 182.7c.24 0 .52.21.85.29.49.12.69 0 .81.12a8.3 8.3 0 0 1 .28 1 26.43 26.43 0 0 1-.4 3.09c-.16 2.59 0 4.9-.16 7.54-.08 2.31 0 4.71 0 6.69v.82a26.25 26.25 0 0 1-.25 3.36c-.16 2.19.33 5.88.12 8.64 0 .57 0 .81-.28 1.1-.12.12 0 .2-.12.28a14.19 14.19 0 0 1-2.92 0c-.24 0-.85-.2-1.42-.28-1.1-.12-1.38.12-1.54-.69 0 0-.16-.12-.12-.29a1.14 1.14 0 0 0 0-.69c-.09-.4-.17-.73-.69-.4-.08 0-.08.24-.17.28s-.2-.08-.28 0-.08.25-.12.25a13.71 13.71 0 0 0-1.54.73c-.33.16-.61.52-.69.52s-.65 0-1 .17a5.18 5.18 0 0 0-.69.28c-1.17.16-3.61.2-4.17-.16-.13 0-.25-.25-.29-.29-.24-.08-.61 0-.85-.12a3.89 3.89 0 0 0-.69-.4c-.24-.13-.57-.21-.69-.29-.28-.16-.69-.73-1.13-1-.05 0-.33-.08-.41-.16s-.12-.41-.28-.57a16.15 16.15 0 0 1-1.26-1.22c-.12-.24-.25-.65-.41-1 0-.08-.24-.33-.28-.41s0-.36 0-.57-.33-.52-.41-.81-.12-.48-.16-.57a18.3 18.3 0 0 1-.41-5 20.4 20.4 0 0 1 1-4.3 3.66 3.66 0 0 0 .28-.56c.08-.29 0-.53.12-.69a9.22 9.22 0 0 1 1.14-1.38 6 6 0 0 1 1.66-1.54 16.07 16.07 0 0 1 1.38-1c.16-.08.49-.08.73-.16a12.91 12.91 0 0 1 1.79-.69 17.21 17.21 0 0 1 6.57.57c.36.12 1 .61 1.54.81.08 0 .32.28.53.16a2.77 2.77 0 0 0 .44-1.82c0-.25-.16-.41-.16-.57s.24-.37.29-.53c.12-.85 0-2.07.16-2.92a2.8 2.8 0 0 1 .12-1.13c.16-.37-.08-.53 0-1.1 0-.32.2-.89.28-1.42a10.4 10.4 0 0 1 .29-1.54c.24-.24 1.34-.2 1.78-.24a4.21 4.21 0 0 1 1.83-.19ZM272.7 207a3.29 3.29 0 0 0 .4.69 4.22 4.22 0 0 0 1 .85 9.13 9.13 0 0 0 1 .69 5.37 5.37 0 0 0 3.94-.69 8.85 8.85 0 0 0 2.06-1.25c.61-.53 1.38-1.06 1.55-1.83a11.14 11.14 0 0 0-.17-1.54c0-1.5.65-2.68-.24-3.45a6.94 6.94 0 0 0-2.23-1.14c-.41-.12-.89-.28-1.26-.4s-.36-.24-.57-.29a9.93 9.93 0 0 0-2.51-.16 4.42 4.42 0 0 0-2.52 1.71c-.7 1.34-1.15 5.07-.45 6.81ZM311.8 190.82a7.64 7.64 0 0 1-.28 2.11c-.08.73-.32 1.38-.41 1.94a5.63 5.63 0 0 1 0 1.26c0 .28-.08.32-.12.53l-.16.57c-.53.36-4-.13-4.75 0-.2 0-.4.2-.68.28a11.87 11.87 0 0 0-1.83.69 2.71 2.71 0 0 0-1.79 2.92c0 .12.13.24.13.45s-.17.2-.13.4c.13 1.75.53 3.9.69 5.84a23.09 23.09 0 0 0 .29 3.65c0 .09.12.13.12.13 0 .2-.28.16-.28.56 0 .57.4 2.84-.13 3.33-.36.37-2.06.32-3.08.41-.61.08-2.39.36-2.92-.13-.12-.12 0-.52-.12-1 0-.24-.28-.57-.28-.69 0-.65.28-.69.28-1s-.24-.49-.28-.69c-.09-.57-.13-1.1-.17-1.71 0-.2.17-.44.17-.69-.05-.48-.25-1-.29-1.54s0-1.05 0-1.66c-.08-.85-.36-1.7-.4-2.64-.05-.32.16-.57.12-.85-.08-.77-.37-1.38-.41-1.78-.12-1.18-.12-2.28-.28-3.37a7.85 7.85 0 0 0 0-1c0-.09-.25-.13-.29-.29s0-.28 0-.4c-.16-1.22-.24-2.44-.4-3.49 0-.25-.57-1.26-.29-1.83.21-.36 1.38-.4 1.95-.53.37-.12.69-.2 1-.28a3.25 3.25 0 0 0 .57-.16 5.23 5.23 0 0 1 2.52 0c.44.32.32 2 .81 2.23.24.12.65-.12 1.13-.41.13-.08.25-.32.41-.4s.37 0 .57-.16.24-.33.4-.41.37 0 .57-.16.57-.45.85-.53a11.59 11.59 0 0 1 1.22-.16c.45-.08.77-.08 1.14-.12.86-.04 4.47-.04 4.83.78ZM327.42 189.76a1.69 1.69 0 0 1 .45 0s0 .29 0 .29c.32.12 1.18 0 1.54.12s.61.4 1 .57a6.23 6.23 0 0 1 1.79 1.13c.57.49 1.14 1.22 1.7 1.79.08.12.17.32.25.44a13.41 13.41 0 0 1 1 2.76 11 11 0 0 1 .45 3.94 11.53 11.53 0 0 1 0 2.35 41.54 41.54 0 0 1-4.47 0c-1.62 0-3.12-.2-4.17-.12s-1.79.24-2.24.24a13 13 0 0 0-3.08.16 7.24 7.24 0 0 0-.69.29c-.12.12.12.24.12.28 0-.24-.24.61-.24.53a7.2 7.2 0 0 0 1 2.67 4.3 4.3 0 0 0 1.79 1.1 10.8 10.8 0 0 0 3.89.28 10.2 10.2 0 0 0 3.65-1.54c.41-.24 1.18-1 1.38-1a5.1 5.1 0 0 1 1.14.85 10.07 10.07 0 0 1 .81 1.1c.12.16.33.4.45.56s0 .33.12.41a3 3 0 0 1 .57.85c0 .16-.08.41 0 .57l.28.12a5.21 5.21 0 0 1-1 1.66c-.21.21-.61.37-.86.57s-.48.41-.68.57-.57.41-.86.57c-.61.28-1.21.4-1.94.69-.29.08-.61.36-.86.4-.52.12-1.21 0-1.78.12a13 13 0 0 1-4.06.17c-.28 0-.65-.25-1-.29a9.53 9.53 0 0 1-1.95-.28c-.24-.08-.48-.2-.69-.28a13.32 13.32 0 0 1-1.42-.53s-.08-.29-.12-.29a5.68 5.68 0 0 1-1.66-1.54 5.85 5.85 0 0 1-1-1.54c-.08-.2-.08-.45-.16-.69s-.2-.36-.28-.57 0-.36-.12-.69-.45-1.17-.57-1.82c0-.37-.12-.77-.12-1.1a.62.62 0 0 1 .12-.28 8.14 8.14 0 0 1-.29-2.11c0-.28.21-.93.29-1.5a16.82 16.82 0 0 1 .28-2.11A22.25 22.25 0 0 1 316 197a2 2 0 0 1 .29-.44 7.22 7.22 0 0 1 .53-1.22 4.42 4.42 0 0 1 .44-.57c.2-.32.77-.73 1.1-1.13.08-.09 0-.29.16-.41.24-.28.81-.77 1.22-1.14a14.11 14.11 0 0 1 5.88-2.19 6.29 6.29 0 0 1 1.8-.14Zm-3.77 6.24c-.28.16-.85.24-1.14.65-.12.12-.81 1.66-.6 1.86a11 11 0 0 0 2.07 0 5.22 5.22 0 0 1 .52-.12c.81-.2 4.79-.08 5-.32.37-.49-.28-1.38-.77-1.83a3.72 3.72 0 0 0-3.16-.77h-1.06c-.33.13-.41.3-.86.53ZM359.11 189.92c.36.09.81.09 1.09.17a13.23 13.23 0 0 1 1.26.69c.24.12.49.16.69.28a7.14 7.14 0 0 1 2.68 3.2c.12.37.12.82.24 1.26a3.39 3.39 0 0 1 .28.53 17.27 17.27 0 0 1 .45 1.82c0 .41.2.86.28 1.26s-.08 1.06 0 1.54.25.73.25 1.1c.12 1.46-.08 3.16-.12 4.75 0 1.09.08 2.1 0 2.92 0 .52-.25 1.13-.29 1.7s.08 1.62 0 2.35a4.44 4.44 0 0 1-.57 2.11c-.48.41-1.82.16-2.92.12s-2.55.08-2.92-.28c-.73-.73 0-3.21.12-4.3 0-.24-.12-.45-.12-.73 0-.53.25-1.22.29-2.07.2-3.53.08-8.88-.69-10.47a9.94 9.94 0 0 0-.69-1 9.62 9.62 0 0 0-.85-.85 9.41 9.41 0 0 0-1.95-.12 6.59 6.59 0 0 0-2.92.57 17 17 0 0 0-1.83.68c-1 .49-2.92 1.75-3.32 2.93a14 14 0 0 0-.29 4c-.08 3.17-.12 5-.28 8.36 0 .32-.2 3.16-.45 3.33a10 10 0 0 1-1.95.16c-.6 0-1.33-.29-1.66-.29a9.34 9.34 0 0 1-1.38.13 10.17 10.17 0 0 1-1.42-.13c-.36-.4-.08-3.44 0-5.15.2-3.61.29-6.73.45-10.46.12-2.84-.2-5.12-.16-7.67a3.5 3.5 0 0 1 0-1 2.41 2.41 0 0 1 .28-.86c.2-.2.73-.16 1.14-.4.56-.37 3-.25 4.17-.12.13 0 .45-.08.53 0s0 .2.16.28c.45.08.69-.16.86 0a8.85 8.85 0 0 0 .12 1.1 4.34 4.34 0 0 0 0 1.25c.48.41 1-.57 1-.57.37-.2.81-.28 1-.4.78-.45 1.34-.93 1.83-1.14a16.87 16.87 0 0 1 1.95-.4c.85-.16 1.42-.2 2.23-.29a25.21 25.21 0 0 1 3.43.11Z"/>
            <path d="M270.21 111.9a2.64 2.64 0 0 1 1.11.32c2.16 1.15 3.26 3.89 4.29 6.23a5.8 5.8 0 0 1 .57 1.88 3.31 3.31 0 0 1-.48 2.12c-1.1 1.7-3.24 1.66-4.66 1.74a10.52 10.52 0 0 1-6-1.31 2 2 0 0 1-1.19-2.28 5.89 5.89 0 0 1 .81-1.65c.93-1.45 1.77-3 2.65-4.45.65-1.09 1.46-2.48 2.65-2.6a1 1 0 0 1 .25 0Z" style="fill:#b15be1"/>
            <path class="cls-3" d="M242 122.2a8.67 8.67 0 0 0-10.38 7.94s0 .08 0 .12c-2 15.18 15.47 43.43 40.64 41.25 25.49-2.21 40.62-30.75 36.92-44.62a.4.4 0 0 1 0-.11 8.31 8.31 0 0 0-11-7c-8.18 2.51-17.48 9.23-27.7 9.67S250.32 124 242 122.2Z"/>
            <path class="cls-4" d="M259.86 106.8a2.73 2.73 0 0 1-.64 0 3.31 3.31 0 0 1-2.9-3.55c.62-10.31-1.42-15.4-5.86-16.75-3.14-1-7.85-.21-8.72 4.64-1.45 8.13 1.22 10.15 2.18 13.69.47 1.71 1.6 3.22.54 4.64s-3.48 2-4.36.49c-4.14-7.31-6.07-14.79-3.91-21.86 2.06-6.73 9.85-9.77 15.88-7.94 3.61 1.1 11.62 3.91 10.45 23.62a3.15 3.15 0 0 1-2.66 3.02Z"/>
            <path class="cls-4" d="M241.75 113h-.28a3.84 3.84 0 0 1-3.19-1.95c-4.86-8.57-6.24-16.48-4.09-23.5 2.46-8.06 11.72-11.39 18.49-9.33 5.68 1.72 13.09 6.27 11.93 25.74a5.27 5.27 0 0 1-4.47 5 5 5 0 0 1-1.1 0 5.41 5.41 0 0 1-4.81-5.77c.78-13-3.11-14.23-4.38-14.61a5.63 5.63 0 0 0-4.4.37 3.62 3.62 0 0 0-1.64 2.63c-1 5.4 0 7.59 1 9.9a20 20 0 0 1 1.1 2.87 10.57 10.57 0 0 0 .37 1.07c.52 1.35 1.3 3.39-.18 5.37a5.68 5.68 0 0 1-4.35 2.21Zm6.68-31.22c-4.27 0-8.84 2.4-10.24 7-1.78 5.84-.56 12.59 3.64 20a1.53 1.53 0 0 0 .95-.55 4 4 0 0 0-.37-1.36c-.17-.44-.36-.93-.51-1.47a14.89 14.89 0 0 0-.87-2.26c-1.13-2.53-2.54-5.68-1.35-12.34a7.8 7.8 0 0 1 3.58-5.48 9.73 9.73 0 0 1 7.81-.8c7.46 2.26 7.76 11.86 7.34 18.87a1.22 1.22 0 0 0 1 1.34h.18a1.07 1.07 0 0 0 .84-1.06c1.11-18.42-5.94-20.57-9-21.48a10.52 10.52 0 0 0-3-.44Z"/>
            <path d="m294.16 110.18-5-4.33a3.45 3.45 0 0 0-3.1-.72l-6.39 1.65a3.41 3.41 0 0 1-4-4.63l2.58-6.08a3.43 3.43 0 0 0-.25-3.17l-3.55-5.56a3.42 3.42 0 0 1 3.17-5.24l6.58.57a3.4 3.4 0 0 0 2.93-1.23l4.2-5.1a3.42 3.42 0 0 1 6 1.4l1.49 6.43a3.4 3.4 0 0 0 2.07 2.41L307 89a3.41 3.41 0 0 1 .51 6.09l-5.66 3.41a3.4 3.4 0 0 0-1.64 2.72l-.4 6.59a3.42 3.42 0 0 1-5.65 2.37Z" style="fill:#fddb00"/>
            <path style="fill:none" d="M108.62 0h324.32v232.56H108.62z"/>
        </g>
    </g>
</svg>
