<?xml version="1.0" encoding="UTF-8" standalone="no"?>
<svg
   xmlns:dc="http://purl.org/dc/elements/1.1/"
   xmlns:cc="http://creativecommons.org/ns#"
   xmlns:rdf="http://www.w3.org/1999/02/22-rdf-syntax-ns#"
   xmlns:svg="http://www.w3.org/2000/svg"
   xmlns="http://www.w3.org/2000/svg"
   viewBox="0 0 771.02399 771.02399"
   height="771.02399"
   width="771.02399"
   xml:space="preserve"
   id="svg2"
   version="1.1"><metadata
     id="metadata8"><rdf:RDF><cc:Work
         rdf:about=""><dc:format>image/svg+xml</dc:format><dc:type
           rdf:resource="http://purl.org/dc/dcmitype/StillImage" /></cc:Work></rdf:RDF></metadata><defs
     id="defs6"><clipPath
       id="clipPath18"
       clipPathUnits="userSpaceOnUse"><path
         id="path16"
         d="M 0,578.268 H 578.268 V 0 H 0 Z" /></clipPath><clipPath
       id="clipPath26"
       clipPathUnits="userSpaceOnUse"><path
         id="path24"
         d="M 48.1125,530.155 H 530.155 V 48.1125 H 48.1125 Z" /></clipPath></defs><g
     transform="matrix(1.3333333,0,0,-1.3333333,0,771.024)"
     id="g10"><g
       id="g12"><g
         clip-path="url(#clipPath18)"
         id="g14"><g
           id="g20"><g
             id="g22" /><g
             id="g32"><g
               style="opacity:0"
               id="g30"
               clip-path="url(#clipPath26)"><path
                 id="path28"
                 style="fill:#221f1f;fill-opacity:1;fill-rule:nonzero;stroke:none"
                 d="M 48.112,530.155 H 530.155 V 48.113 H 48.112 Z" /></g></g></g><g
           transform="translate(285.4179,345.8199)"
           id="g34"><path
             id="path36"
             style="fill:#b15be1;fill-opacity:1;fill-rule:nonzero;stroke:none"
             d="m 0,0 c 1.979,-0.073 3.819,-0.746 5.497,-1.634 10.8,-5.715 16.256,-19.379 21.399,-31.025 1.288,-2.914 2.516,-5.935 2.86,-9.368 0.343,-3.434 -0.302,-7.381 -2.398,-10.597 -5.51,-8.456 -16.165,-8.26 -23.225,-8.675 -10.845,-0.637 -21.137,1.413 -29.933,6.559 -3.657,2.138 -7.354,5.524 -5.901,11.375 0.723,2.911 2.351,5.636 4.022,8.222 4.646,7.192 8.831,14.778 13.215,22.159 3.222,5.426 7.244,12.37 13.187,12.946 C -0.845,0.004 -0.419,0.016 0,0" /></g><g
           transform="translate(144.5879,294.4615)"
           id="g38"><path
             id="path40"
             style="fill:#ee426e;fill-opacity:1;fill-rule:nonzero;stroke:none"
             d="m 0,0 c -26.719,5.774 -49.423,-14.347 -51.738,-39.576 -0.017,-0.19 0.049,-0.383 0.025,-0.571 -9.721,-75.692 77.096,-216.495 202.547,-205.605 127.04,11.027 202.454,153.231 184.003,222.354 -0.049,0.183 -0.004,0.382 -0.025,0.572 C 331.705,4.573 305.963,20.19 279.834,12.125 239.062,-0.393 192.686,-33.896 141.75,-36.104 90.813,-38.311 41.702,-8.944 0,0" /></g><g
           transform="translate(233.8281,371.1989)"
           id="g42"><path
             id="path44"
             style="fill:#58bde4;fill-opacity:1;fill-rule:nonzero;stroke:none"
             d="m 0,0 c -1.041,-0.141 -2.113,-0.17 -3.205,-0.078 -8.528,0.725 -15.003,8.647 -14.462,17.693 3.074,51.369 -7.056,76.743 -29.212,83.475 -15.635,4.753 -39.104,1.062 -43.425,-23.144 -7.23,-40.499 6.049,-50.573 10.867,-68.204 2.326,-8.513 7.927,-16.052 2.666,-23.11 -5.26,-7.058 -17.365,-10.125 -21.722,-2.447 -20.658,36.402 -30.257,73.706 -19.497,108.934 10.249,33.554 49.075,48.701 79.168,39.557 C -20.838,127.21 19.097,113.21 13.219,14.989 12.747,7.102 7.095,0.961 0,0" /></g><g
           transform="translate(176.83,496.0597)"
           id="g46"><path
             id="path48"
             style="fill:#58bde4;fill-opacity:1;fill-rule:nonzero;stroke:none"
             d="m 0,0 c -21.283,0 -44.032,-11.963 -51.005,-34.793 -8.891,-29.107 -2.787,-62.725 18.136,-99.923 1.263,0.145 3.525,1.118 4.724,2.726 0.293,1.171 -1.06,4.708 -1.867,6.821 -0.831,2.171 -1.771,4.634 -2.5,7.299 -1.03,3.77 -2.582,7.245 -4.377,11.27 -5.625,12.607 -12.628,28.298 -6.696,61.52 2.143,12.005 8.318,21.437 17.856,27.279 10.821,6.626 25.359,8.132 38.886,4.022 37.176,-11.297 38.692,-59.109 36.598,-94.091 -0.202,-3.368 2.051,-6.421 4.922,-6.664 0.318,-0.029 0.618,-0.022 0.921,0.021 2.267,0.307 4.031,2.522 4.196,5.265 C 65.289,-17.416 30.146,-6.735 15.138,-2.176 10.351,-0.721 5.22,0 0,0 m -33.255,-155.608 c -0.468,0 -0.932,0.015 -1.395,0.044 -6.853,0.426 -12.659,3.975 -15.927,9.735 -24.234,42.704 -31.098,82.116 -20.402,117.137 12.275,40.181 58.445,56.756 92.19,46.5 28.294,-8.6 65.237,-31.255 59.43,-128.304 -0.76,-12.678 -10.114,-23.069 -22.242,-24.711 -1.812,-0.247 -3.661,-0.291 -5.497,-0.136 -14.104,1.198 -24.871,14.083 -23.994,28.722 3.894,65.046 -15.464,70.927 -21.824,72.859 -7.668,2.332 -16.268,1.604 -21.906,-1.847 -4.425,-2.711 -7.111,-7.009 -8.205,-13.141 -4.803,-26.904 0.061,-37.802 5.209,-49.34 1.966,-4.406 3.999,-8.96 5.452,-14.275 0.457,-1.672 1.139,-3.457 1.861,-5.347 2.572,-6.725 6.459,-16.89 -0.895,-26.756 -5.055,-6.783 -13.689,-11.139 -21.855,-11.14" /></g><g
           transform="translate(404.7871,354.3683)"
           id="g50"><path
             id="path52"
             style="fill:#fddb00;fill-opacity:1;fill-rule:nonzero;stroke:none"
             d="m 0,0 -24.864,21.568 c -4.228,3.668 -9.99,5.02 -15.409,3.616 l -31.863,-8.255 c -13.645,-3.536 -25.421,10.11 -19.927,23.091 l 12.829,30.312 c 2.181,5.154 1.687,11.053 -1.323,15.772 l -17.697,27.752 c -7.579,11.885 1.76,27.301 15.803,26.088 l 32.793,-2.834 c 5.576,-0.482 11.033,1.811 14.592,6.132 l 20.924,25.407 c 8.961,10.88 26.509,6.762 29.695,-6.968 l 7.438,-32.064 c 1.265,-5.452 5.132,-9.933 10.34,-11.983 l 30.631,-12.05 C 77.078,100.424 78.585,82.463 66.51,75.191 L 38.314,58.208 C 33.52,55.32 30.453,50.258 30.114,44.671 L 28.119,11.816 C 27.265,-2.253 10.648,-9.236 0,0" /></g></g></g></g></svg>