<svg xmlns="http://www.w3.org/2000/svg" viewBox="0 0 266 33.85">
    <g data-name="Layer 2">
        <g data-name="Layer 1">
            <path d="M7.91 33.6h249.55c4.24 0 7.72-3.92 7.88-8.87l.41-12.73c.15-5-3.23-9.1-7.49-9.15L9.8.25C4.34.19 0 5.52.26 11.89l.64 14c.2 4.3 3.28 7.71 7.01 7.71Z" style="fill:#f1f2f2"/>
            <path d="M7.91 33.6h249.55c4.24 0 7.72-3.92 7.88-8.87l.41-12.73c.15-5-3.23-9.1-7.49-9.15L9.8.25C4.34.19 0 5.52.26 11.89l.64 14c.2 4.3 3.28 7.71 7.01 7.71Z" style="fill:none;stroke:#58bde4;stroke-linecap:round;stroke-linejoin:round;stroke-width:.5px;stroke-dasharray:2.99 2.99"/>
        </g>
    </g>
</svg>
