<?xml version="1.0" encoding="UTF-8"?><svg id="Layer_1" xmlns="http://www.w3.org/2000/svg" xmlns:xlink="http://www.w3.org/1999/xlink" viewBox="0 0 787.151 378.343"><defs><clipPath id="clippath"><path d="M787.05,82.075V378.343H1.925V82.075C.581-7.206-16.609,1.951,83.969,.031H705.03c87.838,0,82.099-4.089,82.02,82.044Z" style="fill:none;"/></clipPath><linearGradient id="linear-gradient" x1="605.583" y1="363.98" x2="766.85" y2="256.046" gradientTransform="translate(416.878 -352.723) rotate(44.094)" gradientUnits="userSpaceOnUse"><stop offset="0" stop-color="#ffaf30"/><stop offset="1" stop-color="#ffe94f"/></linearGradient><linearGradient id="linear-gradient-2" x1="605.583" y1="363.98" x2="766.85" y2="256.046" gradientTransform="matrix(1, 0, 0, 1, 0, 0)" xlink:href="#linear-gradient"/><linearGradient id="linear-gradient-3" x1="605.583" y1="363.98" x2="766.85" y2="256.046" gradientTransform="matrix(1, 0, 0, 1, 0, 0)" xlink:href="#linear-gradient"/><linearGradient id="linear-gradient-4" x1="605.583" y1="363.98" x2="766.85" y2="256.046" gradientTransform="matrix(1, 0, 0, 1, 0, 0)" xlink:href="#linear-gradient"/><linearGradient id="linear-gradient-5" x1="594.564" y1="347.517" x2="755.831" y2="239.582" gradientTransform="translate(795.4 -447.421) rotate(75.817)" xlink:href="#linear-gradient"/><linearGradient id="linear-gradient-6" x1="594.564" y1="347.516" x2="755.831" y2="239.582" gradientTransform="matrix(1, 0, 0, 1, 0, 0)" xlink:href="#linear-gradient"/><linearGradient id="linear-gradient-7" x1="594.564" y1="347.517" x2="755.831" y2="239.582" gradientTransform="matrix(1, 0, 0, 1, 0, 0)" xlink:href="#linear-gradient"/><linearGradient id="linear-gradient-8" x1="594.564" y1="347.516" x2="755.831" y2="239.582" gradientTransform="matrix(1, 0, 0, 1, 0, 0)" xlink:href="#linear-gradient"/><linearGradient id="linear-gradient-9" x1="603.529" y1="360.911" x2="764.795" y2="252.977" gradientTransform="translate(722.522 -541.198) rotate(68.696)" xlink:href="#linear-gradient"/><linearGradient id="linear-gradient-10" x1="603.529" y1="360.911" x2="764.795" y2="252.977" gradientTransform="matrix(1, 0, 0, 1, 0, 0)" xlink:href="#linear-gradient"/><linearGradient id="linear-gradient-11" x1="603.529" y1="360.911" x2="764.795" y2="252.977" gradientTransform="matrix(1, 0, 0, 1, 0, 0)" xlink:href="#linear-gradient"/><linearGradient id="linear-gradient-12" x1="603.529" y1="360.911" x2="764.795" y2="252.977" gradientTransform="matrix(1, 0, 0, 1, 0, 0)" xlink:href="#linear-gradient"/><linearGradient id="linear-gradient-13" x1="621.514" y1="387.784" x2="782.781" y2="279.849" gradientTransform="translate(758.334 -470.769) rotate(68.696)" xlink:href="#linear-gradient"/><linearGradient id="linear-gradient-14" x1="621.514" y1="387.784" x2="782.781" y2="279.849" gradientTransform="matrix(1, 0, 0, 1, 0, 0)" xlink:href="#linear-gradient"/><linearGradient id="linear-gradient-15" x1="621.514" y1="387.784" x2="782.781" y2="279.849" gradientTransform="matrix(1, 0, 0, 1, 0, 0)" xlink:href="#linear-gradient"/><linearGradient id="linear-gradient-16" x1="621.514" y1="387.784" x2="782.781" y2="279.849" gradientTransform="matrix(1, 0, 0, 1, 0, 0)" xlink:href="#linear-gradient"/></defs><g style="clip-path:url(#clippath);"><rect x="-245.424" y="-4.059" width="1072.991" height="382.402" style="fill:#a64ffe;"/><circle cx="63.417" cy="57.955" r="195.239" transform="translate(-22.406 61.817) rotate(-45)" style="fill:#8b39ea; opacity:.56;"/><circle cx="787.05" cy="210.691" r="195.239" transform="translate(81.541 618.238) rotate(-45)" style="fill:#8b39ea; opacity:.56;"/><circle cx="63.417" cy="57.955" r="107.139" transform="translate(-22.406 61.817) rotate(-45)" style="fill:#ff5794;"/><circle cx="44.497" cy="301.337" r="56.004" style="fill:#37e0ae;"/><circle cx="172.55" cy="266.695" r="112.009" style="fill:#8b39ea;"/><circle cx="787.05" cy="213.641" r="121.749" transform="translate(451.284 956.844) rotate(-80.874)" style="fill:#8b39ea;"/><circle cx="738.692" cy="1.95" r="88.875" transform="translate(619.294 730.932) rotate(-80.85)" style="fill:#ffe339;"/><circle cx="474.486" cy="234.274" r="56.004" style="fill:#ff5794;"/><circle cx="649.818" cy="-7.206" r="56.004" style="fill:#37e0ae;"/><path d="M618.546,288.194l-8.897-9.229c-1.513-1.569-3.701-2.294-5.852-1.937l-12.646,2.097c-5.416,.898-9.51-4.804-6.929-9.648l6.028-11.314c1.025-1.924,1.038-4.229,.034-6.164l-5.903-11.379c-2.528-4.873,1.63-10.529,7.035-9.572l12.622,2.237c2.147,.38,4.343-.32,5.873-1.873l8.998-9.13c3.853-3.91,10.517-1.704,11.277,3.733l1.773,12.696c.302,2.159,1.646,4.031,3.596,5.007l11.464,5.737c4.909,2.457,4.871,9.476-.065,11.879l-11.526,5.61c-1.96,.954-3.325,2.811-3.651,4.967l-1.913,12.676c-.819,5.428-7.507,7.561-11.317,3.608Z" style="fill:#fd0;"/><g><g><rect x="634.134" y="328.541" width="19.565" height="19.565" transform="translate(-53.961 543.405) rotate(-44.094)" style="fill:url(#linear-gradient);"/><path d="M643.692,352.533l-13.985-14.434,14.434-13.984,13.985,14.434-14.434,13.985Zm-13.232-14.422l13.243,13.668,13.669-13.243-13.243-13.668-13.669,13.243Z" style="fill:url(#linear-gradient-2);"/></g><g><path d="M643.68,353.287l-14.727-15.2,15.2-14.726,14.727,15.2-15.2,14.726Zm-12.466-15.164l12.501,12.903,12.903-12.501-12.501-12.903-12.903,12.502Z" style="fill:url(#linear-gradient-3);"/><path d="M643.675,353.663l-15.098-15.583,15.582-15.097,15.098,15.583-15.582,15.097Zm-14.344-15.571l14.356,14.817,14.817-14.356-14.356-14.817-14.817,14.356Zm14.38,13.31l-12.872-13.286,13.286-12.872,12.872,13.286-13.286,12.872Zm-12.119-13.274l12.13,12.521,12.52-12.131-12.131-12.521-12.52,12.131Z" style="fill:url(#linear-gradient-4);"/></g></g><g><g><rect x="678.847" y="280.868" width="12.268" height="12.268" transform="translate(238.894 880.782) rotate(-75.817)" style="fill:url(#linear-gradient-5);"/><path d="M689.618,294.775l-12.411-3.136,3.136-12.411,12.411,3.137-3.136,12.41Zm-11.763-3.522l11.377,2.875,2.875-11.377-11.377-2.876-2.875,11.378Z" style="fill:url(#linear-gradient-6);"/></g><g><path d="M689.788,295.06l-12.866-3.251,3.252-12.866,12.866,3.251-3.252,12.866Zm-11.648-3.978l10.922,2.76,2.76-10.922-10.922-2.76-2.76,10.922Z" style="fill:url(#linear-gradient-7);"/><path d="M689.981,295.383l-13.383-3.382,3.382-13.382,13.383,3.382-3.382,13.382Zm-12.736-3.768l12.349,3.121,3.121-12.349-12.349-3.121-3.121,12.349Zm12.009,2.55l-11.439-2.891,2.891-11.438,11.439,2.891-2.891,11.438Zm-10.792-3.277l10.405,2.63,2.63-10.406-10.405-2.63-2.63,10.405Z" style="fill:url(#linear-gradient-8);"/></g></g><g><g><rect x="751.098" y="251.905" width="12.268" height="12.268" transform="translate(241.71 869.776) rotate(-68.696)" style="fill:url(#linear-gradient-9);"/><path d="M748.943,261.677l4.651-11.926,11.926,4.651-4.651,11.926-11.926-4.651Zm4.953-11.236l-4.263,10.933,10.933,4.264,4.264-10.933-10.934-4.264Z" style="fill:url(#linear-gradient-10);"/></g><g><path d="M748.639,261.81l4.821-12.364,12.363,4.821-4.821,12.364-12.363-4.821Zm5.391-11.065l-4.093,10.496,10.495,4.093,4.093-10.495-10.496-4.093Z" style="fill:url(#linear-gradient-11);"/><path d="M748.294,261.962l5.015-12.86,12.86,5.015-5.015,12.86-12.859-5.015Zm5.317-12.17l-4.627,11.867,11.867,4.628,4.628-11.867-11.867-4.628Zm-4.019,11.6l4.287-10.992,10.992,4.286-4.287,10.992-10.992-4.286Zm4.59-10.302l-3.9,9.999,9.999,3.899,3.9-9.999-9.999-3.899Z" style="fill:url(#linear-gradient-12);"/></g></g><g><g><rect x="717.473" y="313.32" width="12.268" height="12.268" transform="translate(163.085 877.552) rotate(-68.696)" style="fill:url(#linear-gradient-13);"/><path d="M715.319,323.092l4.651-11.926,11.926,4.651-4.651,11.926-11.926-4.651Zm4.953-11.236l-4.263,10.933,10.933,4.264,4.264-10.933-10.934-4.264Z" style="fill:url(#linear-gradient-14);"/></g><g><path d="M715.015,323.225l4.821-12.364,12.363,4.821-4.821,12.364-12.363-4.821Zm5.391-11.065l-4.093,10.496,10.495,4.093,4.093-10.496-10.495-4.093Z" style="fill:url(#linear-gradient-15);"/><path d="M714.67,323.377l5.015-12.86,12.86,5.015-5.015,12.86-12.859-5.015Zm5.317-12.17l-4.627,11.867,11.867,4.628,4.628-11.867-11.867-4.628Zm-4.02,11.6l4.287-10.992,10.992,4.286-4.287,10.992-10.992-4.286Zm4.59-10.302l-3.9,9.999,9.999,3.899,3.9-9.999-9.999-3.899Z" style="fill:url(#linear-gradient-16);"/></g></g><path d="M468.41,300.818c-.632,.214-1.28,.397-1.911,.565,.016-.076,.016-.137,.016-.214,0-.977-.826-1.801-1.83-1.969,.616-1.313,1.361-2.564,2.122-3.816,.049-.092,.016-.183-.032-.229,.032-.031,.049-.046,.081-.061,.016,.015,.049,.031,.081,.031,1.069,.031,1.733,.855,1.571,1.71l-.194,.183c-.113,.092-.065,.214,.016,.275,0,.015-.016,.031-.016,.046-.032,.015-.065,.03-.081,.046-.065,.046-.065,.122-.032,.183-.032,.198,.292,.351,.454,.153l.146-.229c.389-.046,.794,.076,1.02,.382,.308,.443,.13,.977-.259,1.297-.259,.198,.065,.504,.308,.336,.016-.015,.032-.031,.065-.046,.211-.046,.421-.061,.632-.015-.13,.092-.097,.32,.097,.336,.081,0,.146,.015,.211,.015-.794,.382-1.604,.733-2.462,1.023Z" style="fill:none;"/></g></svg>